<svg xmlns="http://www.w3.org/2000/svg" viewBox="-172.1 -196.0 374.6 372.4">
<rect x="-172.1" y="-196.0" width="374.6" height="372.4" fill="#ccc5b8"/>
<path d="M14.44,26.12L30.96,45.26L43.00,59.54L46.04,72.73L54.38,90.66L68.45,112.79L67.07,156.42" fill="none" stroke="#67635c" stroke-width="2.15" stroke-linecap="butt"/>
<path d="M14.44,26.12L30.96,45.26L43.00,59.54L46.04,72.73L54.38,90.66L68.45,112.79L67.07,156.42" fill="none" stroke="#ccc5b8" stroke-width="1.85"/>
<path d="M-26.59,-24.38L-42.05,-37.05L-56.05,-44.41L-69.89,-56.55L-92.87,-70.99L-110.98,-99.58" fill="none" stroke="#67635c" stroke-width="2.15" stroke-linecap="butt"/>
<path d="M-26.59,-24.38L-42.05,-37.05L-56.05,-44.41L-69.89,-56.55L-92.87,-70.99L-110.98,-99.58" fill="none" stroke="#ccc5b8" stroke-width="1.85"/>
<path d="M9.92,-4.43L1.34,-8.89L-11.34,-8.41L-19.50,-15.28L-26.59,-24.38L-42.05,-37.05L-56.05,-44.41L-69.89,-56.55L-92.87,-70.99L-110.98,-99.58" fill="none" stroke="#67635c" stroke-width="2.15" stroke-linecap="butt"/>
<path d="M9.92,-4.43L1.34,-8.89L-11.34,-8.41L-19.50,-15.28L-26.59,-24.38L-42.05,-37.05L-56.05,-44.41L-69.89,-56.55L-92.87,-70.99L-110.98,-99.58" fill="none" stroke="#ccc5b8" stroke-width="1.85"/>
<path d="M9.92,-4.43L4.03,10.87L14.44,26.12L30.96,45.26L43.00,59.54L46.04,72.73L54.38,90.66L68.45,112.79L67.07,156.42" fill="none" stroke="#67635c" stroke-width="2.15" stroke-linecap="butt"/>
<path d="M9.92,-4.43L4.03,10.87L14.44,26.12L30.96,45.26L43.00,59.54L46.04,72.73L54.38,90.66L68.45,112.79L67.07,156.42" fill="none" stroke="#ccc5b8" stroke-width="1.85"/>
<path d="M5.65,-0.14L4.80,-0.47L5.34,-1.87L6.19,-1.54Z" fill="#99948a" stroke="#1a1917" stroke-width="0.15"/>
<path d="M8.04,-3.58L7.10,-1.14L6.25,-1.47L7.19,-3.91Z" fill="#99948a" stroke="#1a1917" stroke-width="0.15"/>
<path d="M6.14,2.60L5.96,3.06L4.66,2.56L4.83,2.10Z" fill="#99948a" stroke="#1a1917" stroke-width="0.15"/>
<path d="M4.35,5.87L3.65,5.60L4.27,3.98L4.97,4.25Z" fill="#99948a" stroke="#1a1917" stroke-width="0.15"/>
<path d="M3.07,8.17L1.67,6.41L3.00,5.35L4.41,7.11Z" fill="#99948a" stroke="#1a1917" stroke-width="0.15"/>
<path d="M2.26,3.32L3.33,3.59L2.96,5.03L1.89,4.75Z" fill="#99948a" stroke="#1a1917" stroke-width="0.15"/>
<path d="M1.14,3.81L2.44,5.45L1.16,6.46L-0.14,4.83Z" fill="#99948a" stroke="#1a1917" stroke-width="0.15"/>
<path d="M-0.67,2.75L0.90,3.16L0.62,4.23L-0.94,3.82Z" fill="#99948a" stroke="#1a1917" stroke-width="0.15"/>
<path d="M6.18,-3.88L4.38,-2.47L2.59,-4.76L4.39,-6.17Z" fill="#99948a" stroke="#1a1917" stroke-width="0.15"/>
<path d="M1.44,-0.20L-0.49,-2.67L1.44,-4.18L3.37,-1.71Z" fill="#99948a" stroke="#1a1917" stroke-width="0.15"/>
<path d="M-1.99,2.45L-3.97,-0.04L-2.24,-1.41L-0.26,1.07Z" fill="#99948a" stroke="#1a1917" stroke-width="0.15"/>
<path d="M-0.22,1.08L-2.13,-1.46L-0.50,-2.68L1.40,-0.15Z" fill="#99948a" stroke="#1a1917" stroke-width="0.15"/>
<path d="M0.67,-5.11L-0.50,-6.67L1.11,-7.88L2.28,-6.32Z" fill="#99948a" stroke="#1a1917" stroke-width="0.15"/>
<path d="M-0.86,-3.20L-2.43,-2.03L-4.02,-4.15L-2.45,-5.33Z" fill="#99948a" stroke="#1a1917" stroke-width="0.15"/>
<path d="M-1.58,-5.34L-3.60,-5.31L-3.64,-7.51L-1.62,-7.55Z" fill="#99948a" stroke="#1a1917" stroke-width="0.15"/>
<path d="M22.23,1.06L19.03,-0.02L19.90,-2.62L23.11,-1.54Z" fill="#99948a" stroke="#1a1917" stroke-width="0.15"/>
<path d="M22.07,1.26L20.08,7.18L16.77,6.07L18.76,0.15Z" fill="#99948a" stroke="#1a1917" stroke-width="0.15"/>
<path d="M19.77,-2.30L16.44,5.74L11.45,3.67L14.78,-4.36Z" fill="#99948a" stroke="#1a1917" stroke-width="0.15"/>
<path d="M14.18,-3.02L11.77,2.82L8.73,1.56L11.14,-4.28Z" fill="#99948a" stroke="#1a1917" stroke-width="0.15"/>
<path d="M9.39,15.68L11.89,9.65L16.34,11.49L13.84,17.52Z" fill="#99948a" stroke="#1a1917" stroke-width="0.15"/>
<path d="M18.34,12.04L11.97,9.40L13.60,5.44L19.98,8.08Z" fill="#99948a" stroke="#1a1917" stroke-width="0.15"/>
<path d="M-13.22,5.98L-10.26,3.15L-7.43,6.09L-10.39,8.93Z" fill="#99948a" stroke="#1a1917" stroke-width="0.15"/>
<path d="M-7.29,5.99L-10.12,3.03L-8.24,1.22L-5.40,4.18Z" fill="#99948a" stroke="#1a1917" stroke-width="0.15"/>
<path d="M-5.98,-0.63L-3.62,2.34L-5.63,3.94L-7.99,0.98Z" fill="#99948a" stroke="#1a1917" stroke-width="0.15"/>
<path d="M-16.17,0.89L-12.00,4.56L-13.46,6.21L-17.63,2.54Z" fill="#99948a" stroke="#1a1917" stroke-width="0.15"/>
<path d="M-14.25,-1.27L-11.86,0.84L-13.75,2.98L-16.14,0.87Z" fill="#99948a" stroke="#1a1917" stroke-width="0.15"/>
<path d="M-12.92,-2.75L-10.56,-0.31L-11.80,0.89L-14.16,-1.54Z" fill="#99948a" stroke="#1a1917" stroke-width="0.15"/>
<path d="M-19.67,0.49L-14.68,-4.18L-13.22,-2.62L-18.20,2.05Z" fill="#99948a" stroke="#1a1917" stroke-width="0.15"/>
<path d="M-8.12,-3.35L-6.15,-0.88L-8.39,0.90L-10.35,-1.57Z" fill="#99948a" stroke="#1a1917" stroke-width="0.15"/>
<path d="M-11.84,-2.80L-9.53,-5.04L-8.20,-3.68L-10.52,-1.43Z" fill="#99948a" stroke="#1a1917" stroke-width="0.15"/>
<path d="M-14.07,-5.17L-11.58,-7.50L-9.41,-5.18L-11.90,-2.85Z" fill="#99948a" stroke="#1a1917" stroke-width="0.15"/>
<path d="M-11.47,8.13L-13.16,10.05L-14.13,9.20L-12.44,7.28Z" fill="#99948a" stroke="#1a1917" stroke-width="0.15"/>
<path d="M-12.44,7.28L-14.22,9.01L-15.27,7.94L-13.49,6.21Z" fill="#99948a" stroke="#1a1917" stroke-width="0.15"/>
<path d="M-10.47,8.97L-12.38,10.82L-13.08,10.10L-11.17,8.25Z" fill="#99948a" stroke="#1a1917" stroke-width="0.15"/>
<path d="M-13.81,6.15L-15.50,7.79L-16.37,6.89L-14.68,5.25Z" fill="#99948a" stroke="#1a1917" stroke-width="0.15"/>
<path d="M-13.63,11.98L-16.10,9.43L-14.98,8.35L-12.51,10.89Z" fill="#99948a" stroke="#1a1917" stroke-width="0.15"/>
<path d="M-16.10,13.95L-18.15,10.93L-16.03,9.50L-13.99,12.51Z" fill="#99948a" stroke="#1a1917" stroke-width="0.15"/>
<path d="M-15.35,8.54L-18.42,10.63L-19.80,8.59L-16.74,6.51Z" fill="#99948a" stroke="#1a1917" stroke-width="0.15"/>
<path d="M-18.99,5.82L-22.26,2.93L-20.08,0.45L-16.80,3.34Z" fill="#99948a" stroke="#1a1917" stroke-width="0.15"/>
<path d="M-20.34,7.24L-22.74,3.72L-21.96,3.19L-19.57,6.72Z" fill="#99948a" stroke="#1a1917" stroke-width="0.15"/>
<path d="M-15.29,4.82L-19.58,7.44L-19.84,7.02L-15.54,4.40Z" fill="#99948a" stroke="#1a1917" stroke-width="0.15"/>
<path d="M-2.94,2.92L-1.12,5.21L-2.79,6.54L-4.61,4.26Z" fill="#99948a" stroke="#1a1917" stroke-width="0.15"/>
<path d="M-4.66,4.55L-2.90,6.76L-4.13,7.74L-5.90,5.53Z" fill="#99948a" stroke="#1a1917" stroke-width="0.15"/>
<path d="M-3.60,7.32L-1.06,5.29L0.89,7.73L-1.65,9.76Z" fill="#99948a" stroke="#1a1917" stroke-width="0.15"/>
<path d="M-2.79,10.49L-4.21,8.04L-3.40,7.57L-1.98,10.02Z" fill="#99948a" stroke="#1a1917" stroke-width="0.15"/>
<path d="M0.91,8.10L2.89,10.58L1.49,11.69L-0.49,9.21Z" fill="#99948a" stroke="#1a1917" stroke-width="0.15"/>
<path d="M-0.41,9.36L0.90,11.74L-1.48,13.05L-2.79,10.67Z" fill="#99948a" stroke="#1a1917" stroke-width="0.15"/>
<path d="M-9.84,10.00L-6.22,6.49L-4.02,8.76L-7.64,12.27Z" fill="#99948a" stroke="#1a1917" stroke-width="0.15"/>
<path d="M-8.47,12.76L-5.53,11.05L-4.69,12.50L-7.63,14.21Z" fill="#99948a" stroke="#1a1917" stroke-width="0.15"/>
<path d="M-7.52,14.19L-4.66,12.53L-3.58,14.39L-6.44,16.05Z" fill="#99948a" stroke="#1a1917" stroke-width="0.15"/>
<path d="M-3.39,9.84L-1.42,13.23L-3.51,14.44L-5.48,11.05Z" fill="#99948a" stroke="#1a1917" stroke-width="0.15"/>
<path d="M-12.18,14.88L-14.42,16.32L-15.43,14.75L-13.19,13.31Z" fill="#99948a" stroke="#1a1917" stroke-width="0.15"/>
<path d="M-13.18,12.81L-11.12,10.81L-9.36,12.62L-11.42,14.62Z" fill="#99948a" stroke="#1a1917" stroke-width="0.15"/>
<path d="M-12.07,15.13L-10.27,17.93L-12.63,19.45L-14.43,16.66Z" fill="#99948a" stroke="#1a1917" stroke-width="0.15"/>
<path d="M-8.99,13.20L-7.10,16.13L-10.11,18.07L-12.00,15.14Z" fill="#99948a" stroke="#1a1917" stroke-width="0.15"/>
<path d="M-12.16,-11.35L-16.59,-15.08L-14.53,-17.53L-10.10,-13.80Z" fill="#99948a" stroke="#1a1917" stroke-width="0.15"/>
<path d="M-9.20,-12.95L-12.25,-18.31L-10.23,-19.45L-7.19,-14.09Z" fill="#99948a" stroke="#1a1917" stroke-width="0.15"/>
<path d="M-10.36,-11.69L-7.73,-13.68L-6.08,-11.50L-8.71,-9.51Z" fill="#99948a" stroke="#1a1917" stroke-width="0.15"/>
<path d="M-4.91,-23.00L-2.72,-19.14L-5.92,-17.32L-8.11,-21.18Z" fill="#99948a" stroke="#1a1917" stroke-width="0.15"/>
<path d="M-0.76,-15.84L-2.69,-19.23L1.62,-21.67L3.54,-18.29Z" fill="#99948a" stroke="#1a1917" stroke-width="0.15"/>
<path d="M-4.72,-23.10L0.43,-26.03L1.56,-24.05L-3.60,-21.12Z" fill="#99948a" stroke="#1a1917" stroke-width="0.15"/>
<path d="M-2.59,-13.22L1.58,-11.76L0.92,-9.87L-3.25,-11.33Z" fill="#99948a" stroke="#1a1917" stroke-width="0.15"/>
<path d="M0.07,25.77L0.94,27.26L-1.52,28.70L-2.39,27.22Z" fill="#99948a" stroke="#1a1917" stroke-width="0.15"/>
<path d="M-8.70,25.25L-8.48,28.01L-10.86,28.20L-11.09,25.44Z" fill="#99948a" stroke="#1a1917" stroke-width="0.15"/>
<path d="M-6.52,25.06L-6.27,28.16L-8.42,28.33L-8.67,25.23Z" fill="#99948a" stroke="#1a1917" stroke-width="0.15"/>
<path d="M-2.98,25.37L-3.51,28.24L-6.31,27.73L-5.77,24.85Z" fill="#99948a" stroke="#1a1917" stroke-width="0.15"/>
<path d="M-8.65,25.08L-8.91,21.89L-6.39,21.69L-6.13,24.88Z" fill="#99948a" stroke="#1a1917" stroke-width="0.15"/>
<path d="M-6.13,24.88L-6.39,21.69L-3.99,21.49L-3.73,24.69Z" fill="#99948a" stroke="#1a1917" stroke-width="0.15"/>
<path d="M-4.32,21.27L-7.83,21.56L-8.11,18.11L-4.60,17.83Z" fill="#99948a" stroke="#1a1917" stroke-width="0.15"/>
<path d="M-9.67,19.83L-9.28,24.72L-11.13,24.87L-11.52,19.98Z" fill="#99948a" stroke="#1a1917" stroke-width="0.15"/>
<path d="M-12.15,20.83L-11.92,23.73L-12.29,23.76L-12.53,20.86Z" fill="#99948a" stroke="#1a1917" stroke-width="0.15"/>
<path d="M-11.95,24.21L-11.65,27.91L-13.48,28.06L-13.78,24.36Z" fill="#99948a" stroke="#1a1917" stroke-width="0.15"/>
<path d="M3.20,18.99L-0.17,14.37L3.28,11.85L6.65,16.47Z" fill="#99948a" stroke="#1a1917" stroke-width="0.15"/>
<path d="M-0.33,20.45L2.66,18.27L3.37,19.25L0.39,21.43Z" fill="#99948a" stroke="#1a1917" stroke-width="0.15"/>
<path d="M-2.09,17.52L0.79,15.83L2.36,18.49L-0.53,20.18Z" fill="#99948a" stroke="#1a1917" stroke-width="0.15"/>
<path d="M-1.02,22.31L-3.32,18.41L-2.27,17.79L0.03,21.70Z" fill="#99948a" stroke="#1a1917" stroke-width="0.15"/>
<path d="M0.24,15.21L-3.98,17.69L-4.73,16.41L-0.51,13.93Z" fill="#99948a" stroke="#1a1917" stroke-width="0.15"/>
<path d="M7.56,18.00L9.27,20.50L6.02,22.72L4.31,20.22Z" fill="#99948a" stroke="#1a1917" stroke-width="0.15"/>
<path d="M11.79,25.18L6.93,26.55L6.37,24.54L11.22,23.18Z" fill="#99948a" stroke="#1a1917" stroke-width="0.15"/>
<path d="M4.18,21.14L5.68,26.46L1.81,27.55L0.31,22.23Z" fill="#99948a" stroke="#1a1917" stroke-width="0.15"/>
<path d="M-4.84,-26.30L-3.19,-27.19L-2.37,-25.68L-4.03,-24.79Z" fill="#99948a" stroke="#1a1917" stroke-width="0.15"/>
<path d="M-5.95,-28.95L-2.60,-28.95L-2.59,-27.51L-5.95,-27.51Z" fill="#99948a" stroke="#1a1917" stroke-width="0.15"/>
<path d="M-9.14,-24.26L-8.01,-22.58L-9.83,-21.35L-10.96,-23.03Z" fill="#99948a" stroke="#1a1917" stroke-width="0.15"/>
<path d="M-8.99,-24.35L-6.24,-26.21L-5.00,-24.39L-7.76,-22.52Z" fill="#99948a" stroke="#1a1917" stroke-width="0.15"/>
<path d="M-9.39,-25.13L-11.14,-27.73L-8.26,-29.68L-6.50,-27.08Z" fill="#99948a" stroke="#1a1917" stroke-width="0.15"/>
<path d="M-11.21,-23.34L-13.90,-27.33L-11.86,-28.71L-9.16,-24.72Z" fill="#99948a" stroke="#1a1917" stroke-width="0.15"/>
<path d="M-21.79,-23.93L-20.46,-20.29L-21.76,-19.81L-23.09,-23.45Z" fill="#99948a" stroke="#1a1917" stroke-width="0.15"/>
<path d="M-24.63,-23.63L-22.07,-24.56L-21.98,-24.32L-24.54,-23.38Z" fill="#99948a" stroke="#1a1917" stroke-width="0.15"/>
<path d="M-16.56,-23.43L-19.80,-20.90L-20.45,-21.74L-17.21,-24.26Z" fill="#99948a" stroke="#1a1917" stroke-width="0.15"/>
<path d="M-16.66,-24.47L-18.74,-23.70L-19.53,-25.86L-17.45,-26.62Z" fill="#99948a" stroke="#1a1917" stroke-width="0.15"/>
<path d="M-20.89,-22.92L-21.69,-25.11L-19.65,-25.85L-18.85,-23.66Z" fill="#99948a" stroke="#1a1917" stroke-width="0.15"/>
<path d="M-10.62,-20.96L-13.64,-19.24L-15.11,-21.82L-12.09,-23.54Z" fill="#99948a" stroke="#1a1917" stroke-width="0.15"/>
<path d="M-12.26,-23.46L-15.12,-22.07L-15.75,-23.36L-12.89,-24.76Z" fill="#99948a" stroke="#1a1917" stroke-width="0.15"/>
<path d="M-13.04,-24.70L-15.77,-23.37L-16.27,-24.38L-13.53,-25.71Z" fill="#99948a" stroke="#1a1917" stroke-width="0.15"/>
<path d="M-27.34,11.52L-31.06,7.28L-28.27,4.83L-24.54,9.07Z" fill="#99948a" stroke="#1a1917" stroke-width="0.15"/>
<path d="M-27.45,11.62L-30.67,14.45L-31.86,13.10L-28.64,10.27Z" fill="#99948a" stroke="#1a1917" stroke-width="0.15"/>
<path d="M-28.72,10.33L-31.92,12.81L-34.40,9.60L-31.20,7.12Z" fill="#99948a" stroke="#1a1917" stroke-width="0.15"/>
<path d="M-27.04,12.03L-22.95,16.70L-26.02,19.39L-30.11,14.72Z" fill="#99948a" stroke="#1a1917" stroke-width="0.15"/>
<path d="M-26.59,11.48L-22.14,7.58L-21.10,8.77L-25.55,12.67Z" fill="#99948a" stroke="#1a1917" stroke-width="0.15"/>
<path d="M-25.56,12.68L-20.88,9.49L-18.87,12.45L-23.55,15.64Z" fill="#99948a" stroke="#1a1917" stroke-width="0.15"/>
<path d="M-22.99,15.72L-18.46,12.65L-17.38,14.24L-21.90,17.32Z" fill="#99948a" stroke="#1a1917" stroke-width="0.15"/>
<path d="M-23.36,19.77L-17.28,16.71L-15.73,19.77L-21.82,22.83Z" fill="#99948a" stroke="#1a1917" stroke-width="0.15"/>
<path d="M-33.49,-8.73L-30.49,-14.34L-28.74,-13.41L-31.74,-7.80Z" fill="#99948a" stroke="#1a1917" stroke-width="0.15"/>
<path d="M-27.69,-4.98L-31.85,-7.48L-30.94,-9.01L-26.78,-6.51Z" fill="#99948a" stroke="#1a1917" stroke-width="0.15"/>
<path d="M-24.46,-10.47L-26.69,-6.65L-29.21,-8.13L-26.97,-11.94Z" fill="#99948a" stroke="#1a1917" stroke-width="0.15"/>
<path d="M-26.84,-12.14L-28.74,-9.30L-30.12,-10.23L-28.23,-13.06Z" fill="#99948a" stroke="#1a1917" stroke-width="0.15"/>
<path d="M-30.12,-10.23L-28.74,-9.30L-29.42,-8.27L-30.81,-9.20Z" fill="#99948a" stroke="#1a1917" stroke-width="0.15"/>
<path d="M-36.70,1.56L-32.61,2.64L-33.06,4.34L-37.15,3.25Z" fill="#99948a" stroke="#1a1917" stroke-width="0.15"/>
<path d="M-33.02,-2.88L-33.50,0.58L-35.93,0.24L-35.44,-3.22Z" fill="#99948a" stroke="#1a1917" stroke-width="0.15"/>
<path d="M-32.26,-2.82L-29.94,-2.49L-30.24,-0.33L-32.56,-0.66Z" fill="#99948a" stroke="#1a1917" stroke-width="0.15"/>
<path d="M-32.74,-0.59L-31.08,0.39L-31.66,1.37L-33.32,0.40Z" fill="#99948a" stroke="#1a1917" stroke-width="0.15"/>
<path d="M-34.05,-6.85L-29.23,-3.96L-29.99,-2.69L-34.81,-5.59Z" fill="#99948a" stroke="#1a1917" stroke-width="0.15"/>
<path d="M-24.91,2.25L-30.36,3.06L-30.60,1.46L-25.15,0.65Z" fill="#99948a" stroke="#1a1917" stroke-width="0.15"/>
<path d="M-24.41,0.29L-28.35,-1.37L-26.84,-4.95L-22.91,-3.30Z" fill="#99948a" stroke="#1a1917" stroke-width="0.15"/>
<path d="M-22.30,-2.63L-19.99,-1.56L-20.44,-0.58L-22.75,-1.65Z" fill="#99948a" stroke="#1a1917" stroke-width="0.15"/>
<path d="M-22.70,-1.39L-21.55,-0.16L-22.79,0.99L-23.93,-0.23Z" fill="#99948a" stroke="#1a1917" stroke-width="0.15"/>
<path d="M-25.29,-7.60L-21.84,-5.58L-23.12,-3.40L-26.57,-5.42Z" fill="#99948a" stroke="#1a1917" stroke-width="0.15"/>
<path d="M-23.75,-9.96L-20.39,-7.71L-21.72,-5.71L-25.09,-7.95Z" fill="#99948a" stroke="#1a1917" stroke-width="0.15"/>
<path d="M-20.27,-2.28L-22.80,-3.46L-22.19,-4.77L-19.66,-3.59Z" fill="#99948a" stroke="#1a1917" stroke-width="0.15"/>
<path d="M-20.03,-2.11L-19.23,-3.31L-18.52,-2.83L-19.32,-1.63Z" fill="#99948a" stroke="#1a1917" stroke-width="0.15"/>
<path d="M-21.95,-5.12L-20.22,-7.72L-18.68,-6.69L-20.41,-4.10Z" fill="#99948a" stroke="#1a1917" stroke-width="0.15"/>
<path d="M-16.80,-5.44L-18.53,-2.84L-20.41,-4.10L-18.68,-6.69Z" fill="#99948a" stroke="#1a1917" stroke-width="0.15"/>
<path d="M-21.12,-9.60L-18.99,-13.33L-18.19,-12.87L-20.32,-9.14Z" fill="#99948a" stroke="#1a1917" stroke-width="0.15"/>
<path d="M-20.45,-8.99L-17.70,-12.24L-15.45,-10.35L-18.19,-7.09Z" fill="#99948a" stroke="#1a1917" stroke-width="0.15"/>
<path d="M-16.51,-8.95L-14.07,-6.89L-15.44,-5.26L-17.89,-7.31Z" fill="#99948a" stroke="#1a1917" stroke-width="0.15"/>
<path d="M-15.24,-10.38L-12.62,-8.18L-13.75,-6.84L-16.36,-9.04Z" fill="#99948a" stroke="#1a1917" stroke-width="0.15"/>
<path d="M-21.81,-9.55L-24.39,-11.27L-22.66,-13.87L-20.08,-12.15Z" fill="#99948a" stroke="#1a1917" stroke-width="0.15"/>
<path d="M-23.98,-14.61L-25.49,-12.08L-27.27,-13.15L-25.77,-15.67Z" fill="#99948a" stroke="#1a1917" stroke-width="0.15"/>
<path d="M-22.86,-13.93L-24.53,-11.43L-25.50,-12.07L-23.83,-14.57Z" fill="#99948a" stroke="#1a1917" stroke-width="0.15"/>
<path d="M-25.26,-16.55L-24.11,-18.47L-22.50,-17.51L-23.65,-15.59Z" fill="#99948a" stroke="#1a1917" stroke-width="0.15"/>
<path d="M-28.41,-18.66L-25.64,-17.18L-26.21,-16.13L-28.97,-17.61Z" fill="#99948a" stroke="#1a1917" stroke-width="0.15"/>
<path d="M-28.97,-17.54L-26.34,-15.97L-27.74,-13.64L-30.36,-15.21Z" fill="#99948a" stroke="#1a1917" stroke-width="0.15"/>
<path d="M-28.12,-19.39L-27.08,-21.33L-24.33,-19.86L-25.37,-17.92Z" fill="#99948a" stroke="#1a1917" stroke-width="0.15"/>
<path d="M29.70,45.58L13.45,49.71L11.57,48.89L1.80,30.99L2.43,29.50L13.19,26.47L15.29,27.10L30.11,44.27Z" fill="#a5a393" stroke="none"/>
<path d="M16.27,28.23L16.93,28.99L15.05,30.61L14.39,29.85Z" fill="#99948a" stroke="#1a1917" stroke-width="0.15"/>
<path d="M-38.64,-10.14L-36.98,-13.32L-34.51,-12.02L-36.17,-8.85Z" fill="#99948a" stroke="#1a1917" stroke-width="0.15"/>
<path d="M-35.41,-14.22L-41.77,-17.55L-39.35,-22.18L-32.99,-18.85Z" fill="#99948a" stroke="#1a1917" stroke-width="0.15"/>
<path d="M-29.98,-20.98L-33.79,-13.87L-34.82,-14.42L-31.02,-21.53Z" fill="#99948a" stroke="#1a1917" stroke-width="0.15"/>
<path d="M-40.49,-33.94L-37.98,-31.89L-38.93,-30.73L-41.44,-32.78Z" fill="#99948a" stroke="#1a1917" stroke-width="0.15"/>
<path d="M-40.69,-26.63L-37.27,-30.80L-36.17,-29.89L-39.58,-25.72Z" fill="#99948a" stroke="#1a1917" stroke-width="0.15"/>
<path d="M-29.61,-21.96L-32.97,-23.35L-31.85,-26.04L-28.50,-24.65Z" fill="#99948a" stroke="#1a1917" stroke-width="0.15"/>
<path d="M-43.93,-33.23L-42.53,-35.80L-41.27,-35.12L-42.67,-32.54Z" fill="#99948a" stroke="#1a1917" stroke-width="0.15"/>
<path d="M-46.80,-37.02L-43.61,-36.16L-43.94,-34.93L-47.13,-35.80Z" fill="#99948a" stroke="#1a1917" stroke-width="0.15"/>
<path d="M-52.50,-40.75L-53.60,-36.70L-54.20,-36.87L-53.10,-40.91Z" fill="#99948a" stroke="#1a1917" stroke-width="0.15"/>
<path d="M-28.26,-34.67L-26.91,-37.36L-25.28,-36.54L-26.63,-33.85Z" fill="#99948a" stroke="#1a1917" stroke-width="0.15"/>
<path d="M-25.95,-30.94L-27.61,-32.11L-26.63,-33.51L-24.97,-32.35Z" fill="#99948a" stroke="#1a1917" stroke-width="0.15"/>
<path d="M-28.05,-31.77L-31.68,-34.73L-30.92,-35.66L-27.30,-32.69Z" fill="#99948a" stroke="#1a1917" stroke-width="0.15"/>
<path d="M-28.76,-30.90L-30.45,-28.84L-31.90,-30.03L-30.22,-32.09Z" fill="#99948a" stroke="#1a1917" stroke-width="0.15"/>
<path d="M-30.22,-32.09L-31.90,-30.03L-33.21,-31.10L-31.53,-33.16Z" fill="#99948a" stroke="#1a1917" stroke-width="0.15"/>
<path d="M-34.54,-32.40L-32.81,-34.12L-31.67,-32.98L-33.41,-31.26Z" fill="#99948a" stroke="#1a1917" stroke-width="0.15"/>
<path d="M-40.97,-37.69L-38.60,-40.78L-37.30,-39.78L-39.67,-36.69Z" fill="#99948a" stroke="#1a1917" stroke-width="0.15"/>
<path d="M-37.15,-39.40L-32.82,-35.36L-35.24,-32.76L-39.57,-36.80Z" fill="#99948a" stroke="#1a1917" stroke-width="0.15"/>
<path d="M-19.23,-34.29L-21.39,-30.22L-24.54,-31.89L-22.39,-35.96Z" fill="#99948a" stroke="#1a1917" stroke-width="0.15"/>
<path d="M-18.69,-28.34L-20.58,-27.64L-21.47,-30.07L-19.58,-30.76Z" fill="#99948a" stroke="#1a1917" stroke-width="0.15"/>
<path d="M-18.39,-35.20L-14.96,-33.02L-17.13,-29.59L-20.57,-31.77Z" fill="#99948a" stroke="#1a1917" stroke-width="0.15"/>
<path d="M-27.18,-28.15L-25.31,-26.84L-26.18,-25.59L-28.05,-26.91Z" fill="#99948a" stroke="#1a1917" stroke-width="0.15"/>
<path d="M-24.45,-30.94L-22.95,-27.95L-25.25,-26.79L-26.75,-29.79Z" fill="#99948a" stroke="#1a1917" stroke-width="0.15"/>
<path d="M-15.98,-36.78L-13.20,-35.58L-13.98,-33.76L-16.76,-34.96Z" fill="#99948a" stroke="#1a1917" stroke-width="0.15"/>
<path d="M-10.72,-31.56L-13.18,-33.12L-11.98,-35.02L-9.51,-33.46Z" fill="#99948a" stroke="#1a1917" stroke-width="0.15"/>
<path d="M-0.15,29.78L-0.12,29.78L1.80,30.99L11.57,48.89L11.65,51.21L8.58,57.86L6.75,58.83L-9.87,56.04L-10.70,54.60L-1.91,30.93Z" fill="#a5a393" stroke="none"/>
<path d="M-14.45,55.27L-22.07,53.99L-23.59,52.50L-24.28,48.72L-23.97,46.26L-16.49,30.11L-14.64,29.00L-4.84,29.53L-4.00,30.82L-12.71,54.27Z" fill="#a5a393" stroke="none"/>
<line x1="-10.34" y1="55.23" x2="9.79" y2="55.23" stroke="#a5a393" stroke-width="0.15" opacity="0.5"/>
<line x1="-10.49" y1="54.04" x2="10.34" y2="54.04" stroke="#a5a393" stroke-width="0.15" opacity="0.5"/>
<line x1="-10.05" y1="52.85" x2="10.89" y2="52.85" stroke="#a5a393" stroke-width="0.15" opacity="0.5"/>
<line x1="-9.61" y1="51.67" x2="11.44" y2="51.67" stroke="#a5a393" stroke-width="0.15" opacity="0.5"/>
<line x1="-9.17" y1="50.48" x2="11.62" y2="50.48" stroke="#a5a393" stroke-width="0.15" opacity="0.5"/>
<line x1="-8.73" y1="49.29" x2="11.58" y2="49.29" stroke="#a5a393" stroke-width="0.15" opacity="0.5"/>
<line x1="-8.29" y1="48.11" x2="11.14" y2="48.11" stroke="#a5a393" stroke-width="0.15" opacity="0.5"/>
<line x1="-7.85" y1="46.92" x2="10.49" y2="46.92" stroke="#a5a393" stroke-width="0.15" opacity="0.5"/>
<line x1="-7.41" y1="45.73" x2="9.84" y2="45.73" stroke="#a5a393" stroke-width="0.15" opacity="0.5"/>
<line x1="-6.97" y1="44.55" x2="9.20" y2="44.55" stroke="#a5a393" stroke-width="0.15" opacity="0.5"/>
<line x1="-6.52" y1="43.36" x2="8.55" y2="43.36" stroke="#a5a393" stroke-width="0.15" opacity="0.5"/>
<line x1="-6.08" y1="42.17" x2="7.90" y2="42.17" stroke="#a5a393" stroke-width="0.15" opacity="0.5"/>
<line x1="-5.64" y1="40.99" x2="7.25" y2="40.99" stroke="#a5a393" stroke-width="0.15" opacity="0.5"/>
<line x1="-5.20" y1="39.80" x2="6.60" y2="39.80" stroke="#a5a393" stroke-width="0.15" opacity="0.5"/>
<line x1="-4.76" y1="38.61" x2="5.96" y2="38.61" stroke="#a5a393" stroke-width="0.15" opacity="0.5"/>
<line x1="-4.32" y1="37.42" x2="5.31" y2="37.42" stroke="#a5a393" stroke-width="0.15" opacity="0.5"/>
<line x1="-3.88" y1="36.24" x2="4.66" y2="36.24" stroke="#a5a393" stroke-width="0.15" opacity="0.5"/>
<line x1="-3.44" y1="35.05" x2="4.01" y2="35.05" stroke="#a5a393" stroke-width="0.15" opacity="0.5"/>
<line x1="-3.00" y1="33.86" x2="3.36" y2="33.86" stroke="#a5a393" stroke-width="0.15" opacity="0.5"/>
<line x1="-2.55" y1="32.68" x2="2.72" y2="32.68" stroke="#a5a393" stroke-width="0.15" opacity="0.5"/>
<line x1="-2.11" y1="31.49" x2="2.07" y2="31.49" stroke="#a5a393" stroke-width="0.15" opacity="0.5"/>
<line x1="-0.95" y1="30.30" x2="0.70" y2="30.30" stroke="#a5a393" stroke-width="0.15" opacity="0.5"/>
<path d="M-8.10,54.12L-8.57,55.39L-10.70,54.60L-10.23,53.33Z" fill="#99948a" stroke="#1a1917" stroke-width="0.15"/>
<path d="M-6.96,31.23L-6.47,29.90L-4.00,30.82L-4.49,32.14Z" fill="#99948a" stroke="#1a1917" stroke-width="0.15"/>
<path d="M35.53,-70.49L37.88,-70.56L40.09,-69.67L56.64,-52.93L56.81,-50.93L42.65,-30.58L40.62,-29.33L33.96,-28.40L32.72,-29.51L34.18,-69.15Z" fill="#a5a393" stroke="none"/>
<path d="M29.38,-27.75L27.20,-27.45L25.42,-28.47L16.95,-49.22L17.29,-51.43L31.36,-68.36L32.14,-68.06L30.71,-29.23Z" fill="#a5a393" stroke="none"/>
<line x1="33.46" y1="-28.86" x2="37.24" y2="-28.86" stroke="#a5a393" stroke-width="0.15" opacity="0.5"/>
<line x1="32.75" y1="-30.14" x2="41.93" y2="-30.14" stroke="#a5a393" stroke-width="0.15" opacity="0.5"/>
<line x1="32.79" y1="-31.42" x2="43.23" y2="-31.42" stroke="#a5a393" stroke-width="0.15" opacity="0.5"/>
<line x1="32.84" y1="-32.69" x2="44.12" y2="-32.69" stroke="#a5a393" stroke-width="0.15" opacity="0.5"/>
<line x1="32.89" y1="-33.97" x2="45.01" y2="-33.97" stroke="#a5a393" stroke-width="0.15" opacity="0.5"/>
<line x1="32.94" y1="-35.25" x2="45.90" y2="-35.25" stroke="#a5a393" stroke-width="0.15" opacity="0.5"/>
<line x1="32.98" y1="-36.53" x2="46.79" y2="-36.53" stroke="#a5a393" stroke-width="0.15" opacity="0.5"/>
<line x1="33.03" y1="-37.81" x2="47.68" y2="-37.81" stroke="#a5a393" stroke-width="0.15" opacity="0.5"/>
<line x1="33.08" y1="-39.09" x2="48.57" y2="-39.09" stroke="#a5a393" stroke-width="0.15" opacity="0.5"/>
<line x1="33.12" y1="-40.37" x2="49.46" y2="-40.37" stroke="#a5a393" stroke-width="0.15" opacity="0.5"/>
<line x1="33.17" y1="-41.65" x2="50.35" y2="-41.65" stroke="#a5a393" stroke-width="0.15" opacity="0.5"/>
<line x1="33.22" y1="-42.93" x2="51.24" y2="-42.93" stroke="#a5a393" stroke-width="0.15" opacity="0.5"/>
<line x1="33.26" y1="-44.21" x2="52.14" y2="-44.21" stroke="#a5a393" stroke-width="0.15" opacity="0.5"/>
<line x1="33.31" y1="-45.49" x2="53.03" y2="-45.49" stroke="#a5a393" stroke-width="0.15" opacity="0.5"/>
<line x1="33.36" y1="-46.77" x2="53.92" y2="-46.77" stroke="#a5a393" stroke-width="0.15" opacity="0.5"/>
<line x1="33.41" y1="-48.05" x2="54.81" y2="-48.05" stroke="#a5a393" stroke-width="0.15" opacity="0.5"/>
<line x1="33.50" y1="-50.61" x2="56.59" y2="-50.61" stroke="#a5a393" stroke-width="0.15" opacity="0.5"/>
<line x1="33.55" y1="-51.89" x2="56.73" y2="-51.89" stroke="#a5a393" stroke-width="0.15" opacity="0.5"/>
<line x1="33.59" y1="-53.17" x2="56.40" y2="-53.17" stroke="#a5a393" stroke-width="0.15" opacity="0.5"/>
<line x1="33.64" y1="-54.45" x2="55.13" y2="-54.45" stroke="#a5a393" stroke-width="0.15" opacity="0.5"/>
<line x1="33.69" y1="-55.73" x2="53.87" y2="-55.73" stroke="#a5a393" stroke-width="0.15" opacity="0.5"/>
<line x1="33.73" y1="-57.01" x2="52.60" y2="-57.01" stroke="#a5a393" stroke-width="0.15" opacity="0.5"/>
<line x1="33.78" y1="-58.29" x2="51.34" y2="-58.29" stroke="#a5a393" stroke-width="0.15" opacity="0.5"/>
<line x1="33.83" y1="-59.57" x2="50.07" y2="-59.57" stroke="#a5a393" stroke-width="0.15" opacity="0.5"/>
<line x1="33.88" y1="-60.85" x2="48.81" y2="-60.85" stroke="#a5a393" stroke-width="0.15" opacity="0.5"/>
<line x1="33.92" y1="-62.13" x2="47.54" y2="-62.13" stroke="#a5a393" stroke-width="0.15" opacity="0.5"/>
<line x1="33.97" y1="-63.41" x2="46.28" y2="-63.41" stroke="#a5a393" stroke-width="0.15" opacity="0.5"/>
<line x1="34.02" y1="-64.69" x2="45.01" y2="-64.69" stroke="#a5a393" stroke-width="0.15" opacity="0.5"/>
<line x1="34.06" y1="-65.97" x2="43.75" y2="-65.97" stroke="#a5a393" stroke-width="0.15" opacity="0.5"/>
<line x1="34.11" y1="-67.25" x2="42.48" y2="-67.25" stroke="#a5a393" stroke-width="0.15" opacity="0.5"/>
<line x1="34.16" y1="-68.53" x2="41.22" y2="-68.53" stroke="#a5a393" stroke-width="0.15" opacity="0.5"/>
<line x1="34.84" y1="-69.81" x2="39.75" y2="-69.81" stroke="#a5a393" stroke-width="0.15" opacity="0.5"/>
<path d="M30.80,-68.11L32.14,-68.06L32.06,-65.94L30.72,-65.99Z" fill="#99948a" stroke="#1a1917" stroke-width="0.15"/>
<path d="M84.84,-5.95L87.31,9.93L86.60,12.14L69.48,29.53L67.37,29.95L60.27,26.98L59.86,25.44L83.85,-6.20Z" fill="#a5a393" stroke="none"/>
<path d="M47.77,-4.75L48.36,-5.33L50.59,-6.30L81.32,-7.82L81.83,-6.85L68.39,10.87L66.57,11.12L47.88,-3.05Z" fill="#a5a393" stroke="none"/>
<path d="M65.61,14.54L57.95,24.64L55.97,25.17L52.44,23.70L51.00,21.91L46.85,-0.23L47.65,-0.72L65.36,12.71Z" fill="#a5a393" stroke="none"/>
<line x1="60.23" y1="24.94" x2="63.71" y2="28.42" stroke="#a5a393" stroke-width="0.15" opacity="0.5"/>
<line x1="61.01" y1="23.92" x2="66.80" y2="29.71" stroke="#a5a393" stroke-width="0.15" opacity="0.5"/>
<line x1="61.78" y1="22.90" x2="68.59" y2="29.70" stroke="#a5a393" stroke-width="0.15" opacity="0.5"/>
<line x1="62.56" y1="21.88" x2="72.24" y2="26.72" stroke="#a5a393" stroke-width="0.15" opacity="0.5"/>
<line x1="63.33" y1="20.85" x2="70.73" y2="28.25" stroke="#a5a393" stroke-width="0.15" opacity="0.5"/>
<line x1="64.11" y1="19.83" x2="64.11" y2="28.58" stroke="#a5a393" stroke-width="0.15" opacity="0.5"/>
<line x1="64.88" y1="18.81" x2="75.03" y2="23.89" stroke="#a5a393" stroke-width="0.15" opacity="0.5"/>
<line x1="65.65" y1="17.79" x2="75.96" y2="22.94" stroke="#a5a393" stroke-width="0.15" opacity="0.5"/>
<line x1="66.43" y1="16.77" x2="66.43" y2="29.56" stroke="#a5a393" stroke-width="0.15" opacity="0.5"/>
<line x1="67.20" y1="15.75" x2="67.20" y2="29.88" stroke="#a5a393" stroke-width="0.15" opacity="0.5"/>
<line x1="67.98" y1="14.73" x2="78.75" y2="20.11" stroke="#a5a393" stroke-width="0.15" opacity="0.5"/>
<line x1="68.75" y1="13.70" x2="79.68" y2="19.17" stroke="#a5a393" stroke-width="0.15" opacity="0.5"/>
<line x1="69.53" y1="12.68" x2="69.53" y2="29.48" stroke="#a5a393" stroke-width="0.15" opacity="0.5"/>
<line x1="70.30" y1="11.66" x2="81.54" y2="17.28" stroke="#a5a393" stroke-width="0.15" opacity="0.5"/>
<line x1="71.08" y1="10.64" x2="82.47" y2="16.34" stroke="#a5a393" stroke-width="0.15" opacity="0.5"/>
<line x1="71.85" y1="9.62" x2="71.85" y2="27.12" stroke="#a5a393" stroke-width="0.15" opacity="0.5"/>
<line x1="72.63" y1="8.60" x2="72.63" y2="26.33" stroke="#a5a393" stroke-width="0.15" opacity="0.5"/>
<line x1="73.40" y1="7.58" x2="85.26" y2="13.50" stroke="#a5a393" stroke-width="0.15" opacity="0.5"/>
<line x1="74.18" y1="6.55" x2="86.19" y2="12.56" stroke="#a5a393" stroke-width="0.15" opacity="0.5"/>
<line x1="74.95" y1="5.53" x2="74.95" y2="23.97" stroke="#a5a393" stroke-width="0.15" opacity="0.5"/>
<line x1="75.73" y1="4.51" x2="87.21" y2="10.25" stroke="#a5a393" stroke-width="0.15" opacity="0.5"/>
<line x1="76.50" y1="3.49" x2="87.14" y2="8.81" stroke="#a5a393" stroke-width="0.15" opacity="0.5"/>
<line x1="77.28" y1="2.47" x2="77.28" y2="21.61" stroke="#a5a393" stroke-width="0.15" opacity="0.5"/>
<line x1="78.05" y1="1.45" x2="78.05" y2="20.82" stroke="#a5a393" stroke-width="0.15" opacity="0.5"/>
<line x1="78.83" y1="0.43" x2="86.42" y2="4.22" stroke="#a5a393" stroke-width="0.15" opacity="0.5"/>
<line x1="79.60" y1="-0.60" x2="86.18" y2="2.70" stroke="#a5a393" stroke-width="0.15" opacity="0.5"/>
<line x1="80.37" y1="-1.62" x2="85.72" y2="-0.28" stroke="#a5a393" stroke-width="0.15" opacity="0.5"/>
<line x1="81.15" y1="-2.64" x2="85.71" y2="-0.36" stroke="#a5a393" stroke-width="0.15" opacity="0.5"/>
<line x1="81.92" y1="-3.66" x2="85.47" y2="-1.89" stroke="#a5a393" stroke-width="0.15" opacity="0.5"/>
<line x1="82.70" y1="-4.68" x2="85.23" y2="-3.42" stroke="#a5a393" stroke-width="0.15" opacity="0.5"/>
<line x1="83.47" y1="-5.70" x2="84.99" y2="-4.94" stroke="#a5a393" stroke-width="0.15" opacity="0.5"/>
<line x1="48.10" y1="-0.38" x2="47.03" y2="0.69" stroke="#a5a393" stroke-width="0.15" opacity="0.5"/>
<line x1="49.09" y1="0.37" x2="47.30" y2="2.16" stroke="#a5a393" stroke-width="0.15" opacity="0.5"/>
<line x1="50.08" y1="1.12" x2="47.57" y2="3.62" stroke="#a5a393" stroke-width="0.15" opacity="0.5"/>
<line x1="51.07" y1="1.87" x2="47.85" y2="5.09" stroke="#a5a393" stroke-width="0.15" opacity="0.5"/>
<line x1="52.05" y1="2.62" x2="48.12" y2="6.55" stroke="#a5a393" stroke-width="0.15" opacity="0.5"/>
<line x1="53.04" y1="3.37" x2="53.04" y2="23.95" stroke="#a5a393" stroke-width="0.15" opacity="0.5"/>
<line x1="54.03" y1="4.12" x2="54.03" y2="24.36" stroke="#a5a393" stroke-width="0.15" opacity="0.5"/>
<line x1="55.02" y1="4.87" x2="48.95" y2="10.95" stroke="#a5a393" stroke-width="0.15" opacity="0.5"/>
<line x1="56.01" y1="5.62" x2="49.22" y2="12.41" stroke="#a5a393" stroke-width="0.15" opacity="0.5"/>
<line x1="57.00" y1="6.37" x2="49.50" y2="13.88" stroke="#a5a393" stroke-width="0.15" opacity="0.5"/>
<line x1="57.99" y1="7.12" x2="49.77" y2="15.34" stroke="#a5a393" stroke-width="0.15" opacity="0.5"/>
<line x1="58.98" y1="7.87" x2="50.04" y2="16.81" stroke="#a5a393" stroke-width="0.15" opacity="0.5"/>
<line x1="59.97" y1="8.62" x2="50.32" y2="18.27" stroke="#a5a393" stroke-width="0.15" opacity="0.5"/>
<line x1="60.96" y1="9.37" x2="60.96" y2="20.67" stroke="#a5a393" stroke-width="0.15" opacity="0.5"/>
<line x1="61.95" y1="10.12" x2="61.95" y2="19.37" stroke="#a5a393" stroke-width="0.15" opacity="0.5"/>
<line x1="62.94" y1="10.87" x2="62.94" y2="18.07" stroke="#a5a393" stroke-width="0.15" opacity="0.5"/>
<line x1="63.93" y1="11.62" x2="63.93" y2="16.76" stroke="#a5a393" stroke-width="0.15" opacity="0.5"/>
<line x1="64.91" y1="12.38" x2="64.91" y2="15.46" stroke="#a5a393" stroke-width="0.15" opacity="0.5"/>
<path d="M82.64,-4.60L83.85,-6.20L85.74,-4.76L84.53,-3.16Z" fill="#99948a" stroke="#1a1917" stroke-width="0.15"/>
<path d="M64.70,28.83L67.37,29.95L68.49,31.75L67.54,47.15L66.27,48.99L44.18,59.00L42.16,58.54L36.97,52.39L37.13,50.55L62.51,29.17Z" fill="#a5a393" stroke="none"/>
<path d="M34.01,48.87L31.80,46.25L31.24,43.99L34.58,28.67L36.11,27.07L49.98,23.52L52.44,23.70L60.23,26.96L60.43,28.30L35.84,49.03Z" fill="#a5a393" stroke="none"/>
<line x1="37.05" y1="51.41" x2="44.50" y2="58.86" stroke="#a5a393" stroke-width="0.15" opacity="0.5"/>
<line x1="37.60" y1="50.16" x2="45.74" y2="58.29" stroke="#a5a393" stroke-width="0.15" opacity="0.5"/>
<line x1="38.58" y1="49.33" x2="46.98" y2="57.73" stroke="#a5a393" stroke-width="0.15" opacity="0.5"/>
<line x1="39.55" y1="48.51" x2="48.22" y2="57.17" stroke="#a5a393" stroke-width="0.15" opacity="0.5"/>
<line x1="40.53" y1="47.69" x2="49.46" y2="56.61" stroke="#a5a393" stroke-width="0.15" opacity="0.5"/>
<line x1="41.51" y1="46.86" x2="50.69" y2="56.05" stroke="#a5a393" stroke-width="0.15" opacity="0.5"/>
<line x1="42.49" y1="46.04" x2="56.89" y2="53.24" stroke="#a5a393" stroke-width="0.15" opacity="0.5"/>
<line x1="43.46" y1="45.21" x2="58.27" y2="52.62" stroke="#a5a393" stroke-width="0.15" opacity="0.5"/>
<line x1="44.44" y1="44.39" x2="59.64" y2="51.99" stroke="#a5a393" stroke-width="0.15" opacity="0.5"/>
<line x1="45.42" y1="43.57" x2="55.65" y2="53.80" stroke="#a5a393" stroke-width="0.15" opacity="0.5"/>
<line x1="46.40" y1="42.74" x2="67.81" y2="42.74" stroke="#a5a393" stroke-width="0.15" opacity="0.5"/>
<line x1="47.37" y1="41.92" x2="58.13" y2="52.68" stroke="#a5a393" stroke-width="0.15" opacity="0.5"/>
<line x1="48.35" y1="41.10" x2="59.37" y2="52.11" stroke="#a5a393" stroke-width="0.15" opacity="0.5"/>
<line x1="49.33" y1="40.27" x2="56.01" y2="53.64" stroke="#a5a393" stroke-width="0.15" opacity="0.5"/>
<line x1="50.31" y1="39.45" x2="61.85" y2="50.99" stroke="#a5a393" stroke-width="0.15" opacity="0.5"/>
<line x1="51.28" y1="38.63" x2="63.09" y2="50.43" stroke="#a5a393" stroke-width="0.15" opacity="0.5"/>
<line x1="52.26" y1="37.80" x2="64.33" y2="49.87" stroke="#a5a393" stroke-width="0.15" opacity="0.5"/>
<line x1="53.24" y1="36.98" x2="68.16" y2="36.98" stroke="#a5a393" stroke-width="0.15" opacity="0.5"/>
<line x1="55.19" y1="35.33" x2="55.19" y2="54.01" stroke="#a5a393" stroke-width="0.15" opacity="0.5"/>
<line x1="56.17" y1="34.51" x2="56.17" y2="53.57" stroke="#a5a393" stroke-width="0.15" opacity="0.5"/>
<line x1="57.15" y1="33.68" x2="57.15" y2="53.12" stroke="#a5a393" stroke-width="0.15" opacity="0.5"/>
<line x1="58.12" y1="32.86" x2="58.12" y2="52.68" stroke="#a5a393" stroke-width="0.15" opacity="0.5"/>
<line x1="59.10" y1="32.04" x2="59.10" y2="52.24" stroke="#a5a393" stroke-width="0.15" opacity="0.5"/>
<line x1="60.08" y1="31.21" x2="68.03" y2="39.16" stroke="#a5a393" stroke-width="0.15" opacity="0.5"/>
<line x1="61.06" y1="30.39" x2="68.13" y2="37.47" stroke="#a5a393" stroke-width="0.15" opacity="0.5"/>
<line x1="62.03" y1="29.56" x2="68.24" y2="35.77" stroke="#a5a393" stroke-width="0.15" opacity="0.5"/>
<line x1="63.31" y1="29.04" x2="68.34" y2="34.07" stroke="#a5a393" stroke-width="0.15" opacity="0.5"/>
<line x1="59.95" y1="28.71" x2="59.95" y2="26.84" stroke="#a5a393" stroke-width="0.15" opacity="0.5"/>
<line x1="58.97" y1="29.53" x2="58.97" y2="26.43" stroke="#a5a393" stroke-width="0.15" opacity="0.5"/>
<line x1="57.98" y1="30.36" x2="57.98" y2="26.02" stroke="#a5a393" stroke-width="0.15" opacity="0.5"/>
<line x1="57.00" y1="31.19" x2="57.00" y2="25.60" stroke="#a5a393" stroke-width="0.15" opacity="0.5"/>
<line x1="56.01" y1="32.02" x2="56.01" y2="25.19" stroke="#a5a393" stroke-width="0.15" opacity="0.5"/>
<line x1="55.03" y1="32.85" x2="55.03" y2="24.78" stroke="#a5a393" stroke-width="0.15" opacity="0.5"/>
<line x1="54.04" y1="33.68" x2="54.04" y2="24.37" stroke="#a5a393" stroke-width="0.15" opacity="0.5"/>
<line x1="53.06" y1="34.51" x2="53.06" y2="23.95" stroke="#a5a393" stroke-width="0.15" opacity="0.5"/>
<line x1="52.07" y1="35.34" x2="52.07" y2="23.67" stroke="#a5a393" stroke-width="0.15" opacity="0.5"/>
<line x1="51.09" y1="36.17" x2="51.09" y2="23.60" stroke="#a5a393" stroke-width="0.15" opacity="0.5"/>
<line x1="50.11" y1="37.00" x2="50.11" y2="23.52" stroke="#a5a393" stroke-width="0.15" opacity="0.5"/>
<line x1="49.12" y1="37.83" x2="49.12" y2="23.74" stroke="#a5a393" stroke-width="0.15" opacity="0.5"/>
<line x1="48.14" y1="38.66" x2="48.14" y2="23.99" stroke="#a5a393" stroke-width="0.15" opacity="0.5"/>
<line x1="46.17" y1="40.32" x2="46.17" y2="24.49" stroke="#a5a393" stroke-width="0.15" opacity="0.5"/>
<line x1="45.18" y1="41.15" x2="45.18" y2="24.75" stroke="#a5a393" stroke-width="0.15" opacity="0.5"/>
<line x1="44.20" y1="41.98" x2="44.20" y2="25.00" stroke="#a5a393" stroke-width="0.15" opacity="0.5"/>
<line x1="43.21" y1="42.81" x2="43.21" y2="25.25" stroke="#a5a393" stroke-width="0.15" opacity="0.5"/>
<line x1="41.24" y1="44.47" x2="41.24" y2="25.76" stroke="#a5a393" stroke-width="0.15" opacity="0.5"/>
<line x1="40.26" y1="45.30" x2="40.26" y2="26.01" stroke="#a5a393" stroke-width="0.15" opacity="0.5"/>
<line x1="39.28" y1="46.13" x2="39.28" y2="26.26" stroke="#a5a393" stroke-width="0.15" opacity="0.5"/>
<line x1="37.31" y1="47.79" x2="37.31" y2="26.77" stroke="#a5a393" stroke-width="0.15" opacity="0.5"/>
<line x1="36.32" y1="48.62" x2="36.32" y2="27.02" stroke="#a5a393" stroke-width="0.15" opacity="0.5"/>
<line x1="35.34" y1="48.98" x2="35.34" y2="27.88" stroke="#a5a393" stroke-width="0.15" opacity="0.5"/>
<path d="M63.58,30.44L64.41,31.43L62.58,32.97L61.75,31.98Z" fill="#99948a" stroke="#1a1917" stroke-width="0.15"/>
<path d="M-3.39,57.13L6.75,58.83L8.02,60.34L7.85,75.35L7.22,77.79L3.93,83.92L2.01,85.07L-8.89,85.16L-9.94,83.89L-4.92,58.19Z" fill="#a5a393" stroke="none"/>
<path d="M-13.53,85.19L-19.68,85.24L-21.71,84.18L-27.56,75.65L-28.00,73.31L-23.66,55.04L-22.07,53.99L-7.92,56.36L-6.89,57.85L-11.99,83.91Z" fill="#a5a393" stroke="none"/>
<path d="M-13.75,80.29L-13.46,78.77L-11.07,79.23L-11.37,80.75Z" fill="#99948a" stroke="#1a1917" stroke-width="0.15"/>
<path d="M25.81,74.81L44.75,72.86L46.59,73.91L53.84,89.48L53.20,91.19L36.55,98.64L34.83,97.98L25.05,76.12Z" fill="#a5a393" stroke="none"/>
<path d="M32.35,100.52L18.89,106.54L16.99,105.98L4.03,86.15L3.93,83.92L7.22,77.79L9.13,76.52L21.13,75.29L22.95,76.34L33.00,98.80Z" fill="#a5a393" stroke="none"/>
<line x1="32.00" y1="91.67" x2="52.12" y2="91.67" stroke="#a5a393" stroke-width="0.15" opacity="0.5"/>
<line x1="31.49" y1="90.52" x2="53.45" y2="90.52" stroke="#a5a393" stroke-width="0.15" opacity="0.5"/>
<line x1="29.42" y1="85.90" x2="52.17" y2="85.90" stroke="#a5a393" stroke-width="0.15" opacity="0.5"/>
<line x1="28.91" y1="84.75" x2="51.63" y2="84.75" stroke="#a5a393" stroke-width="0.15" opacity="0.5"/>
<line x1="27.87" y1="82.44" x2="50.56" y2="82.44" stroke="#a5a393" stroke-width="0.15" opacity="0.5"/>
<line x1="25.81" y1="77.82" x2="48.41" y2="77.82" stroke="#a5a393" stroke-width="0.15" opacity="0.5"/>
<line x1="25.29" y1="76.67" x2="47.87" y2="76.67" stroke="#a5a393" stroke-width="0.15" opacity="0.5"/>
<line x1="25.40" y1="75.52" x2="47.34" y2="75.52" stroke="#a5a393" stroke-width="0.15" opacity="0.5"/>
<path d="M25.77,77.75L25.05,76.12L27.60,74.99L28.32,76.61Z" fill="#99948a" stroke="#1a1917" stroke-width="0.15"/>
<path d="M96.78,79.95L96.00,88.56L94.89,90.69L69.45,111.96L67.76,111.69L61.88,102.45L62.28,100.66L95.80,79.35Z" fill="#a5a393" stroke="none"/>
<path d="M87.17,64.06L96.46,71.41L97.36,73.51L97.24,74.85L96.02,76.84L79.04,87.63L77.55,87.09L71.79,69.25L72.62,67.62L84.91,63.65Z" fill="#a5a393" stroke="none"/>
<path d="M70.37,64.87L65.77,50.63L66.42,48.92L68.48,49.26L83.25,60.95L83.03,62.16L72.01,65.71Z" fill="#a5a393" stroke="none"/>
<path d="M46.92,74.61L46.59,73.91L45.75,71.46L43.29,60.80L44.18,59.00L62.36,50.76L63.94,51.46L70.41,71.51L69.53,72.92L48.76,75.62Z" fill="#a5a393" stroke="none"/>
<path d="M71.84,75.92L75.80,88.20L75.11,90.14L61.21,98.97L59.41,98.57L55.08,91.76L53.84,89.48L48.90,78.87L49.64,77.53L70.15,74.85Z" fill="#a5a393" stroke="none"/>
<line x1="67.74" y1="73.15" x2="67.74" y2="63.23" stroke="#a5a393" stroke-width="0.15" opacity="0.5"/>
<line x1="65.28" y1="73.47" x2="65.28" y2="55.62" stroke="#a5a393" stroke-width="0.15" opacity="0.5"/>
<line x1="62.83" y1="73.79" x2="62.83" y2="50.97" stroke="#a5a393" stroke-width="0.15" opacity="0.5"/>
<line x1="60.37" y1="74.11" x2="55.33" y2="53.95" stroke="#a5a393" stroke-width="0.15" opacity="0.5"/>
<line x1="57.91" y1="74.43" x2="49.08" y2="56.78" stroke="#a5a393" stroke-width="0.15" opacity="0.5"/>
<line x1="56.68" y1="74.59" x2="46.91" y2="74.59" stroke="#a5a393" stroke-width="0.15" opacity="0.5"/>
<line x1="55.45" y1="74.75" x2="50.77" y2="56.01" stroke="#a5a393" stroke-width="0.15" opacity="0.5"/>
<line x1="54.22" y1="74.91" x2="47.46" y2="74.91" stroke="#a5a393" stroke-width="0.15" opacity="0.5"/>
<line x1="53.00" y1="75.07" x2="53.00" y2="55.00" stroke="#a5a393" stroke-width="0.15" opacity="0.5"/>
<line x1="51.77" y1="75.23" x2="48.04" y2="75.23" stroke="#a5a393" stroke-width="0.15" opacity="0.5"/>
<line x1="50.54" y1="75.39" x2="50.54" y2="56.12" stroke="#a5a393" stroke-width="0.15" opacity="0.5"/>
<line x1="48.08" y1="75.25" x2="48.08" y2="57.23" stroke="#a5a393" stroke-width="0.15" opacity="0.5"/>
<path d="M94.31,82.03L94.87,82.91L93.14,84.01L92.58,83.13Z" fill="#99948a" stroke="#1a1917" stroke-width="0.15"/>
<path d="M17.24,106.37L17.47,108.35L16.23,115.31L14.76,116.99L-4.52,123.20L-5.79,122.30L-6.27,102.82L-5.02,101.75L15.50,105.43Z" fill="#a5a393" stroke="none"/>
<path d="M-6.38,98.18L-6.67,86.44L-5.40,85.13L2.01,85.07L4.03,86.15L14.56,102.27L13.99,103.13L-5.07,99.71Z" fill="#a5a393" stroke="none"/>
<path d="M-31.75,107.56L-21.54,86.42L-19.68,85.24L-10.00,85.17L-8.67,86.46L-8.17,106.84L-9.44,108.17L-31.01,108.70Z" fill="#a5a393" stroke="none"/>
<path d="M-8.06,111.44L-7.78,122.94L-8.98,124.64L-18.88,127.83L-20.89,127.18L-32.22,111.80L-31.69,110.72L-9.39,110.17Z" fill="#a5a393" stroke="none"/>
<line x1="-5.91" y1="102.52" x2="-6.24" y2="103.84" stroke="#a5a393" stroke-width="0.15" opacity="0.5"/>
<line x1="-4.48" y1="101.85" x2="-6.13" y2="108.46" stroke="#a5a393" stroke-width="0.15" opacity="0.5"/>
<line x1="-3.26" y1="102.07" x2="-6.02" y2="113.09" stroke="#a5a393" stroke-width="0.15" opacity="0.5"/>
<line x1="-2.05" y1="102.29" x2="-5.91" y2="117.71" stroke="#a5a393" stroke-width="0.15" opacity="0.5"/>
<line x1="-0.83" y1="102.50" x2="-5.79" y2="122.31" stroke="#a5a393" stroke-width="0.15" opacity="0.5"/>
<line x1="0.38" y1="102.72" x2="-4.71" y2="123.07" stroke="#a5a393" stroke-width="0.15" opacity="0.5"/>
<line x1="1.60" y1="102.94" x2="-3.38" y2="122.83" stroke="#a5a393" stroke-width="0.15" opacity="0.5"/>
<line x1="2.81" y1="103.16" x2="-2.00" y2="122.39" stroke="#a5a393" stroke-width="0.15" opacity="0.5"/>
<line x1="4.02" y1="103.37" x2="-0.62" y2="121.94" stroke="#a5a393" stroke-width="0.15" opacity="0.5"/>
<line x1="5.24" y1="103.59" x2="0.76" y2="121.50" stroke="#a5a393" stroke-width="0.15" opacity="0.5"/>
<line x1="6.45" y1="103.81" x2="-6.24" y2="103.81" stroke="#a5a393" stroke-width="0.15" opacity="0.5"/>
<line x1="7.67" y1="104.03" x2="3.52" y2="120.61" stroke="#a5a393" stroke-width="0.15" opacity="0.5"/>
<line x1="8.88" y1="104.24" x2="4.90" y2="120.16" stroke="#a5a393" stroke-width="0.15" opacity="0.5"/>
<line x1="10.10" y1="104.46" x2="6.28" y2="119.72" stroke="#a5a393" stroke-width="0.15" opacity="0.5"/>
<line x1="11.31" y1="104.68" x2="7.66" y2="119.27" stroke="#a5a393" stroke-width="0.15" opacity="0.5"/>
<line x1="12.53" y1="104.90" x2="9.04" y2="118.83" stroke="#a5a393" stroke-width="0.15" opacity="0.5"/>
<line x1="13.74" y1="105.12" x2="10.42" y2="118.38" stroke="#a5a393" stroke-width="0.15" opacity="0.5"/>
<line x1="14.96" y1="105.33" x2="11.81" y2="117.94" stroke="#a5a393" stroke-width="0.15" opacity="0.5"/>
<line x1="16.17" y1="105.79" x2="16.17" y2="115.37" stroke="#a5a393" stroke-width="0.15" opacity="0.5"/>
<line x1="13.37" y1="103.02" x2="13.83" y2="101.15" stroke="#a5a393" stroke-width="0.15" opacity="0.5"/>
<line x1="12.09" y1="102.79" x2="12.87" y2="99.68" stroke="#a5a393" stroke-width="0.15" opacity="0.5"/>
<line x1="10.82" y1="102.56" x2="11.91" y2="98.21" stroke="#a5a393" stroke-width="0.15" opacity="0.5"/>
<line x1="9.55" y1="102.33" x2="10.95" y2="96.74" stroke="#a5a393" stroke-width="0.15" opacity="0.5"/>
<line x1="8.28" y1="102.10" x2="9.99" y2="95.27" stroke="#a5a393" stroke-width="0.15" opacity="0.5"/>
<line x1="7.01" y1="101.88" x2="9.03" y2="93.80" stroke="#a5a393" stroke-width="0.15" opacity="0.5"/>
<line x1="5.73" y1="101.65" x2="8.06" y2="92.33" stroke="#a5a393" stroke-width="0.15" opacity="0.5"/>
<line x1="4.46" y1="101.42" x2="7.10" y2="90.86" stroke="#a5a393" stroke-width="0.15" opacity="0.5"/>
<line x1="3.19" y1="101.19" x2="6.14" y2="89.39" stroke="#a5a393" stroke-width="0.15" opacity="0.5"/>
<line x1="1.92" y1="100.96" x2="5.18" y2="87.92" stroke="#a5a393" stroke-width="0.15" opacity="0.5"/>
<line x1="0.65" y1="100.74" x2="4.22" y2="86.45" stroke="#a5a393" stroke-width="0.15" opacity="0.5"/>
<line x1="-0.63" y1="100.51" x2="3.09" y2="85.65" stroke="#a5a393" stroke-width="0.15" opacity="0.5"/>
<line x1="-1.90" y1="100.28" x2="1.90" y2="85.07" stroke="#a5a393" stroke-width="0.15" opacity="0.5"/>
<line x1="-3.17" y1="100.05" x2="0.57" y2="85.08" stroke="#a5a393" stroke-width="0.15" opacity="0.5"/>
<line x1="-4.44" y1="99.82" x2="-0.76" y2="85.09" stroke="#a5a393" stroke-width="0.15" opacity="0.5"/>
<line x1="-5.59" y1="99.10" x2="-2.09" y2="85.11" stroke="#a5a393" stroke-width="0.15" opacity="0.5"/>
<path d="M9.38,101.06L9.65,99.59L11.62,99.94L11.36,101.42Z" fill="#99948a" stroke="#1a1917" stroke-width="0.15"/>
<path d="M67.93,111.96L68.41,114.09L67.11,155.12L65.87,155.93L48.40,148.81L47.81,147.18L66.78,112.27Z" fill="#a5a393" stroke="none"/>
<path d="M59.79,99.15L65.47,108.10L65.55,110.34L55.29,129.24L53.67,129.54L38.02,116.21L38.05,114.56L58.07,98.86Z" fill="#a5a393" stroke="none"/>
<path d="M34.48,113.20L24.98,105.10L25.17,103.73L53.20,91.19L55.08,91.76L57.31,95.26L56.99,97.16L36.50,113.24Z" fill="#a5a393" stroke="none"/>
<path d="M26.71,135.58L16.64,117.72L16.23,115.31L17.47,108.35L18.89,106.54L20.78,105.70L22.95,106.01L39.67,120.24L39.81,122.07L28.19,135.72Z" fill="#a5a393" stroke="none"/>
<path d="M43.17,123.22L52.70,131.33L53.07,133.32L45.95,146.42L44.12,147.07L31.13,141.78L29.29,140.16L29.03,139.70L29.24,137.58L41.34,123.37Z" fill="#a5a393" stroke="none"/>
<line x1="29.19" y1="138.09" x2="50.48" y2="138.09" stroke="#a5a393" stroke-width="0.15" opacity="0.5"/>
<line x1="29.61" y1="137.14" x2="50.99" y2="137.14" stroke="#a5a393" stroke-width="0.15" opacity="0.5"/>
<line x1="30.42" y1="136.19" x2="51.51" y2="136.19" stroke="#a5a393" stroke-width="0.15" opacity="0.5"/>
<line x1="31.23" y1="135.23" x2="52.03" y2="135.23" stroke="#a5a393" stroke-width="0.15" opacity="0.5"/>
<line x1="32.04" y1="134.28" x2="52.54" y2="134.28" stroke="#a5a393" stroke-width="0.15" opacity="0.5"/>
<line x1="32.85" y1="133.33" x2="53.06" y2="133.33" stroke="#a5a393" stroke-width="0.15" opacity="0.5"/>
<line x1="33.66" y1="132.38" x2="52.89" y2="132.38" stroke="#a5a393" stroke-width="0.15" opacity="0.5"/>
<line x1="34.48" y1="131.42" x2="52.72" y2="131.42" stroke="#a5a393" stroke-width="0.15" opacity="0.5"/>
<line x1="35.29" y1="130.47" x2="51.69" y2="130.47" stroke="#a5a393" stroke-width="0.15" opacity="0.5"/>
<line x1="36.10" y1="129.52" x2="50.57" y2="129.52" stroke="#a5a393" stroke-width="0.15" opacity="0.5"/>
<line x1="36.91" y1="128.57" x2="49.45" y2="128.57" stroke="#a5a393" stroke-width="0.15" opacity="0.5"/>
<line x1="37.72" y1="127.61" x2="48.33" y2="127.61" stroke="#a5a393" stroke-width="0.15" opacity="0.5"/>
<line x1="38.53" y1="126.66" x2="47.21" y2="126.66" stroke="#a5a393" stroke-width="0.15" opacity="0.5"/>
<line x1="39.34" y1="125.71" x2="46.09" y2="125.71" stroke="#a5a393" stroke-width="0.15" opacity="0.5"/>
<line x1="40.15" y1="124.76" x2="44.98" y2="124.76" stroke="#a5a393" stroke-width="0.15" opacity="0.5"/>
<line x1="40.96" y1="123.80" x2="43.86" y2="123.80" stroke="#a5a393" stroke-width="0.15" opacity="0.5"/>
<path d="M50.54,94.59L49.63,95.00L48.81,93.15L49.72,92.75Z" fill="#99948a" stroke="#1a1917" stroke-width="0.15"/>
<path d="M7.67,-30.72L16.61,-17.10L26.33,-9.28L28.33,6.58L24.92,14.34L14.44,26.12L1.17,29.85L-15.94,28.93L-29.40,17.92L-38.84,5.70L-35.07,-8.52L-26.59,-24.38L-9.38,-30.68L7.67,-30.72" fill="none" stroke="#1a1917" stroke-width="1.80" stroke-linecap="round"/>
<line x1="16.70" y1="24.64" x2="12.18" y2="27.60" stroke="#1a1917" stroke-width="3.60" stroke-linecap="butt"/>
<line x1="-28.63" y1="-22.62" x2="-24.54" y2="-26.14" stroke="#1a1917" stroke-width="3.60" stroke-linecap="butt"/>
<circle cx="7.67" cy="-30.72" r="1.80" fill="#1a1917"/>
<circle cx="16.61" cy="-17.10" r="1.80" fill="#1a1917"/>
<circle cx="26.33" cy="-9.28" r="1.80" fill="#1a1917"/>
<circle cx="28.33" cy="6.58" r="1.80" fill="#1a1917"/>
<circle cx="24.92" cy="14.34" r="1.80" fill="#1a1917"/>
<circle cx="1.17" cy="29.85" r="1.80" fill="#1a1917"/>
<circle cx="-15.94" cy="28.93" r="1.80" fill="#1a1917"/>
<circle cx="-29.40" cy="17.92" r="1.80" fill="#1a1917"/>
<circle cx="-38.84" cy="5.70" r="1.80" fill="#1a1917"/>
<circle cx="-35.07" cy="-8.52" r="1.80" fill="#1a1917"/>
<circle cx="-9.38" cy="-30.68" r="1.80" fill="#1a1917"/>
</svg>