<svg xmlns="http://www.w3.org/2000/svg" viewBox="-110.7 -67.7 174.7 135.7">
<rect x="-110.7" y="-67.7" width="174.7" height="135.7" fill="#ccc5b8"/>
<path d="M-10.15,2.52L-18.93,7.97L-27.00,10.32L-46.76,7.38L-90.70,17.88" fill="none" stroke="#67635c" stroke-width="2.15" stroke-linecap="butt"/>
<path d="M-10.15,2.52L-18.93,7.97L-27.00,10.32L-46.76,7.38L-90.70,17.88" fill="none" stroke="#ccc5b8" stroke-width="1.85"/>
<path d="M2.24,9.87L-10.15,2.52L-18.93,7.97L-27.00,10.32L-46.76,7.38L-90.70,17.88" fill="none" stroke="#67635c" stroke-width="2.15" stroke-linecap="butt"/>
<path d="M2.24,9.87L-10.15,2.52L-18.93,7.97L-27.00,10.32L-46.76,7.38L-90.70,17.88" fill="none" stroke="#ccc5b8" stroke-width="1.85"/>
<path d="M-7.73,1.26L-1.43,-5.04L2.34,-1.28L-3.96,5.03Z" fill="#99948a" stroke="#1a1917" stroke-width="0.15"/>
<path d="M-2.37,5.50L-0.10,2.70L2.08,4.47L-0.18,7.27Z" fill="#99948a" stroke="#1a1917" stroke-width="0.15"/>
<path d="M2.51,4.65L4.71,6.43L2.67,8.96L0.46,7.18Z" fill="#99948a" stroke="#1a1917" stroke-width="0.15"/>
<path d="M-1.73,12.03L-3.92,10.50L-2.38,8.29L-0.19,9.82Z" fill="#99948a" stroke="#1a1917" stroke-width="0.15"/>
<path d="M-9.46,4.23L-7.30,5.50L-8.58,7.66L-10.74,6.39Z" fill="#99948a" stroke="#1a1917" stroke-width="0.15"/>
<path d="M-15.23,9.30L-16.46,8.66L-15.66,7.12L-14.43,7.76Z" fill="#99948a" stroke="#1a1917" stroke-width="0.15"/>
<path d="M19.83,24.56L19.46,7.06L20.58,5.14L23.60,3.48L26.04,2.81L37.20,2.40L38.77,3.62L43.16,24.29L42.34,26.27L31.96,32.97L29.81,32.92L20.92,26.61Z" fill="#a5a393" stroke="none"/>
<path d="M40.81,20.05L42.20,19.75L42.69,22.10L41.31,22.39Z" fill="#99948a" stroke="#1a1917" stroke-width="0.15"/>
<path d="M-50.59,31.78L-69.52,25.22L-70.22,23.61L-67.98,18.58L-66.45,18.22L-50.36,31.39Z" fill="#a5a393" stroke="none"/>
<path d="M-33.11,35.11L-33.87,36.25L-35.82,36.90L-42.65,34.53L-44.89,33.28L-55.97,24.21L-56.15,22.38L-50.14,15.04L-48.48,15.03L-33.22,33.03Z" fill="#a5a393" stroke="none"/>
<path d="M-47.21,11.46L-45.01,8.77L-42.90,7.95L-28.28,10.12L-26.80,11.60L-25.27,21.83L-25.80,24.20L-30.50,31.22L-32.07,31.31L-47.19,13.46Z" fill="#a5a393" stroke="none"/>
<path d="M-59.53,21.30L-65.61,16.32L-66.09,14.31L-65.46,12.91L-63.67,11.42L-48.03,7.68L-46.62,7.40L-47.31,8.42L-57.70,21.12Z" fill="#a5a393" stroke="none"/>
<path d="M-73.87,23.72L-89.47,18.31L-89.44,17.58L-68.65,12.61L-67.91,13.49L-72.11,22.95Z" fill="#a5a393" stroke="none"/>
<line x1="-69.79" y1="24.59" x2="-64.26" y2="27.04" stroke="#a5a393" stroke-width="0.15" opacity="0.5"/>
<line x1="-70.04" y1="23.21" x2="-51.30" y2="31.54" stroke="#a5a393" stroke-width="0.15" opacity="0.5"/>
<line x1="-69.57" y1="22.15" x2="-52.23" y2="29.86" stroke="#a5a393" stroke-width="0.15" opacity="0.5"/>
<line x1="-69.10" y1="21.10" x2="-55.62" y2="27.09" stroke="#a5a393" stroke-width="0.15" opacity="0.5"/>
<line x1="-68.63" y1="20.04" x2="-59.00" y2="24.32" stroke="#a5a393" stroke-width="0.15" opacity="0.5"/>
<line x1="-68.16" y1="18.98" x2="-62.38" y2="21.55" stroke="#a5a393" stroke-width="0.15" opacity="0.5"/>
<line x1="-48.11" y1="15.46" x2="-54.27" y2="20.09" stroke="#a5a393" stroke-width="0.15" opacity="0.5"/>
<line x1="-47.30" y1="16.42" x2="-54.02" y2="19.77" stroke="#a5a393" stroke-width="0.15" opacity="0.5"/>
<line x1="-46.50" y1="17.37" x2="-55.89" y2="22.07" stroke="#a5a393" stroke-width="0.15" opacity="0.5"/>
<line x1="-45.69" y1="18.32" x2="-56.04" y2="23.50" stroke="#a5a393" stroke-width="0.15" opacity="0.5"/>
<line x1="-44.88" y1="19.27" x2="-55.51" y2="24.59" stroke="#a5a393" stroke-width="0.15" opacity="0.5"/>
<line x1="-44.08" y1="20.22" x2="-54.49" y2="25.43" stroke="#a5a393" stroke-width="0.15" opacity="0.5"/>
<line x1="-43.27" y1="21.18" x2="-53.46" y2="26.27" stroke="#a5a393" stroke-width="0.15" opacity="0.5"/>
<line x1="-42.47" y1="22.13" x2="-49.69" y2="29.35" stroke="#a5a393" stroke-width="0.15" opacity="0.5"/>
<line x1="-41.66" y1="23.08" x2="-53.68" y2="26.09" stroke="#a5a393" stroke-width="0.15" opacity="0.5"/>
<line x1="-40.85" y1="24.03" x2="-50.38" y2="28.79" stroke="#a5a393" stroke-width="0.15" opacity="0.5"/>
<line x1="-40.05" y1="24.98" x2="-51.52" y2="27.85" stroke="#a5a393" stroke-width="0.15" opacity="0.5"/>
<line x1="-39.24" y1="25.93" x2="-48.32" y2="30.48" stroke="#a5a393" stroke-width="0.15" opacity="0.5"/>
<line x1="-38.43" y1="26.89" x2="-49.37" y2="29.62" stroke="#a5a393" stroke-width="0.15" opacity="0.5"/>
<line x1="-37.63" y1="27.84" x2="-46.27" y2="32.16" stroke="#a5a393" stroke-width="0.15" opacity="0.5"/>
<line x1="-36.82" y1="28.79" x2="-42.59" y2="34.56" stroke="#a5a393" stroke-width="0.15" opacity="0.5"/>
<line x1="-36.01" y1="29.74" x2="-41.28" y2="35.01" stroke="#a5a393" stroke-width="0.15" opacity="0.5"/>
<line x1="-35.21" y1="30.69" x2="-39.98" y2="35.46" stroke="#a5a393" stroke-width="0.15" opacity="0.5"/>
<line x1="-34.40" y1="31.65" x2="-38.67" y2="35.91" stroke="#a5a393" stroke-width="0.15" opacity="0.5"/>
<line x1="-33.59" y1="32.60" x2="-37.36" y2="36.37" stroke="#a5a393" stroke-width="0.15" opacity="0.5"/>
<line x1="-33.17" y1="33.94" x2="-36.06" y2="36.82" stroke="#a5a393" stroke-width="0.15" opacity="0.5"/>
<line x1="-47.69" y1="8.89" x2="-47.69" y2="7.61" stroke="#a5a393" stroke-width="0.15" opacity="0.5"/>
<line x1="-48.49" y1="9.87" x2="-48.49" y2="7.79" stroke="#a5a393" stroke-width="0.15" opacity="0.5"/>
<line x1="-49.30" y1="10.85" x2="-49.30" y2="7.98" stroke="#a5a393" stroke-width="0.15" opacity="0.5"/>
<line x1="-50.10" y1="11.83" x2="-50.10" y2="8.17" stroke="#a5a393" stroke-width="0.15" opacity="0.5"/>
<line x1="-50.90" y1="12.81" x2="-50.90" y2="8.37" stroke="#a5a393" stroke-width="0.15" opacity="0.5"/>
<line x1="-51.70" y1="13.79" x2="-51.70" y2="8.56" stroke="#a5a393" stroke-width="0.15" opacity="0.5"/>
<line x1="-52.51" y1="14.77" x2="-52.51" y2="8.75" stroke="#a5a393" stroke-width="0.15" opacity="0.5"/>
<line x1="-53.31" y1="15.75" x2="-53.31" y2="8.94" stroke="#a5a393" stroke-width="0.15" opacity="0.5"/>
<line x1="-58.12" y1="21.16" x2="-58.12" y2="10.09" stroke="#a5a393" stroke-width="0.15" opacity="0.5"/>
<line x1="-88.86" y1="17.44" x2="-88.58" y2="18.62" stroke="#a5a393" stroke-width="0.15" opacity="0.5"/>
<line x1="-87.63" y1="17.15" x2="-87.17" y2="19.11" stroke="#a5a393" stroke-width="0.15" opacity="0.5"/>
<line x1="-86.41" y1="16.85" x2="-85.75" y2="19.60" stroke="#a5a393" stroke-width="0.15" opacity="0.5"/>
<line x1="-85.18" y1="16.56" x2="-84.34" y2="20.09" stroke="#a5a393" stroke-width="0.15" opacity="0.5"/>
<line x1="-83.95" y1="16.27" x2="-82.92" y2="20.58" stroke="#a5a393" stroke-width="0.15" opacity="0.5"/>
<line x1="-82.72" y1="15.97" x2="-81.51" y2="21.07" stroke="#a5a393" stroke-width="0.15" opacity="0.5"/>
<line x1="-81.50" y1="15.68" x2="-80.09" y2="21.56" stroke="#a5a393" stroke-width="0.15" opacity="0.5"/>
<line x1="-80.27" y1="15.39" x2="-78.68" y2="22.05" stroke="#a5a393" stroke-width="0.15" opacity="0.5"/>
<line x1="-79.04" y1="15.09" x2="-77.26" y2="22.54" stroke="#a5a393" stroke-width="0.15" opacity="0.5"/>
<line x1="-77.81" y1="14.80" x2="-75.85" y2="23.03" stroke="#a5a393" stroke-width="0.15" opacity="0.5"/>
<line x1="-76.59" y1="14.51" x2="-74.43" y2="23.52" stroke="#a5a393" stroke-width="0.15" opacity="0.5"/>
<line x1="-75.36" y1="14.21" x2="-73.16" y2="23.41" stroke="#a5a393" stroke-width="0.15" opacity="0.5"/>
<line x1="-74.13" y1="13.92" x2="-72.02" y2="22.75" stroke="#a5a393" stroke-width="0.15" opacity="0.5"/>
<line x1="-72.91" y1="13.63" x2="-71.18" y2="20.85" stroke="#a5a393" stroke-width="0.15" opacity="0.5"/>
<line x1="-71.68" y1="13.33" x2="-70.33" y2="18.95" stroke="#a5a393" stroke-width="0.15" opacity="0.5"/>
<line x1="-70.45" y1="13.04" x2="-69.49" y2="17.05" stroke="#a5a393" stroke-width="0.15" opacity="0.5"/>
<line x1="-69.22" y1="12.75" x2="-68.65" y2="15.15" stroke="#a5a393" stroke-width="0.15" opacity="0.5"/>
<path d="M-87.91,19.30L-88.97,19.56L-89.44,17.58L-88.38,17.33Z" fill="#99948a" stroke="#1a1917" stroke-width="0.15"/>
</svg>