<svg xmlns="http://www.w3.org/2000/svg" viewBox="-234.0 -143.4 438.6 306.8">
<rect x="-234.0" y="-143.4" width="438.6" height="306.8" fill="#ccc5b8"/>
<path d="M31.75,11.35L21.21,5.50L26.28,-15.22L42.67,-21.37L50.42,-16.62L50.75,5.42L40.66,10.69Z" fill="#8fbbc9" stroke="none"/>
<path d="M-6.92,52.10L-3.18,37.45L6.88,25.02L21.49,32.30L30.81,46.64L21.52,59.30Z" fill="#8fbbc9" stroke="none"/>
<path d="M30.81,46.64L21.49,32.30L31.75,11.35L40.66,10.69L42.94,44.82Z" fill="#8fbbc9" stroke="none"/>
<path d="M47.27,45.55L42.94,44.82L40.66,10.69L50.75,5.42L78.82,24.90L77.54,31.64Z" fill="#8fbbc9" stroke="none"/>
<path d="M50.42,-16.62L42.67,-21.37L36.52,-41.22L37.24,-44.16L59.75,-55.73L68.48,-23.99Z" fill="#8fbbc9" stroke="none"/>
<path d="M50.75,5.42L50.42,-16.62L68.48,-23.99L79.82,-22.42L87.46,16.46L78.82,24.90Z" fill="#8fbbc9" stroke="none"/>
<path d="M-9.45,93.19L-16.62,75.05L-9.25,53.52L-6.92,52.10L21.52,59.30L23.16,76.87L12.57,94.44Z" fill="#8fbbc9" stroke="none"/>
<path d="M23.16,76.87L21.52,59.30L30.81,46.64L42.94,44.82L47.27,45.55L57.55,79.00Z" fill="#8fbbc9" stroke="none"/>
<path d="M68.48,-23.99L59.75,-55.73L68.02,-69.97L79.34,-69.33L99.51,-36.57L79.82,-22.42Z" fill="#8fbbc9" stroke="none"/>
<path d="M63.29,83.22L57.55,79.00L47.27,45.55L77.54,31.64L95.14,66.74Z" fill="#8fbbc9" stroke="none"/>
<path d="M-54.30,139.37L-60.30,143.37L-61.22,74.32L-51.18,65.85L-16.62,75.05L-9.45,93.19Z" fill="#8fbbc9" stroke="none"/>
<path d="M91.91,15.50L87.46,16.46L79.82,-22.42L99.51,-36.57L117.27,-34.04L126.53,-7.51Z" fill="#8fbbc9" stroke="none"/>
<path d="M21.71,107.11L12.57,94.44L23.16,76.87L57.55,79.00L63.29,83.22L60.73,99.61Z" fill="#8fbbc9" stroke="none"/>
<path d="M103.88,70.16L95.14,66.74L77.54,31.64L78.82,24.90L87.46,16.46L91.91,15.50L139.62,44.84Z" fill="#8fbbc9" stroke="none"/>
<path d="M-54.30,139.37L-9.45,93.19L12.57,94.44L21.71,107.11L23.22,128.02Z" fill="#8fbbc9" stroke="none"/>
<path d="M91.91,15.50L126.53,-7.51L184.64,29.61L139.62,44.84Z" fill="#8fbbc9" stroke="none"/>
<path d="M-7.24,-10.73L-13.49,-20.82L-20.03,-31.35L-26.64,-31.90L-40.72,-25.95L-54.94,-30.30L-65.57,-41.44L-80.44,-52.92L-86.50,-60.93" fill="none" stroke="#67635c" stroke-width="2.15" stroke-linecap="butt"/>
<path d="M-7.24,-10.73L-13.49,-20.82L-20.03,-31.35L-26.64,-31.90L-40.72,-25.95L-54.94,-30.30L-65.57,-41.44L-80.44,-52.92L-86.50,-60.93" fill="none" stroke="#ccc5b8" stroke-width="1.85"/>
<path d="M9.37,0.25L3.60,-6.64L-7.24,-10.73L-13.49,-20.82L-20.03,-31.35L-26.64,-31.90L-40.72,-25.95L-54.94,-30.30L-65.57,-41.44L-80.44,-52.92L-86.50,-60.93" fill="none" stroke="#67635c" stroke-width="2.15" stroke-linecap="butt"/>
<path d="M9.37,0.25L3.60,-6.64L-7.24,-10.73L-13.49,-20.82L-20.03,-31.35L-26.64,-31.90L-40.72,-25.95L-54.94,-30.30L-65.57,-41.44L-80.44,-52.92L-86.50,-60.93" fill="none" stroke="#ccc5b8" stroke-width="1.85"/>
<path d="M3.60,-6.64L11.34,-22.04" fill="none" stroke="#67635c" stroke-width="2.15" stroke-linecap="butt"/>
<path d="M3.60,-6.64L11.34,-22.04" fill="none" stroke="#ccc5b8" stroke-width="1.85"/>
<path d="M9.37,0.25L-5.03,9.18L-20.06,11.10" fill="none" stroke="#67635c" stroke-width="2.15" stroke-linecap="butt"/>
<path d="M9.37,0.25L-5.03,9.18L-20.06,11.10" fill="none" stroke="#ccc5b8" stroke-width="1.85"/>
<path d="M4.91,-0.31L-4.06,5.25L-5.17,3.46L3.80,-2.10Z" fill="#99948a" stroke="#1a1917" stroke-width="0.15"/>
<path d="M2.55,-4.72L-5.97,-3.78L-6.11,-5.07L2.41,-6.01Z" fill="#99948a" stroke="#1a1917" stroke-width="0.15"/>
<path d="M11.23,6.87L12.91,2.54L15.91,3.69L14.23,8.03Z" fill="#99948a" stroke="#1a1917" stroke-width="0.15"/>
<path d="M9.33,6.06L11.38,1.92L12.86,2.65L10.82,6.80Z" fill="#99948a" stroke="#1a1917" stroke-width="0.15"/>
<path d="M12.98,10.61L8.93,7.84L9.54,6.94L13.59,9.72Z" fill="#99948a" stroke="#1a1917" stroke-width="0.15"/>
<path d="M18.35,5.07L17.33,7.37L14.93,6.31L15.95,4.01Z" fill="#99948a" stroke="#1a1917" stroke-width="0.15"/>
<path d="M20.02,5.80L18.20,8.28L17.24,7.57L19.06,5.09Z" fill="#99948a" stroke="#1a1917" stroke-width="0.15"/>
<path d="M14.43,8.85L16.59,9.68L15.56,12.35L13.40,11.52Z" fill="#99948a" stroke="#1a1917" stroke-width="0.15"/>
<path d="M15.05,6.83L17.67,8.75L16.94,9.74L14.33,7.82Z" fill="#99948a" stroke="#1a1917" stroke-width="0.15"/>
<path d="M6.95,6.72L7.38,6.09L8.62,6.93L8.19,7.57Z" fill="#99948a" stroke="#1a1917" stroke-width="0.15"/>
<path d="M6.43,6.48L4.60,5.23L5.60,3.76L7.43,5.02Z" fill="#99948a" stroke="#1a1917" stroke-width="0.15"/>
<path d="M9.79,3.35L8.91,2.92L9.76,1.19L10.64,1.62Z" fill="#99948a" stroke="#1a1917" stroke-width="0.15"/>
<path d="M8.01,5.73L6.93,3.98L8.76,2.85L9.84,4.59Z" fill="#99948a" stroke="#1a1917" stroke-width="0.15"/>
<path d="M6.30,17.73L8.61,14.49L9.45,15.08L7.14,18.33Z" fill="#99948a" stroke="#1a1917" stroke-width="0.15"/>
<path d="M7.39,18.47L9.91,16.38L11.34,18.10L8.81,20.20Z" fill="#99948a" stroke="#1a1917" stroke-width="0.15"/>
<path d="M4.04,16.48L7.45,13.66L8.10,14.44L4.69,17.26Z" fill="#99948a" stroke="#1a1917" stroke-width="0.15"/>
<path d="M12.16,16.21L9.84,14.50L12.06,11.47L14.39,13.17Z" fill="#99948a" stroke="#1a1917" stroke-width="0.15"/>
<path d="M11.77,11.71L8.93,14.07L7.83,12.73L10.67,10.38Z" fill="#99948a" stroke="#1a1917" stroke-width="0.15"/>
<path d="M8.67,21.44L7.19,23.46L5.28,22.05L6.76,20.04Z" fill="#99948a" stroke="#1a1917" stroke-width="0.15"/>
<path d="M3.00,17.48L6.42,19.92L5.86,20.71L2.44,18.28Z" fill="#99948a" stroke="#1a1917" stroke-width="0.15"/>
<path d="M6.23,7.63L9.74,10.03L8.05,12.51L4.53,10.10Z" fill="#99948a" stroke="#1a1917" stroke-width="0.15"/>
<path d="M3.91,9.22L1.56,6.96L3.19,5.26L5.54,7.52Z" fill="#99948a" stroke="#1a1917" stroke-width="0.15"/>
<path d="M5.86,14.32L1.82,9.45L2.91,8.55L6.95,13.42Z" fill="#99948a" stroke="#1a1917" stroke-width="0.15"/>
<path d="M4.98,14.94L1.94,17.46L0.67,15.93L3.72,13.41Z" fill="#99948a" stroke="#1a1917" stroke-width="0.15"/>
<path d="M2.74,12.24L-0.13,14.62L-2.18,12.14L0.69,9.76Z" fill="#99948a" stroke="#1a1917" stroke-width="0.15"/>
<path d="M3.70,13.31L0.60,15.64L-0.11,14.69L2.99,12.36Z" fill="#99948a" stroke="#1a1917" stroke-width="0.15"/>
<path d="M2.19,8.34L-2.43,11.81L-3.69,10.13L0.92,6.66Z" fill="#99948a" stroke="#1a1917" stroke-width="0.15"/>
<path d="M-14.16,-4.00L-12.14,1.75L-14.21,2.48L-16.23,-3.27Z" fill="#99948a" stroke="#1a1917" stroke-width="0.15"/>
<path d="M-12.35,-1.87L-7.71,-3.49L-6.59,-0.29L-11.23,1.34Z" fill="#99948a" stroke="#1a1917" stroke-width="0.15"/>
<path d="M-7.12,-3.73L-12.35,-1.89L-13.20,-4.34L-7.98,-6.17Z" fill="#99948a" stroke="#1a1917" stroke-width="0.15"/>
<path d="M-22.81,-2.64L-19.66,4.31L-20.46,4.67L-23.61,-2.28Z" fill="#99948a" stroke="#1a1917" stroke-width="0.15"/>
<path d="M-9.94,2.39L-8.14,7.53L-12.78,9.16L-14.59,4.02Z" fill="#99948a" stroke="#1a1917" stroke-width="0.15"/>
<path d="M-20.55,5.72L-15.54,3.96L-14.05,8.20L-19.06,9.96Z" fill="#99948a" stroke="#1a1917" stroke-width="0.15"/>
<path d="M-9.45,1.59L-7.06,0.75L-6.20,3.22L-8.59,4.05Z" fill="#99948a" stroke="#1a1917" stroke-width="0.15"/>
<path d="M-7.17,8.10L-8.47,4.39L-7.01,3.88L-5.71,7.58Z" fill="#99948a" stroke="#1a1917" stroke-width="0.15"/>
<path d="M-5.93,-17.29L-6.04,-14.25L-8.30,-14.33L-8.19,-17.36Z" fill="#99948a" stroke="#1a1917" stroke-width="0.15"/>
<path d="M-8.48,-17.18L-8.70,-17.05L-9.46,-18.29L-9.25,-18.42Z" fill="#99948a" stroke="#1a1917" stroke-width="0.15"/>
<path d="M-0.29,-14.07L-5.51,-13.70L-5.60,-14.98L-0.38,-15.35Z" fill="#99948a" stroke="#1a1917" stroke-width="0.15"/>
<path d="M-0.65,-17.56L-0.30,-15.61L-1.55,-15.39L-1.90,-17.34Z" fill="#99948a" stroke="#1a1917" stroke-width="0.15"/>
<path d="M-2.06,-9.84L-3.61,-10.43L-2.62,-13.05L-1.07,-12.46Z" fill="#99948a" stroke="#1a1917" stroke-width="0.15"/>
<path d="M-0.17,-20.98L2.55,-21.11L2.67,-18.60L-0.05,-18.46Z" fill="#99948a" stroke="#1a1917" stroke-width="0.15"/>
<path d="M2.88,-17.73L2.93,-16.65L0.50,-16.54L0.45,-17.61Z" fill="#99948a" stroke="#1a1917" stroke-width="0.15"/>
<path d="M6.33,-18.59L3.87,-19.83L4.56,-21.21L7.02,-19.97Z" fill="#99948a" stroke="#1a1917" stroke-width="0.15"/>
<path d="M9.08,-21.13L7.64,-18.26L7.09,-18.54L8.53,-21.40Z" fill="#99948a" stroke="#1a1917" stroke-width="0.15"/>
<path d="M7.15,-17.05L5.69,-14.14L3.60,-15.18L5.07,-18.09Z" fill="#99948a" stroke="#1a1917" stroke-width="0.15"/>
<path d="M3.99,-9.64L3.46,-8.59L1.71,-9.47L2.24,-10.52Z" fill="#99948a" stroke="#1a1917" stroke-width="0.15"/>
<path d="M2.40,-14.65L4.22,-13.51L2.85,-11.32L1.03,-12.46Z" fill="#99948a" stroke="#1a1917" stroke-width="0.15"/>
<path d="M14.78,-5.76L15.82,-11.34L19.20,-10.71L18.16,-5.13Z" fill="#99948a" stroke="#1a1917" stroke-width="0.15"/>
<path d="M18.32,-5.21L19.35,-10.72L24.13,-9.82L23.10,-4.32Z" fill="#99948a" stroke="#1a1917" stroke-width="0.15"/>
<path d="M16.94,-14.91L20.58,-14.23L19.93,-10.73L16.29,-11.41Z" fill="#99948a" stroke="#1a1917" stroke-width="0.15"/>
<path d="M17.65,-18.14L21.80,-16.24L20.86,-14.18L16.71,-16.08Z" fill="#99948a" stroke="#1a1917" stroke-width="0.15"/>
<path d="M10.80,-9.68L14.72,-9.03L14.18,-5.80L10.26,-6.46Z" fill="#99948a" stroke="#1a1917" stroke-width="0.15"/>
<path d="M11.59,-11.99L14.66,-10.44L14.01,-9.15L10.94,-10.69Z" fill="#99948a" stroke="#1a1917" stroke-width="0.15"/>
<path d="M9.69,-6.93L5.95,-7.56L6.33,-9.86L10.07,-9.23Z" fill="#99948a" stroke="#1a1917" stroke-width="0.15"/>
<path d="M9.71,-9.42L7.31,-10.62L8.83,-13.65L11.23,-12.44Z" fill="#99948a" stroke="#1a1917" stroke-width="0.15"/>
<path d="M12.46,-15.55L13.24,-19.73L16.56,-19.11L15.78,-14.93Z" fill="#99948a" stroke="#1a1917" stroke-width="0.15"/>
<path d="M10.04,-15.89L12.24,-20.28L13.25,-19.77L11.05,-15.39Z" fill="#99948a" stroke="#1a1917" stroke-width="0.15"/>
<path d="M11.10,-2.02L13.48,-1.62L13.10,0.70L10.71,0.30Z" fill="#99948a" stroke="#1a1917" stroke-width="0.15"/>
<path d="M15.61,-4.70L22.70,-3.51L22.28,-0.98L15.18,-2.16Z" fill="#99948a" stroke="#1a1917" stroke-width="0.15"/>
<path d="M17.70,-0.72L16.91,2.51L14.19,1.84L14.98,-1.38Z" fill="#99948a" stroke="#1a1917" stroke-width="0.15"/>
<path d="M21.92,0.49L21.05,4.07L16.97,3.07L17.85,-0.51Z" fill="#99948a" stroke="#1a1917" stroke-width="0.15"/>
<path d="M-4.50,24.74L-1.12,19.72L5.73,24.32L2.35,29.35Z" fill="#99948a" stroke="#1a1917" stroke-width="0.15"/>
<path d="M-3.08,13.41L-0.36,17.03L-3.26,19.21L-5.98,15.59Z" fill="#99948a" stroke="#1a1917" stroke-width="0.15"/>
<path d="M-4.42,13.48L-5.69,15.19L-9.57,12.32L-8.30,10.60Z" fill="#99948a" stroke="#1a1917" stroke-width="0.15"/>
<path d="M-13.53,16.98L-15.30,19.16L-19.80,15.49L-18.02,13.32Z" fill="#99948a" stroke="#1a1917" stroke-width="0.15"/>
<path d="M-7.16,26.81L-15.35,21.30L-10.98,14.80L-2.79,20.30Z" fill="#99948a" stroke="#1a1917" stroke-width="0.15"/>
<path d="M-29.68,10.20L-25.42,7.24L-24.10,11.59L-24.42,17.76Z" fill="none" stroke="#1a1917" stroke-width="0.60"/>
<path d="M-32.26,5.66L-36.53,-0.49L-36.25,-0.97L-27.57,0.18L-27.01,2.01Z" fill="none" stroke="#1a1917" stroke-width="0.60"/>
<path d="M-29.68,10.20L-25.42,7.24L-24.10,11.59L-24.42,17.76Z" fill="#99948a" stroke="none"/>
<path d="M-32.26,5.66L-36.53,-0.49L-36.25,-0.97L-27.57,0.18L-27.01,2.01Z" fill="#99948a" stroke="none"/>
<path d="M-26.82,-31.83L-25.35,-31.80L-21.32,-31.46L-19.34,-30.24L-14.17,-21.93L-12.80,-19.72L-7.93,-11.84L-8.44,-10.22L-15.27,-7.34L-16.97,-8.03L-26.49,-30.56Z" fill="#a5a393" stroke="none"/>
<path d="M-19.50,-5.55L-23.29,-3.95L-25.78,-3.62L-37.10,-5.11L-38.53,-6.58L-40.58,-24.66L-39.53,-26.46L-30.03,-30.47L-28.33,-29.78L-18.81,-7.25Z" fill="#a5a393" stroke="none"/>
<line x1="-15.95" y1="-7.62" x2="-12.66" y2="-8.44" stroke="#a5a393" stroke-width="0.15" opacity="0.5"/>
<line x1="-17.22" y1="-8.62" x2="-12.25" y2="-8.62" stroke="#a5a393" stroke-width="0.15" opacity="0.5"/>
<line x1="-17.72" y1="-9.80" x2="-9.28" y2="-14.02" stroke="#a5a393" stroke-width="0.15" opacity="0.5"/>
<line x1="-18.72" y1="-12.18" x2="-8.14" y2="-12.18" stroke="#a5a393" stroke-width="0.15" opacity="0.5"/>
<line x1="-19.22" y1="-13.36" x2="-8.87" y2="-13.36" stroke="#a5a393" stroke-width="0.15" opacity="0.5"/>
<line x1="-20.22" y1="-15.74" x2="-10.34" y2="-15.74" stroke="#a5a393" stroke-width="0.15" opacity="0.5"/>
<line x1="-20.73" y1="-16.92" x2="-14.76" y2="-22.88" stroke="#a5a393" stroke-width="0.15" opacity="0.5"/>
<line x1="-21.23" y1="-18.11" x2="-21.23" y2="-31.40" stroke="#a5a393" stroke-width="0.15" opacity="0.5"/>
<line x1="-21.73" y1="-19.30" x2="-16.06" y2="-24.96" stroke="#a5a393" stroke-width="0.15" opacity="0.5"/>
<line x1="-22.23" y1="-20.48" x2="-13.28" y2="-20.48" stroke="#a5a393" stroke-width="0.15" opacity="0.5"/>
<line x1="-22.73" y1="-21.67" x2="-22.73" y2="-31.58" stroke="#a5a393" stroke-width="0.15" opacity="0.5"/>
<line x1="-23.23" y1="-22.86" x2="-23.23" y2="-31.62" stroke="#a5a393" stroke-width="0.15" opacity="0.5"/>
<line x1="-23.73" y1="-24.04" x2="-18.65" y2="-29.13" stroke="#a5a393" stroke-width="0.15" opacity="0.5"/>
<line x1="-24.23" y1="-25.23" x2="-24.23" y2="-31.70" stroke="#a5a393" stroke-width="0.15" opacity="0.5"/>
<line x1="-24.74" y1="-26.42" x2="-16.96" y2="-26.42" stroke="#a5a393" stroke-width="0.15" opacity="0.5"/>
<line x1="-25.24" y1="-27.60" x2="-25.24" y2="-31.79" stroke="#a5a393" stroke-width="0.15" opacity="0.5"/>
<path d="M-21.90,-8.75L-22.59,-10.39L-20.51,-11.27L-19.82,-9.63Z" fill="#99948a" stroke="#1a1917" stroke-width="0.15"/>
<path d="M-14.17,-21.93L-19.34,-30.24L-18.83,-31.85L3.65,-41.21L5.65,-40.68L9.44,-35.80L10.34,-33.48L11.23,-23.34L10.04,-21.98L-12.19,-20.89Z" fill="#a5a393" stroke="none"/>
<path d="M-14.02,-32.43L-13.51,-31.20L-15.86,-30.22L-16.37,-31.45Z" fill="#99948a" stroke="#1a1917" stroke-width="0.15"/>
<path d="M22.86,-31.40L21.37,-36.90L24.71,-37.81L26.20,-32.31Z" fill="#99948a" stroke="#1a1917" stroke-width="0.15"/>
<path d="M19.78,-30.63L18.48,-36.18L21.38,-36.86L22.68,-31.30Z" fill="#99948a" stroke="#1a1917" stroke-width="0.15"/>
<path d="M26.34,-31.59L27.66,-26.75L24.44,-25.87L23.12,-30.71Z" fill="#99948a" stroke="#1a1917" stroke-width="0.15"/>
<path d="M23.12,-30.69L24.27,-25.88L21.00,-25.10L19.85,-29.91Z" fill="#99948a" stroke="#1a1917" stroke-width="0.15"/>
<path d="M16.44,-26.92L20.32,-27.84L20.98,-25.05L17.11,-24.13Z" fill="#99948a" stroke="#1a1917" stroke-width="0.15"/>
<path d="M16.21,-29.17L19.75,-29.35L19.83,-27.73L16.29,-27.55Z" fill="#99948a" stroke="#1a1917" stroke-width="0.15"/>
<path d="M16.66,-24.33L12.04,-23.23L11.56,-25.21L16.19,-26.31Z" fill="#99948a" stroke="#1a1917" stroke-width="0.15"/>
<path d="M16.11,-26.34L11.69,-25.95L11.42,-29.06L15.84,-29.45Z" fill="#99948a" stroke="#1a1917" stroke-width="0.15"/>
<path d="M18.82,-33.07L15.70,-32.34L14.99,-35.36L18.12,-36.09Z" fill="#99948a" stroke="#1a1917" stroke-width="0.15"/>
<path d="M19.34,-30.49L15.61,-30.30L15.51,-32.30L19.24,-32.48Z" fill="#99948a" stroke="#1a1917" stroke-width="0.15"/>
<path d="M11.04,-34.15L14.64,-35.03L15.10,-33.15L11.50,-32.27Z" fill="#99948a" stroke="#1a1917" stroke-width="0.15"/>
<path d="M11.04,-32.24L15.09,-32.45L15.21,-30.02L11.16,-29.82Z" fill="#99948a" stroke="#1a1917" stroke-width="0.15"/>
<path d="M19.61,-23.01L20.29,-19.46L18.82,-19.18L18.14,-22.73Z" fill="#99948a" stroke="#1a1917" stroke-width="0.15"/>
<path d="M29.02,-22.01L25.00,-20.91L24.41,-23.08L28.43,-24.17Z" fill="#99948a" stroke="#1a1917" stroke-width="0.15"/>
<path d="M23.93,-25.07L27.88,-26.01L28.33,-24.14L24.37,-23.20Z" fill="#99948a" stroke="#1a1917" stroke-width="0.15"/>
<path d="M20.91,-20.06L20.14,-24.11L23.34,-24.72L24.11,-20.67Z" fill="#99948a" stroke="#1a1917" stroke-width="0.15"/>
<path d="M23.51,-17.04L21.89,-17.77L23.01,-20.22L24.63,-19.48Z" fill="#99948a" stroke="#1a1917" stroke-width="0.15"/>
<path d="M24.29,-20.72L29.02,-22.01L29.58,-19.93L24.85,-18.65Z" fill="#99948a" stroke="#1a1917" stroke-width="0.15"/>
<path d="M27.58,-18.99L28.18,-16.81L25.56,-16.10L24.97,-18.28Z" fill="#99948a" stroke="#1a1917" stroke-width="0.15"/>
<path d="M28.21,-16.69L27.51,-19.27L29.58,-19.83L30.28,-17.26Z" fill="#99948a" stroke="#1a1917" stroke-width="0.15"/>
<path d="M37.14,-20.00L35.61,-24.10L37.74,-24.89L39.27,-20.79Z" fill="#99948a" stroke="#1a1917" stroke-width="0.15"/>
<path d="M39.26,-20.82L38.03,-24.88L40.79,-25.72L42.03,-21.66Z" fill="#99948a" stroke="#1a1917" stroke-width="0.15"/>
<path d="M34.20,-18.83L32.59,-23.13L35.42,-24.19L37.03,-19.89Z" fill="#99948a" stroke="#1a1917" stroke-width="0.15"/>
<path d="M30.97,-17.81L29.76,-22.26L32.62,-23.04L33.84,-18.59Z" fill="#99948a" stroke="#1a1917" stroke-width="0.15"/>
<path d="M39.80,-28.94L40.58,-26.40L38.14,-25.65L37.36,-28.18Z" fill="#99948a" stroke="#1a1917" stroke-width="0.15"/>
<path d="M38.13,-25.64L34.81,-24.63L34.04,-27.19L37.35,-28.20Z" fill="#99948a" stroke="#1a1917" stroke-width="0.15"/>
<path d="M39.77,-28.96L34.03,-27.22L33.00,-30.61L38.74,-32.35Z" fill="#99948a" stroke="#1a1917" stroke-width="0.15"/>
<path d="M34.14,-24.49L29.45,-23.07L28.49,-26.22L33.19,-27.65Z" fill="#99948a" stroke="#1a1917" stroke-width="0.15"/>
<path d="M33.18,-27.68L28.51,-26.41L27.76,-29.15L32.43,-30.42Z" fill="#99948a" stroke="#1a1917" stroke-width="0.15"/>
<path d="M32.84,-35.03L37.43,-36.49L38.71,-32.47L34.12,-31.00Z" fill="#99948a" stroke="#1a1917" stroke-width="0.15"/>
<path d="M32.86,-35.26L31.56,-39.35L33.41,-39.94L34.71,-35.85Z" fill="#99948a" stroke="#1a1917" stroke-width="0.15"/>
<path d="M34.81,-35.89L33.83,-39.89L36.23,-40.48L37.21,-36.48Z" fill="#99948a" stroke="#1a1917" stroke-width="0.15"/>
<path d="M30.94,-30.08L29.80,-33.99L32.85,-34.88L33.98,-30.97Z" fill="#99948a" stroke="#1a1917" stroke-width="0.15"/>
<path d="M27.71,-29.20L26.64,-33.14L29.76,-33.99L30.83,-30.04Z" fill="#99948a" stroke="#1a1917" stroke-width="0.15"/>
<path d="M29.90,-34.70L28.80,-38.73L31.39,-39.44L32.49,-35.40Z" fill="#99948a" stroke="#1a1917" stroke-width="0.15"/>
<path d="M26.43,-33.80L25.32,-37.87L28.69,-38.79L29.80,-34.72Z" fill="#99948a" stroke="#1a1917" stroke-width="0.15"/>
<path d="M42.01,-23.52L42.37,-22.35L47.68,-23.99L47.32,-25.17Z" fill="#99948a" stroke="#1a1917" stroke-width="0.30"/>
<path d="M5.38,-53.07L4.91,-43.00L3.65,-41.21L-8.06,-36.33L-9.76,-37.03L-14.51,-48.44L-13.74,-49.93L4.18,-54.07Z" fill="#a5a393" stroke="none"/>
<path d="M-16.28,-52.71L-19.16,-59.61L-18.50,-61.39L2.00,-71.63L4.33,-71.64L5.04,-71.29L6.15,-69.41L5.60,-57.74L4.28,-56.15L-14.52,-51.80Z" fill="#a5a393" stroke="none"/>
<path d="M-12.30,-34.56L-18.83,-31.85L-21.32,-31.46L-25.35,-31.80L-26.69,-33.20L-27.62,-55.51L-26.51,-57.39L-22.61,-59.33L-20.95,-58.72L-11.60,-36.26Z" fill="#a5a393" stroke="none"/>
<path d="M-11.68,-48.91L-12.01,-50.33L-9.64,-50.88L-9.31,-49.46Z" fill="#99948a" stroke="#1a1917" stroke-width="0.15"/>
<path d="M-36.23,16.72L-31.39,23.68L-31.09,25.97L-35.74,38.59L-37.32,40.46L-44.26,44.45L-46.40,44.28L-59.17,34.08L-59.15,32.49L-38.01,16.44Z" fill="#a5a393" stroke="none"/>
<path d="M-62.81,31.17L-67.39,27.51L-67.93,25.49L-62.25,10.85L-60.52,9.31L-45.59,5.40L-43.59,6.13L-38.85,12.94L-39.15,14.80L-60.76,31.20Z" fill="#a5a393" stroke="none"/>
<line x1="-52.61" y1="27.53" x2="-52.61" y2="39.32" stroke="#a5a393" stroke-width="0.15" opacity="0.5"/>
<line x1="-49.59" y1="25.23" x2="-49.59" y2="41.74" stroke="#a5a393" stroke-width="0.15" opacity="0.5"/>
<line x1="-47.57" y1="23.70" x2="-47.57" y2="43.35" stroke="#a5a393" stroke-width="0.15" opacity="0.5"/>
<line x1="-46.56" y1="22.93" x2="-46.56" y2="44.16" stroke="#a5a393" stroke-width="0.15" opacity="0.5"/>
<line x1="-44.54" y1="21.40" x2="-44.54" y2="44.43" stroke="#a5a393" stroke-width="0.15" opacity="0.5"/>
<line x1="-41.51" y1="19.10" x2="-41.51" y2="42.87" stroke="#a5a393" stroke-width="0.15" opacity="0.5"/>
<line x1="-39.49" y1="17.57" x2="-39.49" y2="41.71" stroke="#a5a393" stroke-width="0.15" opacity="0.5"/>
<line x1="-38.48" y1="16.80" x2="-38.48" y2="41.13" stroke="#a5a393" stroke-width="0.15" opacity="0.5"/>
<line x1="-37.47" y1="16.52" x2="-37.47" y2="40.55" stroke="#a5a393" stroke-width="0.15" opacity="0.5"/>
<line x1="-39.07" y1="14.29" x2="-59.77" y2="9.11" stroke="#a5a393" stroke-width="0.15" opacity="0.5"/>
<line x1="-39.66" y1="15.18" x2="-61.10" y2="9.82" stroke="#a5a393" stroke-width="0.15" opacity="0.5"/>
<line x1="-40.69" y1="15.96" x2="-62.01" y2="10.63" stroke="#a5a393" stroke-width="0.15" opacity="0.5"/>
<line x1="-41.72" y1="16.74" x2="-64.54" y2="16.74" stroke="#a5a393" stroke-width="0.15" opacity="0.5"/>
<line x1="-42.75" y1="17.53" x2="-59.64" y2="9.08" stroke="#a5a393" stroke-width="0.15" opacity="0.5"/>
<line x1="-43.78" y1="18.31" x2="-60.97" y2="9.71" stroke="#a5a393" stroke-width="0.15" opacity="0.5"/>
<line x1="-45.84" y1="19.87" x2="-45.84" y2="5.46" stroke="#a5a393" stroke-width="0.15" opacity="0.5"/>
<line x1="-46.86" y1="20.65" x2="-62.94" y2="12.62" stroke="#a5a393" stroke-width="0.15" opacity="0.5"/>
<line x1="-47.89" y1="21.43" x2="-66.36" y2="21.43" stroke="#a5a393" stroke-width="0.15" opacity="0.5"/>
<line x1="-49.95" y1="23.00" x2="-66.97" y2="23.00" stroke="#a5a393" stroke-width="0.15" opacity="0.5"/>
<line x1="-50.98" y1="23.78" x2="-50.98" y2="6.81" stroke="#a5a393" stroke-width="0.15" opacity="0.5"/>
<line x1="-52.01" y1="24.56" x2="-52.01" y2="7.08" stroke="#a5a393" stroke-width="0.15" opacity="0.5"/>
<line x1="-53.04" y1="25.34" x2="-53.04" y2="7.35" stroke="#a5a393" stroke-width="0.15" opacity="0.5"/>
<line x1="-54.07" y1="26.12" x2="-65.89" y2="20.22" stroke="#a5a393" stroke-width="0.15" opacity="0.5"/>
<line x1="-55.10" y1="26.90" x2="-67.55" y2="26.90" stroke="#a5a393" stroke-width="0.15" opacity="0.5"/>
<line x1="-57.16" y1="28.47" x2="-66.20" y2="28.47" stroke="#a5a393" stroke-width="0.15" opacity="0.5"/>
<line x1="-59.22" y1="30.03" x2="-67.88" y2="25.70" stroke="#a5a393" stroke-width="0.15" opacity="0.5"/>
<line x1="-61.28" y1="31.19" x2="-61.28" y2="9.98" stroke="#a5a393" stroke-width="0.15" opacity="0.5"/>
<path d="M-37.89,19.38L-39.79,20.82L-41.25,18.90L-39.35,17.46Z" fill="#99948a" stroke="#1a1917" stroke-width="0.15"/>
<path d="M-30.30,-58.16L-28.83,-57.40L-27.62,-55.51L-26.69,-33.20L-27.84,-31.40L-39.53,-26.46L-41.97,-26.33L-47.34,-27.97L-47.94,-29.49L-32.10,-57.63Z" fill="#a5a393" stroke="none"/>
<path d="M-51.78,-29.33L-53.69,-29.92L-55.84,-31.24L-64.67,-40.50L-64.51,-42.20L-38.33,-61.00L-36.12,-61.16L-34.39,-60.27L-33.88,-58.54L-49.90,-30.09Z" fill="#a5a393" stroke="none"/>
<line x1="-47.58" y1="-28.57" x2="-44.86" y2="-27.22" stroke="#a5a393" stroke-width="0.15" opacity="0.5"/>
<line x1="-47.63" y1="-30.04" x2="-40.37" y2="-26.41" stroke="#a5a393" stroke-width="0.15" opacity="0.5"/>
<line x1="-46.99" y1="-31.17" x2="-38.47" y2="-26.90" stroke="#a5a393" stroke-width="0.15" opacity="0.5"/>
<line x1="-46.36" y1="-32.30" x2="-40.47" y2="-26.41" stroke="#a5a393" stroke-width="0.15" opacity="0.5"/>
<line x1="-45.73" y1="-33.42" x2="-38.99" y2="-26.68" stroke="#a5a393" stroke-width="0.15" opacity="0.5"/>
<line x1="-45.09" y1="-34.55" x2="-26.75" y2="-34.55" stroke="#a5a393" stroke-width="0.15" opacity="0.5"/>
<line x1="-44.46" y1="-35.67" x2="-26.80" y2="-35.67" stroke="#a5a393" stroke-width="0.15" opacity="0.5"/>
<line x1="-43.82" y1="-36.80" x2="-26.84" y2="-36.80" stroke="#a5a393" stroke-width="0.15" opacity="0.5"/>
<line x1="-43.19" y1="-37.93" x2="-26.89" y2="-37.93" stroke="#a5a393" stroke-width="0.15" opacity="0.5"/>
<line x1="-42.56" y1="-39.05" x2="-26.94" y2="-39.05" stroke="#a5a393" stroke-width="0.15" opacity="0.5"/>
<line x1="-41.92" y1="-40.18" x2="-31.57" y2="-29.82" stroke="#a5a393" stroke-width="0.15" opacity="0.5"/>
<line x1="-41.29" y1="-41.30" x2="-30.33" y2="-30.35" stroke="#a5a393" stroke-width="0.15" opacity="0.5"/>
<line x1="-40.65" y1="-42.43" x2="-27.08" y2="-42.43" stroke="#a5a393" stroke-width="0.15" opacity="0.5"/>
<line x1="-40.02" y1="-43.56" x2="-27.12" y2="-43.56" stroke="#a5a393" stroke-width="0.15" opacity="0.5"/>
<line x1="-39.38" y1="-44.68" x2="-39.38" y2="-26.52" stroke="#a5a393" stroke-width="0.15" opacity="0.5"/>
<line x1="-38.12" y1="-46.93" x2="-27.26" y2="-46.93" stroke="#a5a393" stroke-width="0.15" opacity="0.5"/>
<line x1="-37.48" y1="-48.06" x2="-27.31" y2="-48.06" stroke="#a5a393" stroke-width="0.15" opacity="0.5"/>
<line x1="-36.85" y1="-49.19" x2="-27.36" y2="-49.19" stroke="#a5a393" stroke-width="0.15" opacity="0.5"/>
<line x1="-36.21" y1="-50.31" x2="-27.40" y2="-50.31" stroke="#a5a393" stroke-width="0.15" opacity="0.5"/>
<line x1="-35.58" y1="-51.44" x2="-27.45" y2="-51.44" stroke="#a5a393" stroke-width="0.15" opacity="0.5"/>
<line x1="-34.95" y1="-52.57" x2="-27.50" y2="-52.57" stroke="#a5a393" stroke-width="0.15" opacity="0.5"/>
<line x1="-34.31" y1="-53.69" x2="-27.55" y2="-53.69" stroke="#a5a393" stroke-width="0.15" opacity="0.5"/>
<line x1="-33.68" y1="-54.82" x2="-27.59" y2="-54.82" stroke="#a5a393" stroke-width="0.15" opacity="0.5"/>
<line x1="-33.04" y1="-55.94" x2="-27.40" y2="-50.30" stroke="#a5a393" stroke-width="0.15" opacity="0.5"/>
<line x1="-32.41" y1="-57.07" x2="-28.62" y2="-57.07" stroke="#a5a393" stroke-width="0.15" opacity="0.5"/>
<line x1="-34.05" y1="-59.13" x2="-40.94" y2="-59.13" stroke="#a5a393" stroke-width="0.15" opacity="0.5"/>
<line x1="-34.16" y1="-58.03" x2="-42.46" y2="-58.03" stroke="#a5a393" stroke-width="0.15" opacity="0.5"/>
<line x1="-34.78" y1="-56.93" x2="-43.99" y2="-56.93" stroke="#a5a393" stroke-width="0.15" opacity="0.5"/>
<line x1="-35.40" y1="-55.84" x2="-45.52" y2="-55.84" stroke="#a5a393" stroke-width="0.15" opacity="0.5"/>
<line x1="-36.02" y1="-54.74" x2="-47.05" y2="-54.74" stroke="#a5a393" stroke-width="0.15" opacity="0.5"/>
<line x1="-36.64" y1="-53.64" x2="-48.58" y2="-53.64" stroke="#a5a393" stroke-width="0.15" opacity="0.5"/>
<line x1="-37.25" y1="-52.54" x2="-50.10" y2="-52.54" stroke="#a5a393" stroke-width="0.15" opacity="0.5"/>
<line x1="-37.87" y1="-51.45" x2="-51.63" y2="-51.45" stroke="#a5a393" stroke-width="0.15" opacity="0.5"/>
<line x1="-38.49" y1="-50.35" x2="-53.16" y2="-50.35" stroke="#a5a393" stroke-width="0.15" opacity="0.5"/>
<line x1="-39.11" y1="-49.25" x2="-54.69" y2="-49.25" stroke="#a5a393" stroke-width="0.15" opacity="0.5"/>
<line x1="-39.72" y1="-48.16" x2="-56.22" y2="-48.16" stroke="#a5a393" stroke-width="0.15" opacity="0.5"/>
<line x1="-40.34" y1="-47.06" x2="-57.74" y2="-47.06" stroke="#a5a393" stroke-width="0.15" opacity="0.5"/>
<line x1="-40.96" y1="-45.96" x2="-59.27" y2="-45.96" stroke="#a5a393" stroke-width="0.15" opacity="0.5"/>
<line x1="-41.58" y1="-44.86" x2="-49.61" y2="-52.90" stroke="#a5a393" stroke-width="0.15" opacity="0.5"/>
<line x1="-42.20" y1="-43.77" x2="-62.33" y2="-43.77" stroke="#a5a393" stroke-width="0.15" opacity="0.5"/>
<line x1="-42.81" y1="-42.67" x2="-63.86" y2="-42.67" stroke="#a5a393" stroke-width="0.15" opacity="0.5"/>
<line x1="-43.43" y1="-41.57" x2="-64.57" y2="-41.57" stroke="#a5a393" stroke-width="0.15" opacity="0.5"/>
<line x1="-44.05" y1="-40.47" x2="-64.65" y2="-40.47" stroke="#a5a393" stroke-width="0.15" opacity="0.5"/>
<line x1="-44.67" y1="-39.38" x2="-63.60" y2="-39.38" stroke="#a5a393" stroke-width="0.15" opacity="0.5"/>
<line x1="-45.29" y1="-38.28" x2="-62.55" y2="-38.28" stroke="#a5a393" stroke-width="0.15" opacity="0.5"/>
<line x1="-45.90" y1="-37.18" x2="-61.51" y2="-37.18" stroke="#a5a393" stroke-width="0.15" opacity="0.5"/>
<line x1="-46.52" y1="-36.09" x2="-60.46" y2="-36.09" stroke="#a5a393" stroke-width="0.15" opacity="0.5"/>
<line x1="-47.14" y1="-34.99" x2="-59.41" y2="-34.99" stroke="#a5a393" stroke-width="0.15" opacity="0.5"/>
<line x1="-47.76" y1="-33.89" x2="-59.59" y2="-45.73" stroke="#a5a393" stroke-width="0.15" opacity="0.5"/>
<line x1="-48.37" y1="-32.79" x2="-60.59" y2="-45.01" stroke="#a5a393" stroke-width="0.15" opacity="0.5"/>
<line x1="-48.99" y1="-31.70" x2="-62.91" y2="-38.66" stroke="#a5a393" stroke-width="0.15" opacity="0.5"/>
<line x1="-49.61" y1="-30.60" x2="-60.34" y2="-35.97" stroke="#a5a393" stroke-width="0.15" opacity="0.5"/>
<line x1="-50.23" y1="-29.95" x2="-50.23" y2="-52.45" stroke="#a5a393" stroke-width="0.15" opacity="0.5"/>
<path d="M-49.79,-33.04L-48.61,-32.38L-49.90,-30.09L-51.08,-30.75Z" fill="#99948a" stroke="#1a1917" stroke-width="0.15"/>
<path d="M-68.93,-44.04L-66.60,-42.23L-64.67,-40.50L-55.84,-31.24L-55.84,-29.36L-75.39,-8.88L-77.58,-8.11L-82.57,-8.73L-83.39,-10.11L-70.43,-43.62Z" fill="#a5a393" stroke="none"/>
<path d="M-94.35,-32.82L-81.18,-51.86L-79.41,-52.13L-72.64,-46.90L-72.08,-44.90L-80.04,-24.32L-81.62,-23.77L-93.97,-31.08Z" fill="#a5a393" stroke="none"/>
<path d="M-81.70,-20.00L-85.43,-10.36L-87.19,-9.31L-90.08,-9.68L-92.15,-10.88L-100.43,-21.85L-100.48,-23.96L-96.97,-29.03L-95.11,-29.43L-82.35,-21.88Z" fill="#a5a393" stroke="none"/>
<line x1="-81.03" y1="-23.98" x2="-81.03" y2="-51.88" stroke="#a5a393" stroke-width="0.15" opacity="0.5"/>
<line x1="-82.07" y1="-24.03" x2="-82.07" y2="-50.57" stroke="#a5a393" stroke-width="0.15" opacity="0.5"/>
<line x1="-83.11" y1="-24.65" x2="-83.11" y2="-49.06" stroke="#a5a393" stroke-width="0.15" opacity="0.5"/>
<line x1="-84.15" y1="-25.27" x2="-84.15" y2="-47.56" stroke="#a5a393" stroke-width="0.15" opacity="0.5"/>
<line x1="-85.19" y1="-25.89" x2="-85.19" y2="-46.05" stroke="#a5a393" stroke-width="0.15" opacity="0.5"/>
<line x1="-86.23" y1="-26.50" x2="-86.23" y2="-44.54" stroke="#a5a393" stroke-width="0.15" opacity="0.5"/>
<line x1="-87.28" y1="-27.12" x2="-87.28" y2="-43.04" stroke="#a5a393" stroke-width="0.15" opacity="0.5"/>
<line x1="-88.32" y1="-27.74" x2="-88.32" y2="-41.53" stroke="#a5a393" stroke-width="0.15" opacity="0.5"/>
<line x1="-89.36" y1="-28.35" x2="-89.36" y2="-40.03" stroke="#a5a393" stroke-width="0.15" opacity="0.5"/>
<line x1="-90.40" y1="-28.97" x2="-90.40" y2="-38.52" stroke="#a5a393" stroke-width="0.15" opacity="0.5"/>
<line x1="-91.44" y1="-29.59" x2="-91.44" y2="-37.02" stroke="#a5a393" stroke-width="0.15" opacity="0.5"/>
<line x1="-92.48" y1="-30.20" x2="-92.48" y2="-35.51" stroke="#a5a393" stroke-width="0.15" opacity="0.5"/>
<line x1="-93.53" y1="-30.82" x2="-93.53" y2="-34.00" stroke="#a5a393" stroke-width="0.15" opacity="0.5"/>
<path d="M-82.24,-13.08L-81.72,-14.42L-79.81,-13.68L-80.32,-12.34Z" fill="#99948a" stroke="#1a1917" stroke-width="0.15"/>
<path d="M-93.20,-26.55L-92.23,-25.98L-92.87,-24.90L-93.84,-25.48Z" fill="#99948a" stroke="#1a1917" stroke-width="0.15"/>
<path d="M-30.65,24.75L-44.33,5.07L-38.39,-5.28L-24.49,-3.45L-20.06,11.10L-20.63,21.70L-30.65,24.75" fill="none" stroke="#1a1917" stroke-width="1.80" stroke-linecap="round"/>
<line x1="-20.47" y1="8.43" x2="-19.65" y2="13.76" stroke="#1a1917" stroke-width="3.60" stroke-linecap="butt"/>
<circle cx="-30.65" cy="24.75" r="2.70" fill="#1a1917"/>
<circle cx="-44.33" cy="5.07" r="2.70" fill="#1a1917"/>
<circle cx="-38.39" cy="-5.28" r="2.70" fill="#1a1917"/>
<circle cx="-24.49" cy="-3.45" r="2.70" fill="#1a1917"/>
<circle cx="-20.63" cy="21.70" r="2.70" fill="#1a1917"/>
</svg>