<svg xmlns="http://www.w3.org/2000/svg" viewBox="-149.6 -155.1 320.4 296.6">
<rect x="-149.6" y="-155.1" width="320.4" height="296.6" fill="#ccc5b8"/>
<path d="M-26.85,-17.05L-51.20,-28.40L-66.97,-37.60L-82.78,-54.48L-100.13,-59.29L-117.37,-57.14" fill="none" stroke="#67635c" stroke-width="2.15" stroke-linecap="butt"/>
<path d="M-26.85,-17.05L-51.20,-28.40L-66.97,-37.60L-82.78,-54.48L-100.13,-59.29L-117.37,-57.14" fill="none" stroke="#ccc5b8" stroke-width="1.85"/>
<path d="M21.53,-2.77L42.28,-13.26L60.23,-18.23L73.84,-15.32L89.10,-17.31L108.20,-23.36L130.29,-39.34" fill="none" stroke="#67635c" stroke-width="2.15" stroke-linecap="butt"/>
<path d="M21.53,-2.77L42.28,-13.26L60.23,-18.23L73.84,-15.32L89.10,-17.31L108.20,-23.36L130.29,-39.34" fill="none" stroke="#ccc5b8" stroke-width="1.85"/>
<path d="M-6.83,7.17L4.65,7.40L21.53,-2.77L42.28,-13.26L60.23,-18.23L73.84,-15.32L89.10,-17.31L108.20,-23.36L130.29,-39.34" fill="none" stroke="#67635c" stroke-width="2.15" stroke-linecap="butt"/>
<path d="M-6.83,7.17L4.65,7.40L21.53,-2.77L42.28,-13.26L60.23,-18.23L73.84,-15.32L89.10,-17.31L108.20,-23.36L130.29,-39.34" fill="none" stroke="#ccc5b8" stroke-width="1.85"/>
<path d="M-6.83,7.17L-8.93,-7.55L-26.85,-17.05L-51.20,-28.40L-66.97,-37.60L-82.78,-54.48L-100.13,-59.29L-117.37,-57.14" fill="none" stroke="#67635c" stroke-width="2.15" stroke-linecap="butt"/>
<path d="M-6.83,7.17L-8.93,-7.55L-26.85,-17.05L-51.20,-28.40L-66.97,-37.60L-82.78,-54.48L-100.13,-59.29L-117.37,-57.14" fill="none" stroke="#ccc5b8" stroke-width="1.85"/>
<path d="M-6.25,-0.94L-1.88,-1.56L-1.45,1.42L-5.83,2.04Z" fill="#99948a" stroke="#1a1917" stroke-width="0.15"/>
<path d="M-6.67,-6.08L-0.60,-5.13L-1.14,-1.66L-7.21,-2.61Z" fill="#99948a" stroke="#1a1917" stroke-width="0.15"/>
<path d="M0.43,0.66L5.66,2.30L4.38,6.39L-0.85,4.75Z" fill="#99948a" stroke="#1a1917" stroke-width="0.15"/>
<path d="M3.33,-4.71L2.55,0.26L0.42,-0.08L1.20,-5.04Z" fill="#99948a" stroke="#1a1917" stroke-width="0.15"/>
<path d="M4.09,-4.77L8.86,-4.02L8.25,-0.09L3.47,-0.84Z" fill="#99948a" stroke="#1a1917" stroke-width="0.15"/>
<path d="M3.29,-0.89L7.95,0.54L7.47,2.10L2.81,0.67Z" fill="#99948a" stroke="#1a1917" stroke-width="0.15"/>
<path d="M12.93,0.24L11.25,-2.55L13.00,-3.60L14.68,-0.81Z" fill="#99948a" stroke="#1a1917" stroke-width="0.15"/>
<path d="M-7.90,6.84L-11.99,7.41L-12.35,4.83L-8.26,4.26Z" fill="#99948a" stroke="#1a1917" stroke-width="0.15"/>
<path d="M-14.94,13.67L-18.57,9.93L-16.65,8.07L-13.01,11.81Z" fill="#99948a" stroke="#1a1917" stroke-width="0.15"/>
<path d="M-18.31,16.56L-19.23,12.32L-17.78,12.00L-16.86,16.25Z" fill="#99948a" stroke="#1a1917" stroke-width="0.15"/>
<path d="M-18.74,8.07L-19.96,8.44L-20.60,6.33L-19.38,5.96Z" fill="#99948a" stroke="#1a1917" stroke-width="0.15"/>
<path d="M-12.91,-1.75L-17.08,-0.68L-17.46,-2.18L-13.29,-3.24Z" fill="#99948a" stroke="#1a1917" stroke-width="0.15"/>
<path d="M-12.21,1.40L-16.62,2.53L-17.20,0.27L-12.79,-0.86Z" fill="#99948a" stroke="#1a1917" stroke-width="0.15"/>
<path d="M-12.16,1.56L-11.57,3.89L-13.50,4.38L-14.09,2.05Z" fill="#99948a" stroke="#1a1917" stroke-width="0.15"/>
<path d="M-15.61,2.39L-15.08,4.47L-16.27,4.77L-16.80,2.70Z" fill="#99948a" stroke="#1a1917" stroke-width="0.15"/>
<path d="M-14.20,2.04L-13.89,4.30L-15.01,4.46L-15.33,2.20Z" fill="#99948a" stroke="#1a1917" stroke-width="0.15"/>
<path d="M-22.04,0.10L-18.22,-1.43L-17.99,-0.85L-21.81,0.68Z" fill="#99948a" stroke="#1a1917" stroke-width="0.15"/>
<path d="M-22.31,1.37L-19.47,0.91L-19.31,1.89L-22.15,2.36Z" fill="#99948a" stroke="#1a1917" stroke-width="0.15"/>
<path d="M-19.35,1.91L-18.83,5.07L-21.47,5.50L-21.99,2.34Z" fill="#99948a" stroke="#1a1917" stroke-width="0.15"/>
<path d="M-17.74,0.64L-17.06,4.84L-18.75,5.12L-19.44,0.92Z" fill="#99948a" stroke="#1a1917" stroke-width="0.15"/>
<path d="M-11.99,-4.16L-11.24,-2.29L-12.07,-1.96L-12.82,-3.83Z" fill="#99948a" stroke="#1a1917" stroke-width="0.15"/>
<path d="M-9.71,-4.83L-9.40,-2.66L-11.18,-2.41L-11.48,-4.58Z" fill="#99948a" stroke="#1a1917" stroke-width="0.15"/>
<path d="M-10.61,3.79L-11.87,-1.14L-9.66,-1.70L-8.40,3.22Z" fill="#99948a" stroke="#1a1917" stroke-width="0.15"/>
<path d="M-22.65,-9.06L-23.27,-7.26L-24.30,-7.61L-23.68,-9.42Z" fill="#99948a" stroke="#1a1917" stroke-width="0.15"/>
<path d="M-21.95,-10.40L-24.77,-9.80L-25.18,-11.71L-22.36,-12.32Z" fill="#99948a" stroke="#1a1917" stroke-width="0.15"/>
<path d="M-13.71,-8.14L-11.23,-6.83L-12.02,-5.33L-14.50,-6.64Z" fill="#99948a" stroke="#1a1917" stroke-width="0.15"/>
<path d="M-11.52,-6.28L-11.27,-6.75L-10.12,-6.14L-10.37,-5.67Z" fill="#99948a" stroke="#1a1917" stroke-width="0.15"/>
<path d="M-15.61,-3.94L-17.98,-10.12L-16.77,-10.58L-14.41,-4.40Z" fill="#99948a" stroke="#1a1917" stroke-width="0.15"/>
<path d="M-21.90,-10.43L-21.51,-11.56L-19.40,-10.84L-19.79,-9.71Z" fill="#99948a" stroke="#1a1917" stroke-width="0.15"/>
<path d="M-20.80,-5.78L-18.45,-7.16L-17.16,-4.98L-19.52,-3.59Z" fill="#99948a" stroke="#1a1917" stroke-width="0.15"/>
<path d="M-19.43,-2.05L-19.97,-3.41L-19.23,-3.70L-18.69,-2.35Z" fill="#99948a" stroke="#1a1917" stroke-width="0.15"/>
<path d="M-16.50,-3.23L-18.67,-2.36L-19.20,-3.68L-17.03,-4.55Z" fill="#99948a" stroke="#1a1917" stroke-width="0.15"/>
<path d="M-20.22,-3.89L-22.97,-2.78L-23.59,-4.34L-20.84,-5.45Z" fill="#99948a" stroke="#1a1917" stroke-width="0.15"/>
<path d="M-19.57,-1.98L-22.52,-0.80L-23.19,-2.45L-20.24,-3.64Z" fill="#99948a" stroke="#1a1917" stroke-width="0.15"/>
<path d="M16.78,-8.07L17.24,-11.01L20.28,-10.53L19.82,-7.59Z" fill="#99948a" stroke="#1a1917" stroke-width="0.15"/>
<path d="M19.89,-3.72L16.45,-4.26L16.96,-7.50L20.40,-6.96Z" fill="#99948a" stroke="#1a1917" stroke-width="0.15"/>
<path d="M13.49,-11.70L17.01,-11.29L16.69,-8.52L13.17,-8.93Z" fill="#99948a" stroke="#1a1917" stroke-width="0.15"/>
<path d="M12.36,-4.72L13.02,-8.95L16.66,-8.38L16.00,-4.14Z" fill="#99948a" stroke="#1a1917" stroke-width="0.15"/>
<path d="M12.32,-11.72L11.30,-5.21L6.76,-5.93L7.78,-12.43Z" fill="#99948a" stroke="#1a1917" stroke-width="0.15"/>
<path d="M7.36,-18.71L11.92,-18.78L12.00,-13.14L7.44,-13.08Z" fill="#99948a" stroke="#1a1917" stroke-width="0.15"/>
<path d="M19.30,-11.82L12.61,-12.59L13.33,-18.85L20.03,-18.07Z" fill="#99948a" stroke="#1a1917" stroke-width="0.15"/>
<path d="M-7.23,-8.17L-5.23,-11.27L-4.44,-10.77L-6.44,-7.66Z" fill="#99948a" stroke="#1a1917" stroke-width="0.15"/>
<path d="M4.24,-16.52L0.67,-16.47L0.60,-21.40L4.16,-21.45Z" fill="#99948a" stroke="#1a1917" stroke-width="0.15"/>
<path d="M5.14,-13.08L-3.02,-12.97L-3.06,-15.73L5.10,-15.85Z" fill="#99948a" stroke="#1a1917" stroke-width="0.15"/>
<path d="M11.65,14.33L10.48,11.57L14.17,10.00L15.34,12.76Z" fill="#99948a" stroke="#1a1917" stroke-width="0.15"/>
<path d="M13.04,8.85L9.57,10.33L7.97,6.57L11.44,5.09Z" fill="#99948a" stroke="#1a1917" stroke-width="0.15"/>
<path d="M7.76,7.09L9.19,10.44L6.93,11.40L5.51,8.05Z" fill="#99948a" stroke="#1a1917" stroke-width="0.15"/>
<path d="M1.96,15.43L-0.05,10.71L4.66,8.71L6.67,13.43Z" fill="#99948a" stroke="#1a1917" stroke-width="0.15"/>
<path d="M-0.88,16.34L-1.72,11.22L-0.56,11.03L0.28,16.15Z" fill="#99948a" stroke="#1a1917" stroke-width="0.15"/>
<path d="M-2.14,10.58L-2.49,8.47L-1.71,8.34L-1.36,10.45Z" fill="#99948a" stroke="#1a1917" stroke-width="0.15"/>
<path d="M6.29,14.81L8.66,20.38L7.87,20.72L5.50,15.15Z" fill="#99948a" stroke="#1a1917" stroke-width="0.15"/>
<path d="M-0.66,17.11L4.03,15.11L5.76,19.17L1.07,21.17Z" fill="#99948a" stroke="#1a1917" stroke-width="0.15"/>
<path d="M-11.97,12.88L-7.35,17.08L-10.24,20.26L-14.86,16.05Z" fill="#99948a" stroke="#1a1917" stroke-width="0.15"/>
<path d="M-6.00,18.07L-3.71,20.16L-4.99,21.57L-7.29,19.48Z" fill="#99948a" stroke="#1a1917" stroke-width="0.15"/>
<path d="M-4.38,10.61L-7.41,13.95L-10.10,11.50L-7.07,8.17Z" fill="#99948a" stroke="#1a1917" stroke-width="0.15"/>
<path d="M-11.11,-20.32L-12.85,-21.35L-10.60,-25.15L-8.86,-24.12Z" fill="#99948a" stroke="#1a1917" stroke-width="0.15"/>
<path d="M-6.83,-28.37L-4.65,-23.13L-7.77,-21.83L-9.95,-27.07Z" fill="#99948a" stroke="#1a1917" stroke-width="0.15"/>
<path d="M-4.04,-21.94L-2.78,-18.91L-6.26,-17.46L-7.53,-20.49Z" fill="#99948a" stroke="#1a1917" stroke-width="0.15"/>
<path d="M-5.10,-28.54L-0.42,-30.82L0.21,-29.53L-4.47,-27.25Z" fill="#99948a" stroke="#1a1917" stroke-width="0.15"/>
<path d="M-3.11,-22.94L-4.79,-26.99L-4.12,-27.27L-2.44,-23.22Z" fill="#99948a" stroke="#1a1917" stroke-width="0.15"/>
<path d="M-2.45,-23.39L-2.61,-26.83L0.21,-26.97L0.38,-23.53Z" fill="#99948a" stroke="#1a1917" stroke-width="0.15"/>
<path d="M-11.19,-16.43L-13.18,-11.59L-18.60,-13.81L-16.61,-18.65Z" fill="#99948a" stroke="#1a1917" stroke-width="0.15"/>
<path d="M-15.36,-21.62L-10.65,-18.84L-11.72,-17.01L-16.43,-19.79Z" fill="#99948a" stroke="#1a1917" stroke-width="0.15"/>
<path d="M-11.32,-14.83L-6.93,-13.03L-8.57,-9.02L-12.96,-10.82Z" fill="#99948a" stroke="#1a1917" stroke-width="0.15"/>
<path d="M-11.42,-15.28L-10.03,-18.68L-8.30,-17.97L-9.69,-14.57Z" fill="#99948a" stroke="#1a1917" stroke-width="0.15"/>
<path d="M-9.70,-14.56L-7.92,-17.58L-6.26,-16.60L-8.04,-13.58Z" fill="#99948a" stroke="#1a1917" stroke-width="0.15"/>
<path d="M-7.84,-13.81L-6.20,-16.59L-4.49,-15.59L-6.14,-12.80Z" fill="#99948a" stroke="#1a1917" stroke-width="0.15"/>
<path d="M-20.53,-15.23L-20.14,-15.97L-18.81,-15.26L-19.20,-14.52Z" fill="#99948a" stroke="#1a1917" stroke-width="0.15"/>
<path d="M-21.16,-15.60L-23.86,-17.03L-22.98,-18.68L-20.28,-17.25Z" fill="#99948a" stroke="#1a1917" stroke-width="0.15"/>
<path d="M-17.35,-20.81L-18.76,-17.00L-20.60,-17.68L-19.20,-21.49Z" fill="#99948a" stroke="#1a1917" stroke-width="0.15"/>
<path d="M-28.41,-6.03L-27.62,-8.95L-25.49,-8.37L-26.28,-5.45Z" fill="#99948a" stroke="#1a1917" stroke-width="0.15"/>
<path d="M-24.96,-4.74L-23.83,0.48L-25.00,0.73L-26.13,-4.49Z" fill="#99948a" stroke="#1a1917" stroke-width="0.15"/>
<path d="M-26.32,-1.13L-28.93,-0.83L-29.32,-4.16L-26.70,-4.46Z" fill="#99948a" stroke="#1a1917" stroke-width="0.15"/>
<path d="M-29.69,-0.74L-25.83,-1.19L-25.60,0.79L-29.46,1.23Z" fill="#99948a" stroke="#1a1917" stroke-width="0.15"/>
<path d="M-28.72,4.47L-29.21,2.00L-27.07,1.57L-26.57,4.05Z" fill="#99948a" stroke="#1a1917" stroke-width="0.15"/>
<path d="M-25.54,1.40L-25.22,4.12L-26.55,4.27L-26.86,1.55Z" fill="#99948a" stroke="#1a1917" stroke-width="0.15"/>
<path d="M-28.22,5.07L-25.48,4.75L-25.32,6.12L-28.07,6.44Z" fill="#99948a" stroke="#1a1917" stroke-width="0.15"/>
<path d="M-27.19,6.37L-25.46,6.17L-25.31,7.50L-27.04,7.70Z" fill="#99948a" stroke="#1a1917" stroke-width="0.15"/>
<path d="M-22.36,6.78L-24.76,7.30L-24.97,6.33L-22.57,5.81Z" fill="#99948a" stroke="#1a1917" stroke-width="0.15"/>
<path d="M-23.60,1.33L-22.67,5.63L-24.57,6.04L-25.50,1.74Z" fill="#99948a" stroke="#1a1917" stroke-width="0.15"/>
<path d="M5.21,-22.91L1.76,-23.71L2.34,-26.22L5.80,-25.42Z" fill="#99948a" stroke="#1a1917" stroke-width="0.15"/>
<path d="M6.77,-26.37L6.24,-22.89L5.92,-22.94L6.44,-26.42Z" fill="#99948a" stroke="#1a1917" stroke-width="0.15"/>
<path d="M1.78,-27.40L1.58,-31.50L3.30,-31.58L3.49,-27.48Z" fill="#99948a" stroke="#1a1917" stroke-width="0.15"/>
<path d="M4.19,-27.73L4.92,-30.68L7.64,-30.00L6.91,-27.05Z" fill="#99948a" stroke="#1a1917" stroke-width="0.15"/>
<path d="M13.38,-23.62L12.72,-20.79L11.05,-21.18L11.70,-24.00Z" fill="#99948a" stroke="#1a1917" stroke-width="0.15"/>
<path d="M15.88,-22.81L15.05,-20.30L12.78,-21.05L13.61,-23.56Z" fill="#99948a" stroke="#1a1917" stroke-width="0.15"/>
<path d="M14.83,-26.04L13.19,-26.42L13.72,-28.70L15.36,-28.32Z" fill="#99948a" stroke="#1a1917" stroke-width="0.15"/>
<path d="M10.77,-25.11L7.11,-25.95L7.69,-28.43L11.34,-27.59Z" fill="#99948a" stroke="#1a1917" stroke-width="0.15"/>
<path d="M12.44,-27.65L11.79,-24.87L10.97,-25.06L11.61,-27.84Z" fill="#99948a" stroke="#1a1917" stroke-width="0.15"/>
<path d="M7.30,-25.77L11.73,-24.74L10.92,-21.24L6.49,-22.27Z" fill="#99948a" stroke="#1a1917" stroke-width="0.15"/>
<path d="M7.80,-30.22L12.56,-29.03L12.24,-27.75L7.48,-28.94Z" fill="#99948a" stroke="#1a1917" stroke-width="0.15"/>
<path d="M34.70,-14.77L36.51,-14.34L35.75,-11.20L33.95,-11.63Z" fill="#99948a" stroke="#1a1917" stroke-width="0.15"/>
<path d="M25.80,-6.96L23.37,-11.76L24.50,-12.34L26.94,-7.53Z" fill="#99948a" stroke="#1a1917" stroke-width="0.15"/>
<path d="M32.93,-10.21L27.99,-7.71L26.29,-11.07L31.23,-13.57Z" fill="#99948a" stroke="#1a1917" stroke-width="0.15"/>
<path d="M24.99,-5.85L23.18,-4.94L22.41,-6.45L24.22,-7.36Z" fill="#99948a" stroke="#1a1917" stroke-width="0.15"/>
<path d="M22.20,-12.89L22.08,-16.49L26.87,-16.65L26.99,-13.04Z" fill="#99948a" stroke="#1a1917" stroke-width="0.15"/>
<path d="M27.91,-4.58L28.52,-2.76L26.79,-2.18L26.18,-4.00Z" fill="#99948a" stroke="#1a1917" stroke-width="0.15"/>
<path d="M26.72,-2.26L23.53,-1.20L23.11,-2.45L26.30,-3.51Z" fill="#99948a" stroke="#1a1917" stroke-width="0.15"/>
<path d="M25.83,-0.85L26.60,2.43L24.30,2.97L23.54,-0.32Z" fill="#99948a" stroke="#1a1917" stroke-width="0.15"/>
<path d="M23.05,9.29L19.86,9.63L19.70,8.16L22.89,7.82Z" fill="#99948a" stroke="#1a1917" stroke-width="0.15"/>
<path d="M45.82,-43.03L55.30,-40.36L56.77,-38.72L60.02,-19.51L58.98,-17.88L43.53,-13.61L41.01,-13.57L31.85,-15.76L31.18,-17.22L43.98,-42.23Z" fill="#a5a393" stroke="none"/>
<path d="M27.32,-16.85L22.29,-18.05L20.48,-19.54L16.48,-28.27L16.92,-30.30L34.06,-45.23L36.29,-45.73L41.36,-44.30L42.02,-42.78L29.18,-17.70Z" fill="#a5a393" stroke="none"/>
<line x1="41.76" y1="-43.37" x2="31.93" y2="-43.37" stroke="#a5a393" stroke-width="0.15" opacity="0.5"/>
<line x1="41.73" y1="-42.23" x2="30.62" y2="-42.23" stroke="#a5a393" stroke-width="0.15" opacity="0.5"/>
<line x1="41.15" y1="-41.09" x2="29.31" y2="-41.09" stroke="#a5a393" stroke-width="0.15" opacity="0.5"/>
<line x1="40.57" y1="-39.95" x2="28.00" y2="-39.95" stroke="#a5a393" stroke-width="0.15" opacity="0.5"/>
<line x1="39.98" y1="-38.80" x2="26.69" y2="-38.80" stroke="#a5a393" stroke-width="0.15" opacity="0.5"/>
<line x1="39.40" y1="-37.66" x2="25.38" y2="-37.66" stroke="#a5a393" stroke-width="0.15" opacity="0.5"/>
<line x1="38.81" y1="-36.52" x2="24.07" y2="-36.52" stroke="#a5a393" stroke-width="0.15" opacity="0.5"/>
<line x1="38.23" y1="-35.38" x2="22.75" y2="-35.38" stroke="#a5a393" stroke-width="0.15" opacity="0.5"/>
<line x1="37.64" y1="-34.24" x2="21.44" y2="-34.24" stroke="#a5a393" stroke-width="0.15" opacity="0.5"/>
<line x1="36.47" y1="-31.95" x2="18.82" y2="-31.95" stroke="#a5a393" stroke-width="0.15" opacity="0.5"/>
<line x1="35.31" y1="-29.67" x2="16.79" y2="-29.67" stroke="#a5a393" stroke-width="0.15" opacity="0.5"/>
<line x1="34.14" y1="-27.39" x2="16.89" y2="-27.39" stroke="#a5a393" stroke-width="0.15" opacity="0.5"/>
<line x1="32.97" y1="-25.11" x2="17.93" y2="-25.11" stroke="#a5a393" stroke-width="0.15" opacity="0.5"/>
<line x1="31.80" y1="-22.82" x2="18.98" y2="-22.82" stroke="#a5a393" stroke-width="0.15" opacity="0.5"/>
<line x1="30.63" y1="-20.54" x2="20.02" y2="-20.54" stroke="#a5a393" stroke-width="0.15" opacity="0.5"/>
<path d="M34.21,-20.63L35.40,-20.02L34.36,-18.00L33.17,-18.60Z" fill="#99948a" stroke="#1a1917" stroke-width="0.15"/>
<path d="M25.86,-63.91L27.03,-62.79L34.48,-47.25L34.06,-45.23L16.92,-30.30L14.68,-29.76L8.61,-31.28L7.98,-32.73L24.62,-62.73Z" fill="#a5a393" stroke="none"/>
<path d="M4.08,-32.41L1.79,-32.99L0.40,-34.60L-1.55,-54.74L-1.25,-57.26L0.01,-60.85L1.73,-62.17L21.57,-63.60L22.23,-62.56L5.97,-33.23Z" fill="#a5a393" stroke="none"/>
<line x1="21.93" y1="-62.00" x2="21.14" y2="-63.57" stroke="#a5a393" stroke-width="0.15" opacity="0.5"/>
<line x1="21.30" y1="-60.88" x2="19.99" y2="-63.49" stroke="#a5a393" stroke-width="0.15" opacity="0.5"/>
<line x1="20.67" y1="-59.75" x2="18.84" y2="-63.41" stroke="#a5a393" stroke-width="0.15" opacity="0.5"/>
<line x1="20.05" y1="-58.62" x2="20.05" y2="-63.49" stroke="#a5a393" stroke-width="0.15" opacity="0.5"/>
<line x1="18.80" y1="-56.36" x2="18.80" y2="-63.40" stroke="#a5a393" stroke-width="0.15" opacity="0.5"/>
<line x1="18.17" y1="-55.23" x2="18.17" y2="-63.36" stroke="#a5a393" stroke-width="0.15" opacity="0.5"/>
<line x1="17.55" y1="-54.10" x2="17.55" y2="-63.31" stroke="#a5a393" stroke-width="0.15" opacity="0.5"/>
<line x1="16.92" y1="-52.98" x2="11.95" y2="-62.91" stroke="#a5a393" stroke-width="0.15" opacity="0.5"/>
<line x1="16.29" y1="-51.85" x2="10.81" y2="-62.83" stroke="#a5a393" stroke-width="0.15" opacity="0.5"/>
<line x1="15.67" y1="-50.72" x2="9.66" y2="-62.74" stroke="#a5a393" stroke-width="0.15" opacity="0.5"/>
<line x1="15.04" y1="-49.59" x2="-1.05" y2="-49.59" stroke="#a5a393" stroke-width="0.15" opacity="0.5"/>
<line x1="14.42" y1="-48.46" x2="-0.95" y2="-48.46" stroke="#a5a393" stroke-width="0.15" opacity="0.5"/>
<line x1="13.79" y1="-47.33" x2="-0.84" y2="-47.33" stroke="#a5a393" stroke-width="0.15" opacity="0.5"/>
<line x1="13.17" y1="-46.20" x2="-0.73" y2="-46.20" stroke="#a5a393" stroke-width="0.15" opacity="0.5"/>
<line x1="12.54" y1="-45.08" x2="-0.62" y2="-45.08" stroke="#a5a393" stroke-width="0.15" opacity="0.5"/>
<line x1="9.41" y1="-39.43" x2="-0.07" y2="-39.43" stroke="#a5a393" stroke-width="0.15" opacity="0.5"/>
<line x1="8.79" y1="-38.30" x2="0.04" y2="-38.30" stroke="#a5a393" stroke-width="0.15" opacity="0.5"/>
<line x1="8.16" y1="-37.18" x2="0.15" y2="-37.18" stroke="#a5a393" stroke-width="0.15" opacity="0.5"/>
<line x1="7.53" y1="-36.05" x2="1.12" y2="-61.70" stroke="#a5a393" stroke-width="0.15" opacity="0.5"/>
<line x1="6.91" y1="-34.92" x2="6.91" y2="-62.54" stroke="#a5a393" stroke-width="0.15" opacity="0.5"/>
<line x1="6.28" y1="-33.79" x2="6.28" y2="-62.50" stroke="#a5a393" stroke-width="0.15" opacity="0.5"/>
<line x1="5.66" y1="-33.10" x2="5.66" y2="-62.45" stroke="#a5a393" stroke-width="0.15" opacity="0.5"/>
<path d="M19.70,-62.35L20.38,-63.59L22.23,-62.56L21.55,-61.32Z" fill="#99948a" stroke="#1a1917" stroke-width="0.15"/>
<path d="M84.49,-58.20L85.73,-57.02L88.99,-18.61L87.81,-17.14L82.49,-16.45L81.27,-17.58L83.29,-56.79Z" fill="#a5a393" stroke="none"/>
<path d="M57.31,-35.52L56.77,-38.72L57.29,-41.07L67.27,-55.48L69.31,-56.68L80.05,-57.76L81.28,-56.59L80.13,-34.37L78.77,-33.14L58.82,-34.17Z" fill="#a5a393" stroke="none"/>
<path d="M79.90,-29.78L79.25,-17.32L77.90,-15.85L75.13,-15.49L72.57,-15.59L61.51,-17.96L60.02,-19.51L58.08,-30.94L59.17,-32.15L78.67,-31.15Z" fill="#a5a393" stroke="none"/>
<line x1="81.99" y1="-16.91" x2="86.06" y2="-16.91" stroke="#a5a393" stroke-width="0.15" opacity="0.5"/>
<line x1="81.30" y1="-18.18" x2="88.65" y2="-18.18" stroke="#a5a393" stroke-width="0.15" opacity="0.5"/>
<line x1="81.37" y1="-19.45" x2="88.92" y2="-19.45" stroke="#a5a393" stroke-width="0.15" opacity="0.5"/>
<line x1="81.43" y1="-20.72" x2="88.81" y2="-20.72" stroke="#a5a393" stroke-width="0.15" opacity="0.5"/>
<line x1="81.50" y1="-21.98" x2="88.71" y2="-21.98" stroke="#a5a393" stroke-width="0.15" opacity="0.5"/>
<line x1="81.56" y1="-23.25" x2="88.60" y2="-23.25" stroke="#a5a393" stroke-width="0.15" opacity="0.5"/>
<line x1="81.63" y1="-24.52" x2="88.49" y2="-24.52" stroke="#a5a393" stroke-width="0.15" opacity="0.5"/>
<line x1="81.69" y1="-25.78" x2="88.38" y2="-25.78" stroke="#a5a393" stroke-width="0.15" opacity="0.5"/>
<line x1="81.76" y1="-27.05" x2="88.27" y2="-27.05" stroke="#a5a393" stroke-width="0.15" opacity="0.5"/>
<line x1="81.82" y1="-28.32" x2="88.17" y2="-28.32" stroke="#a5a393" stroke-width="0.15" opacity="0.5"/>
<line x1="81.89" y1="-29.58" x2="88.06" y2="-29.58" stroke="#a5a393" stroke-width="0.15" opacity="0.5"/>
<line x1="81.95" y1="-30.85" x2="87.95" y2="-30.85" stroke="#a5a393" stroke-width="0.15" opacity="0.5"/>
<line x1="82.02" y1="-32.12" x2="87.84" y2="-32.12" stroke="#a5a393" stroke-width="0.15" opacity="0.5"/>
<line x1="82.09" y1="-33.38" x2="87.74" y2="-33.38" stroke="#a5a393" stroke-width="0.15" opacity="0.5"/>
<line x1="82.15" y1="-34.65" x2="87.63" y2="-34.65" stroke="#a5a393" stroke-width="0.15" opacity="0.5"/>
<line x1="82.22" y1="-35.92" x2="87.52" y2="-35.92" stroke="#a5a393" stroke-width="0.15" opacity="0.5"/>
<line x1="82.28" y1="-37.19" x2="87.41" y2="-37.19" stroke="#a5a393" stroke-width="0.15" opacity="0.5"/>
<line x1="82.35" y1="-38.45" x2="87.30" y2="-38.45" stroke="#a5a393" stroke-width="0.15" opacity="0.5"/>
<line x1="82.41" y1="-39.72" x2="87.20" y2="-39.72" stroke="#a5a393" stroke-width="0.15" opacity="0.5"/>
<line x1="82.48" y1="-40.99" x2="87.09" y2="-40.99" stroke="#a5a393" stroke-width="0.15" opacity="0.5"/>
<line x1="82.54" y1="-42.25" x2="86.98" y2="-42.25" stroke="#a5a393" stroke-width="0.15" opacity="0.5"/>
<line x1="82.61" y1="-43.52" x2="86.87" y2="-43.52" stroke="#a5a393" stroke-width="0.15" opacity="0.5"/>
<line x1="82.67" y1="-44.79" x2="86.77" y2="-44.79" stroke="#a5a393" stroke-width="0.15" opacity="0.5"/>
<line x1="82.74" y1="-46.05" x2="86.66" y2="-46.05" stroke="#a5a393" stroke-width="0.15" opacity="0.5"/>
<line x1="82.80" y1="-47.32" x2="86.55" y2="-47.32" stroke="#a5a393" stroke-width="0.15" opacity="0.5"/>
<line x1="82.87" y1="-48.59" x2="86.44" y2="-48.59" stroke="#a5a393" stroke-width="0.15" opacity="0.5"/>
<line x1="82.93" y1="-49.86" x2="86.33" y2="-49.86" stroke="#a5a393" stroke-width="0.15" opacity="0.5"/>
<line x1="83.00" y1="-51.12" x2="86.23" y2="-51.12" stroke="#a5a393" stroke-width="0.15" opacity="0.5"/>
<line x1="83.07" y1="-52.39" x2="86.12" y2="-52.39" stroke="#a5a393" stroke-width="0.15" opacity="0.5"/>
<line x1="83.13" y1="-53.66" x2="86.01" y2="-53.66" stroke="#a5a393" stroke-width="0.15" opacity="0.5"/>
<line x1="83.20" y1="-54.92" x2="85.90" y2="-54.92" stroke="#a5a393" stroke-width="0.15" opacity="0.5"/>
<line x1="83.26" y1="-56.19" x2="85.80" y2="-56.19" stroke="#a5a393" stroke-width="0.15" opacity="0.5"/>
<line x1="83.86" y1="-57.46" x2="85.27" y2="-57.46" stroke="#a5a393" stroke-width="0.15" opacity="0.5"/>
<line x1="58.48" y1="-31.38" x2="58.48" y2="-28.59" stroke="#a5a393" stroke-width="0.15" opacity="0.5"/>
<line x1="59.71" y1="-32.12" x2="59.71" y2="-21.34" stroke="#a5a393" stroke-width="0.15" opacity="0.5"/>
<line x1="60.94" y1="-32.06" x2="60.94" y2="-18.55" stroke="#a5a393" stroke-width="0.15" opacity="0.5"/>
<line x1="62.16" y1="-32.00" x2="62.16" y2="-17.82" stroke="#a5a393" stroke-width="0.15" opacity="0.5"/>
<line x1="63.39" y1="-31.93" x2="63.39" y2="-17.56" stroke="#a5a393" stroke-width="0.15" opacity="0.5"/>
<line x1="64.62" y1="-31.87" x2="64.62" y2="-17.29" stroke="#a5a393" stroke-width="0.15" opacity="0.5"/>
<line x1="65.85" y1="-31.81" x2="65.85" y2="-17.03" stroke="#a5a393" stroke-width="0.15" opacity="0.5"/>
<line x1="67.07" y1="-31.74" x2="67.07" y2="-16.77" stroke="#a5a393" stroke-width="0.15" opacity="0.5"/>
<line x1="68.30" y1="-31.68" x2="68.30" y2="-16.51" stroke="#a5a393" stroke-width="0.15" opacity="0.5"/>
<line x1="69.53" y1="-31.62" x2="69.53" y2="-16.24" stroke="#a5a393" stroke-width="0.15" opacity="0.5"/>
<line x1="70.76" y1="-31.55" x2="70.76" y2="-15.98" stroke="#a5a393" stroke-width="0.15" opacity="0.5"/>
<line x1="71.98" y1="-31.49" x2="71.98" y2="-15.72" stroke="#a5a393" stroke-width="0.15" opacity="0.5"/>
<line x1="73.21" y1="-31.43" x2="73.21" y2="-15.57" stroke="#a5a393" stroke-width="0.15" opacity="0.5"/>
<line x1="74.44" y1="-31.36" x2="74.44" y2="-15.52" stroke="#a5a393" stroke-width="0.15" opacity="0.5"/>
<line x1="75.67" y1="-31.30" x2="75.67" y2="-15.56" stroke="#a5a393" stroke-width="0.15" opacity="0.5"/>
<line x1="76.90" y1="-31.24" x2="76.90" y2="-15.72" stroke="#a5a393" stroke-width="0.15" opacity="0.5"/>
<line x1="78.12" y1="-31.17" x2="78.12" y2="-16.09" stroke="#a5a393" stroke-width="0.15" opacity="0.5"/>
<line x1="79.35" y1="-30.39" x2="79.35" y2="-19.18" stroke="#a5a393" stroke-width="0.15" opacity="0.5"/>
<path d="M84.48,-54.93L85.81,-54.86L85.69,-52.47L84.36,-52.54Z" fill="#99948a" stroke="#1a1917" stroke-width="0.15"/>
<path d="M21.02,-18.35L21.53,-2.77L18.05,10.51L10.66,21.54L-5.08,22.58L-19.05,19.08L-29.47,6.30L-31.05,-1.60L-26.85,-17.05L-15.52,-25.47L0.52,-33.30L15.94,-29.45L21.02,-18.35" fill="none" stroke="#1a1917" stroke-width="1.80" stroke-linecap="round"/>
<line x1="-28.32" y1="-14.79" x2="-25.38" y2="-19.32" stroke="#1a1917" stroke-width="3.60" stroke-linecap="butt"/>
<line x1="21.81" y1="-5.46" x2="21.26" y2="-0.08" stroke="#1a1917" stroke-width="3.60" stroke-linecap="butt"/>
<circle cx="21.02" cy="-18.35" r="1.80" fill="#1a1917"/>
<circle cx="18.05" cy="10.51" r="1.80" fill="#1a1917"/>
<circle cx="10.66" cy="21.54" r="1.80" fill="#1a1917"/>
<circle cx="-5.08" cy="22.58" r="1.80" fill="#1a1917"/>
<circle cx="-19.05" cy="19.08" r="1.80" fill="#1a1917"/>
<circle cx="-29.47" cy="6.30" r="1.80" fill="#1a1917"/>
<circle cx="-31.05" cy="-1.60" r="1.80" fill="#1a1917"/>
<circle cx="-15.52" cy="-25.47" r="1.80" fill="#1a1917"/>
<circle cx="0.52" cy="-33.30" r="1.80" fill="#1a1917"/>
<circle cx="15.94" cy="-29.45" r="1.80" fill="#1a1917"/>
</svg>