<svg xmlns="http://www.w3.org/2000/svg" viewBox="0 0 64 64"><g data-green-biome="tundra"><path d="M58.67,32.42 Q58.02,33.16 56.8,34.27 Q55.59,35.38 53.84,36.86 Q52.08,38.34 49.55,39.36 Q47.01,40.38 44.01,40.66 Q41.01,40.93 38.02,41.2 Q35.03,41.47 31.96,41.34 Q28.89,41.22 25.62,41.08 Q22.35,40.94 19.21,40.5 Q16.06,40.06 13.73,39.1 Q11.39,38.13 9.97,37.21 Q8.54,36.29 7.76,35.17 Q6.98,34.05 6.62,32.97 Q6.27,31.88 6.47,31.38 Q6.68,30.87 7.55,29.18 Q8.43,27.5 10.32,26.68 Q12.22,25.86 14.53,25.06 Q16.84,24.26 19.59,23.67 Q22.34,23.09 25.48,21.8 Q28.62,20.51 31.94,20.79 Q35.27,21.06 38.2,21.62 Q41.14,22.17 43.73,22.81 Q46.33,23.44 48.71,24.85 Q51.1,26.26 53.33,27.54 Q55.57,28.81 57.15,29.69 Q58.73,30.56 59.02,31.12 Q59.32,31.68 58.67,32.42 Z" fill="var(--sm-green-tundra-turf, #bdc6bc)" stroke="var(--sm-green-tundra-edge, #949f97)" stroke-width="0.45" stroke-linejoin="round"/><defs><clipPath id="green-sm-green-lens-a--tundra"><path d="M58.67,32.42 Q58.02,33.16 56.8,34.27 Q55.59,35.38 53.84,36.86 Q52.08,38.34 49.55,39.36 Q47.01,40.38 44.01,40.66 Q41.01,40.93 38.02,41.2 Q35.03,41.47 31.96,41.34 Q28.89,41.22 25.62,41.08 Q22.35,40.94 19.21,40.5 Q16.06,40.06 13.73,39.1 Q11.39,38.13 9.97,37.21 Q8.54,36.29 7.76,35.17 Q6.98,34.05 6.62,32.97 Q6.27,31.88 6.47,31.38 Q6.68,30.87 7.55,29.18 Q8.43,27.5 10.32,26.68 Q12.22,25.86 14.53,25.06 Q16.84,24.26 19.59,23.67 Q22.34,23.09 25.48,21.8 Q28.62,20.51 31.94,20.79 Q35.27,21.06 38.2,21.62 Q41.14,22.17 43.73,22.81 Q46.33,23.44 48.71,24.85 Q51.1,26.26 53.33,27.54 Q55.57,28.81 57.15,29.69 Q58.73,30.56 59.02,31.12 Q59.32,31.68 58.67,32.42 Z"/></clipPath></defs><g clip-path="url(#green-sm-green-lens-a--tundra)"><path d="M-0.5,14.72q0.5,-0.4 1,0" fill="none" stroke="var(--sm-green-tundra-edge, #949f97)" stroke-width="0.22" stroke-linecap="round" opacity=".58"/><path d="M38.884,41.23q0.67,-0.536 1.34,0" fill="none" stroke="var(--sm-green-tundra-light, #e4e9e2)" stroke-width="0.22" stroke-linecap="round" opacity=".58"/><path d="M14.268,3.739q0.84,-0.672 1.68,0" fill="none" stroke="var(--sm-green-tundra-light, #e4e9e2)" stroke-width="0.22" stroke-linecap="round" opacity=".58"/><path d="M54.163,30.249q0.5,-0.4 1,0" fill="none" stroke="var(--sm-green-tundra-edge, #949f97)" stroke-width="0.22" stroke-linecap="round" opacity=".58"/><path d="M29.547,56.759q0.67,-0.536 1.34,0" fill="none" stroke="var(--sm-green-tundra-light, #e4e9e2)" stroke-width="0.22" stroke-linecap="round" opacity=".58"/><path d="M4.931,19.268q0.84,-0.672 1.68,0" fill="none" stroke="var(--sm-green-tundra-light, #e4e9e2)" stroke-width="0.22" stroke-linecap="round" opacity=".58"/><path d="M44.825,45.778q0.5,-0.4 1,0" fill="none" stroke="var(--sm-green-tundra-edge, #949f97)" stroke-width="0.22" stroke-linecap="round" opacity=".58"/><path d="M20.209,8.288q0.67,-0.536 1.34,0" fill="none" stroke="var(--sm-green-tundra-light, #e4e9e2)" stroke-width="0.22" stroke-linecap="round" opacity=".58"/><path d="M59.593,34.797q0.84,-0.672 1.68,0" fill="none" stroke="var(--sm-green-tundra-light, #e4e9e2)" stroke-width="0.22" stroke-linecap="round" opacity=".58"/><path d="M35.488,61.307q0.5,-0.4 1,0" fill="none" stroke="var(--sm-green-tundra-edge, #949f97)" stroke-width="0.22" stroke-linecap="round" opacity=".58"/><path d="M10.872,23.817q0.67,-0.536 1.34,0" fill="none" stroke="var(--sm-green-tundra-light, #e4e9e2)" stroke-width="0.22" stroke-linecap="round" opacity=".58"/><path d="M50.256,50.326q0.84,-0.672 1.68,0" fill="none" stroke="var(--sm-green-tundra-light, #e4e9e2)" stroke-width="0.22" stroke-linecap="round" opacity=".58"/><path d="M26.15,12.836q0.5,-0.4 1,0" fill="none" stroke="var(--sm-green-tundra-edge, #949f97)" stroke-width="0.22" stroke-linecap="round" opacity=".58"/><path d="M1.534,39.346q0.67,-0.536 1.34,0" fill="none" stroke="var(--sm-green-tundra-light, #e4e9e2)" stroke-width="0.22" stroke-linecap="round" opacity=".58"/><path d="M40.918,1.855q0.84,-0.672 1.68,0" fill="none" stroke="var(--sm-green-tundra-light, #e4e9e2)" stroke-width="0.22" stroke-linecap="round" opacity=".58"/><path d="M16.813,28.365q0.5,-0.4 1,0" fill="none" stroke="var(--sm-green-tundra-edge, #949f97)" stroke-width="0.22" stroke-linecap="round" opacity=".58"/><path d="M56.197,54.875q0.67,-0.536 1.34,0" fill="none" stroke="var(--sm-green-tundra-light, #e4e9e2)" stroke-width="0.22" stroke-linecap="round" opacity=".58"/><path d="M31.581,17.384q0.84,-0.672 1.68,0" fill="none" stroke="var(--sm-green-tundra-light, #e4e9e2)" stroke-width="0.22" stroke-linecap="round" opacity=".58"/><path d="M7.475,43.894q0.5,-0.4 1,0" fill="none" stroke="var(--sm-green-tundra-edge, #949f97)" stroke-width="0.22" stroke-linecap="round" opacity=".58"/><path d="M46.859,6.404q0.67,-0.536 1.34,0" fill="none" stroke="var(--sm-green-tundra-light, #e4e9e2)" stroke-width="0.22" stroke-linecap="round" opacity=".58"/><path d="M22.244,32.913q0.84,-0.672 1.68,0" fill="none" stroke="var(--sm-green-tundra-light, #e4e9e2)" stroke-width="0.22" stroke-linecap="round" opacity=".58"/><path d="M62.138,59.423q0.5,-0.4 1,0" fill="none" stroke="var(--sm-green-tundra-edge, #949f97)" stroke-width="0.22" stroke-linecap="round" opacity=".58"/><path d="M37.522,21.933q0.67,-0.536 1.34,0" fill="none" stroke="var(--sm-green-tundra-light, #e4e9e2)" stroke-width="0.22" stroke-linecap="round" opacity=".58"/><path d="M12.906,48.442q0.84,-0.672 1.68,0" fill="none" stroke="var(--sm-green-tundra-light, #e4e9e2)" stroke-width="0.22" stroke-linecap="round" opacity=".58"/><path d="M52.8,10.952q0.5,-0.4 1,0" fill="none" stroke="var(--sm-green-tundra-edge, #949f97)" stroke-width="0.22" stroke-linecap="round" opacity=".58"/><path d="M28.184,37.462q0.67,-0.536 1.34,0" fill="none" stroke="var(--sm-green-tundra-light, #e4e9e2)" stroke-width="0.22" stroke-linecap="round" opacity=".58"/><path d="M3.569,63.971q0.84,-0.672 1.68,0" fill="none" stroke="var(--sm-green-tundra-light, #e4e9e2)" stroke-width="0.22" stroke-linecap="round" opacity=".58"/><path d="M43.463,26.481q0.5,-0.4 1,0" fill="none" stroke="var(--sm-green-tundra-edge, #949f97)" stroke-width="0.22" stroke-linecap="round" opacity=".58"/><path d="M18.847,52.991q0.67,-0.536 1.34,0" fill="none" stroke="var(--sm-green-tundra-light, #e4e9e2)" stroke-width="0.22" stroke-linecap="round" opacity=".58"/><path d="M58.231,15.5q0.84,-0.672 1.68,0" fill="none" stroke="var(--sm-green-tundra-light, #e4e9e2)" stroke-width="0.22" stroke-linecap="round" opacity=".58"/><path d="M34.125,42.01q0.5,-0.4 1,0" fill="none" stroke="var(--sm-green-tundra-edge, #949f97)" stroke-width="0.22" stroke-linecap="round" opacity=".58"/><path d="M9.509,4.52q0.67,-0.536 1.34,0" fill="none" stroke="var(--sm-green-tundra-light, #e4e9e2)" stroke-width="0.22" stroke-linecap="round" opacity=".58"/><path d="M48.894,31.029q0.84,-0.672 1.68,0" fill="none" stroke="var(--sm-green-tundra-light, #e4e9e2)" stroke-width="0.22" stroke-linecap="round" opacity=".58"/><path d="M24.788,57.539q0.5,-0.4 1,0" fill="none" stroke="var(--sm-green-tundra-edge, #949f97)" stroke-width="0.22" stroke-linecap="round" opacity=".58"/><path d="M0.172,20.049q0.67,-0.536 1.34,0" fill="none" stroke="var(--sm-green-tundra-light, #e4e9e2)" stroke-width="0.22" stroke-linecap="round" opacity=".58"/><path d="M39.556,46.558q0.84,-0.672 1.68,0" fill="none" stroke="var(--sm-green-tundra-light, #e4e9e2)" stroke-width="0.22" stroke-linecap="round" opacity=".58"/></g></g></svg>
