<svg xmlns="http://www.w3.org/2000/svg" viewBox="0 0 64 64" width="64" height="64"><title>sm flora treeline spruce b  tundra</title><path d="M40.54,31.14 L52.05,34.46 L40.07,34.54 L39.75,35.37 L48.63,43.38 L37.84,38.22 L36.71,40.17 L40.09,52.67 L33.31,41.64 L30.03,41.61 L24.92,53.16 L26.55,40.63 L23.92,39.41 L12.42,45.92 L21.6,36.42 L21.35,34.32 L8.85,33.76 L21,30.75 L21.47,30.07 L10.78,24.53 L22.6,26.82 L24.11,25.98 L18.19,16.63 L26.51,23.92 L27.88,21.73 L28.13,8.84 L31.54,21.27 L34.15,23.25 L41.22,14.65 L36.87,24.9 L39.62,25.17 L52.41,21.04 L41.31,28.63Z" fill="var(--sm-landscape-tundra-dark, #627870)" stroke="var(--sm-ink, #33262e)" stroke-width="0.7" stroke-linecap="round" stroke-linejoin="round" /><path d="M30.97,31.56l18,0" fill="none" stroke="var(--sm-landscape-tundra-dark, #627870)" stroke-width="0.25" stroke-linecap="round" stroke-linejoin="round" /><path d="M30.97,31.56l-2.56,17.82" fill="none" stroke="var(--sm-landscape-tundra-dark, #627870)" stroke-width="0.25" stroke-linecap="round" stroke-linejoin="round" /><path d="M30.97,31.56l-17.27,-5.07" fill="none" stroke="var(--sm-landscape-tundra-dark, #627870)" stroke-width="0.25" stroke-linecap="round" stroke-linejoin="round" /><path d="M30.97,31.56l7.47,-16.37" fill="none" stroke="var(--sm-landscape-tundra-dark, #627870)" stroke-width="0.25" stroke-linecap="round" stroke-linejoin="round" /><path d="M37.73,30.36 L46.23,31.62 L37.72,32.81 L37.2,34.64 L43.36,40.77 L35.71,36.63 L34.45,38.27 L35.9,47.61 L31.86,39.06 L29.59,39.08 L24.96,47.45 L27.03,38.11 L25.9,35.74 L18.22,38.68 L24.75,33.68 L24.01,32.53 L15.36,30.91 L24.11,30.01 L25.08,27.42 L19.73,20.16 L26.91,25.6 L27.82,25.02 L26.69,16 L30.33,24.33 L32.54,24.51 L37.19,16.78 L34.92,25.52 L35.74,27.08 L43.17,23.67 L37.01,29.05Z" fill="var(--sm-landscape-tundra-leaf, #8c9d81)" stroke="var(--sm-ink, #33262e)" stroke-width="0" stroke-linecap="round" stroke-linejoin="round" /><path d="M30.97,31.56l12.96,0" fill="none" stroke="var(--sm-landscape-tundra-dark, #627870)" stroke-width="0.25" stroke-linecap="round" stroke-linejoin="round" /><path d="M30.97,31.56l-4,12.33" fill="none" stroke="var(--sm-landscape-tundra-dark, #627870)" stroke-width="0.25" stroke-linecap="round" stroke-linejoin="round" /><path d="M30.97,31.56l-10.49,-7.62" fill="none" stroke="var(--sm-landscape-tundra-dark, #627870)" stroke-width="0.25" stroke-linecap="round" stroke-linejoin="round" /><path d="M30.97,31.56l10.48,-7.62" fill="none" stroke="var(--sm-landscape-tundra-dark, #627870)" stroke-width="0.25" stroke-linecap="round" stroke-linejoin="round" /><path d="M35.73,31.37 L41.44,33.03 L35.49,33.05 L34.9,34.01 L38.58,38.47 L33.78,35.23 L32.2,36.22 L31.81,42.24 L30.48,36.35 L29.01,35.48 L25.12,39.35 L27.75,34.54 L26.98,33.08 L21.64,33.29 L26.7,31.57 L27.18,30.77 L22.98,28.33 L27.7,29.49 L28.44,27.92 L26.87,22.6 L29.88,27.26 L31.11,26.93 L33.11,21.5 L32.73,27.28 L33.9,28.09 L38.74,25.15 L34.93,29.35Z" fill="var(--sm-landscape-tundra-light, #bdc4a2)" stroke="var(--sm-ink, #33262e)" stroke-width="0" stroke-linecap="round" stroke-linejoin="round" /><path d="M30.97,31.56l7.92,0" fill="none" stroke="var(--sm-landscape-tundra-dark, #627870)" stroke-width="0.25" stroke-linecap="round" stroke-linejoin="round" /><path d="M30.97,31.56l-3.96,6.86" fill="none" stroke="var(--sm-landscape-tundra-dark, #627870)" stroke-width="0.25" stroke-linecap="round" stroke-linejoin="round" /><path d="M30.97,31.56l-3.96,-6.86" fill="none" stroke="var(--sm-landscape-tundra-dark, #627870)" stroke-width="0.25" stroke-linecap="round" stroke-linejoin="round" /></svg>
