<svg xmlns="http://www.w3.org/2000/svg" viewBox="0 0 64 64" width="64" height="64"><title>sm flora sheltered apple b  coastal</title><path d="M31.93,30.98Q45.41,34.76 49.93,31.4" fill="none" stroke="var(--sm-landscape-wood, #a08d78)" stroke-width="1.3" stroke-linecap="round" stroke-linejoin="round" /><path d="M31.93,30.98Q32.66,44.96 37.29,48.16" fill="none" stroke="var(--sm-landscape-wood, #a08d78)" stroke-width="1.3" stroke-linecap="round" stroke-linejoin="round" /><path d="M31.93,30.98Q23.08,41.82 24.35,47.3" fill="none" stroke="var(--sm-landscape-wood, #a08d78)" stroke-width="1.3" stroke-linecap="round" stroke-linejoin="round" /><path d="M31.93,30.98Q18.06,29.08 14.05,33.02" fill="none" stroke="var(--sm-landscape-wood, #a08d78)" stroke-width="1.3" stroke-linecap="round" stroke-linejoin="round" /><path d="M31.93,30.98Q23.41,19.87 17.78,19.86" fill="none" stroke="var(--sm-landscape-wood, #a08d78)" stroke-width="1.3" stroke-linecap="round" stroke-linejoin="round" /><path d="M31.93,30.98Q32.39,16.99 28.05,13.4" fill="none" stroke="var(--sm-landscape-wood, #a08d78)" stroke-width="1.3" stroke-linecap="round" stroke-linejoin="round" /><path d="M31.93,30.98Q44.19,24.22 45.06,18.66" fill="none" stroke="var(--sm-landscape-wood, #a08d78)" stroke-width="1.3" stroke-linecap="round" stroke-linejoin="round" /><path d="M52.43,28.94C56.31,29.45 56.31,35.35 52.03,35.73C54.94,38.44 50.73,42.92 47.64,41.43C47.33,44.15 41.11,45.13 39.9,42.07C37.33,45.34 31.53,42.34 32.52,39.37C29.17,39.69 26.89,34.08 30.06,32.4C27.75,30.81 29.9,25.53 32.61,25.49C31.82,22.74 37.46,19.82 39.87,22.54C41.08,19.05 47.6,20.07 47.37,23.77C50.85,21.73 55.11,26.28 52.43,28.94Z" fill="var(--sm-landscape-coastal-dark, #5f8076)" stroke="var(--sm-ink, #33262e)" stroke-width="1.5" stroke-linecap="round" stroke-linejoin="round" /><path d="M51.26,27.83C54.25,28.5 54.25,33.89 50.43,34.29C52.63,36.56 48.81,40.55 46.16,39.46C46.18,42.59 40.02,43.55 38.85,40.41C36.62,42.76 31.32,40.08 32.41,37.3C28.74,37.95 26.58,32.76 30.22,31.2C27.24,29.71 29.29,24.76 32.54,25.19C31.14,22.15 36.54,19.41 38.85,21.95C40.01,18.76 46.22,19.72 46.25,22.79C49.3,21.29 53.35,25.51 51.26,27.83Z" fill="var(--sm-landscape-coastal-leaf, #8eaa91)" stroke="var(--sm-ink, #33262e)" stroke-width="0.55" stroke-linecap="round" stroke-linejoin="round" /><path d="M50.4,31.12C51.74,31.42 51.74,35.2 50.51,35.58C50.75,37.2 47.2,38.44 46.48,37.1C45.13,37.79 42.91,34.48 43.92,33.31C42.99,32.16 45.18,28.91 46.54,29.74C47.2,28.21 50.73,29.45 50.4,31.12Z" fill="var(--sm-landscape-coastal-light, #c3c9a0)" stroke="var(--sm-ink, #33262e)" stroke-width="0.55" stroke-linecap="round" stroke-linejoin="round" /><path d="M45.62,33.31q2,-2 4,-.4" fill="none" stroke="var(--sm-landscape-coastal-dark, #5f8076)" stroke-width="0.45" stroke-linecap="round" stroke-linejoin="round" /><circle cx="49.1" cy="34.81" r="0.85" fill="#b57468" stroke="var(--sm-ink, #33262e)" stroke-width="0.3"/><circle cx="47.68" cy="31.85" r="0.85" fill="#b57468" stroke="var(--sm-ink, #33262e)" stroke-width="0.3"/><circle cx="47.89" cy="31.65" r="0.85" fill="#b57468" stroke="var(--sm-ink, #33262e)" stroke-width="0.3"/><path d="M43.96,35.16C45.53,35.41 45.53,39.01 43.98,39.27C44.29,40.78 40.37,41.93 39.58,40.68C38.22,41.12 35.89,38.23 36.74,37.21C35.85,36.18 38.2,33.26 39.66,33.96C40.38,32.61 44.2,33.72 43.96,35.16Z" fill="var(--sm-landscape-coastal-leaf, #8eaa91)" stroke="var(--sm-ink, #33262e)" stroke-width="0.55" stroke-linecap="round" stroke-linejoin="round" /><path d="M38.83,37.21q2,-2 4,-.4" fill="none" stroke="var(--sm-landscape-coastal-dark, #5f8076)" stroke-width="0.45" stroke-linecap="round" stroke-linejoin="round" /><circle cx="41.13" cy="37.65" r="0.85" fill="#b57468" stroke="var(--sm-ink, #33262e)" stroke-width="0.3"/><circle cx="41.62" cy="37.13" r="0.85" fill="#b57468" stroke="var(--sm-ink, #33262e)" stroke-width="0.3"/><circle cx="41.91" cy="38.45" r="0.85" fill="#b57468" stroke="var(--sm-ink, #33262e)" stroke-width="0.3"/><path d="M39.37,29.65C40.6,29.97 40.6,33.11 39.5,33.52C39.39,34.56 36.01,35.52 35.37,34.38C34.03,35.04 31.91,32.46 32.74,31.54C31.7,30.58 33.92,27.88 35.23,28.33C36.02,27.6 39.36,28.56 39.37,29.65Z" fill="var(--sm-landscape-coastal-leaf, #8eaa91)" stroke="var(--sm-ink, #33262e)" stroke-width="0.55" stroke-linecap="round" stroke-linejoin="round" /><path d="M34.41,31.54q2,-2 4,-.4" fill="none" stroke="var(--sm-landscape-coastal-dark, #5f8076)" stroke-width="0.45" stroke-linecap="round" stroke-linejoin="round" /><circle cx="35.15" cy="30.75" r="0.85" fill="#b57468" stroke="var(--sm-ink, #33262e)" stroke-width="0.3"/><circle cx="36.93" cy="33.12" r="0.85" fill="#b57468" stroke="var(--sm-ink, #33262e)" stroke-width="0.3"/><circle cx="34.98" cy="32.43" r="0.85" fill="#b57468" stroke="var(--sm-ink, #33262e)" stroke-width="0.3"/><path d="M45.95,24.75C47.55,25.06 47.55,28.91 46.11,29.32C46.18,30.76 42.05,31.97 41.3,30.43C39.86,31.01 37.47,28.04 38.6,26.98C37.19,25.87 39.71,22.74 41.27,23.47C42.06,22.1 46.11,23.29 45.95,24.75Z" fill="var(--sm-landscape-coastal-light, #c3c9a0)" stroke="var(--sm-ink, #33262e)" stroke-width="0.55" stroke-linecap="round" stroke-linejoin="round" /><path d="M40.54,26.98q2,-2 4,-.4" fill="none" stroke="var(--sm-landscape-coastal-dark, #5f8076)" stroke-width="0.45" stroke-linecap="round" stroke-linejoin="round" /><circle cx="40.8" cy="27.92" r="0.85" fill="#b57468" stroke="var(--sm-ink, #33262e)" stroke-width="0.3"/><circle cx="43.72" cy="27.3" r="0.85" fill="#b57468" stroke="var(--sm-ink, #33262e)" stroke-width="0.3"/><circle cx="43.75" cy="27.18" r="0.85" fill="#b57468" stroke="var(--sm-ink, #33262e)" stroke-width="0.3"/><path d="M36.02,34.79C39.6,35.32 39.6,41.63 36.66,42.41C38.26,44.89 34.46,49.66 31.53,47.83C31.62,51.56 25.74,52.65 24.55,49.53C22.4,52.1 17.2,48.94 18.85,45.15C15.52,45.86 13.56,40.18 16.67,38.48C13.73,36.79 15.67,31.19 18.89,31.84C17.43,28.27 22.5,25.19 24.53,27.32C25.75,24.51 31.55,25.59 31.48,29.22C34.77,26.86 38.72,31.81 36.02,34.79Z" fill="var(--sm-landscape-coastal-dark, #5f8076)" stroke="var(--sm-ink, #33262e)" stroke-width="1.5" stroke-linecap="round" stroke-linejoin="round" /><path d="M34.74,33.74C37.05,34.53 37.05,40.02 34.58,40.75C36.41,43.16 32.86,47.53 30.28,46.15C29.99,48.76 24.71,49.72 23.56,47.45C21.78,48.98 17.22,46.27 17.88,43.69C14.53,44.43 12.59,38.93 16.1,37.28C13.24,35.71 15.08,30.49 18.36,31.27C17.1,28.15 21.73,25.39 23.56,27.1C24.68,24.23 30.21,25.24 29.98,28.92C32.93,26.92 36.53,31.33 34.74,33.74Z" fill="var(--sm-landscape-coastal-leaf, #8eaa91)" stroke="var(--sm-ink, #33262e)" stroke-width="0.55" stroke-linecap="round" stroke-linejoin="round" /><path d="M34.33,36.8C35.81,37.1 35.81,41.23 34.4,41.58C34.42,43.01 30.91,44.24 30.23,42.82C28.83,43.66 26.6,40.34 27.49,39.17C26.64,38 28.85,34.71 30.21,35.47C30.93,34.32 34.28,35.5 34.33,36.8Z" fill="var(--sm-landscape-coastal-light, #c3c9a0)" stroke="var(--sm-ink, #33262e)" stroke-width="0.55" stroke-linecap="round" stroke-linejoin="round" /><path d="M29.32,39.17q2,-2 4,-.4" fill="none" stroke="var(--sm-landscape-coastal-dark, #5f8076)" stroke-width="0.45" stroke-linecap="round" stroke-linejoin="round" /><circle cx="32.49" cy="37.87" r="0.85" fill="#b57468" stroke="var(--sm-ink, #33262e)" stroke-width="0.3"/><circle cx="31.69" cy="40.09" r="0.85" fill="#b57468" stroke="var(--sm-ink, #33262e)" stroke-width="0.3"/><circle cx="29.9" cy="38.95" r="0.85" fill="#b57468" stroke="var(--sm-ink, #33262e)" stroke-width="0.3"/><path d="M27.64,41.94C29.2,42.21 29.2,45.78 27.44,45.92C27.6,47.2 23.98,48.23 23.23,47.15C21.7,47.93 19.29,45.03 20.34,44C19.3,42.97 21.71,40.07 23.22,40.82C23.95,39.5 27.8,40.59 27.64,41.94Z" fill="var(--sm-landscape-coastal-leaf, #8eaa91)" stroke="var(--sm-ink, #33262e)" stroke-width="0.55" stroke-linecap="round" stroke-linejoin="round" /><path d="M22.4,44q2,-2 4,-.4" fill="none" stroke="var(--sm-landscape-coastal-dark, #5f8076)" stroke-width="0.45" stroke-linecap="round" stroke-linejoin="round" /><circle cx="25.69" cy="43.16" r="0.85" fill="#b57468" stroke="var(--sm-ink, #33262e)" stroke-width="0.3"/><circle cx="25.1" cy="44.3" r="0.85" fill="#b57468" stroke="var(--sm-ink, #33262e)" stroke-width="0.3"/><circle cx="23.5" cy="43.35" r="0.85" fill="#b57468" stroke="var(--sm-ink, #33262e)" stroke-width="0.3"/><path d="M24.31,34.22C25.64,34.64 25.64,38.55 24.34,38.99C24.42,40.48 20.62,41.73 19.82,40.47C18.62,40.7 16.44,37.67 17.37,36.59C16.13,35.45 18.46,32.22 19.82,32.71C20.64,31.76 24.23,32.93 24.31,34.22Z" fill="var(--sm-landscape-coastal-leaf, #8eaa91)" stroke="var(--sm-ink, #33262e)" stroke-width="0.55" stroke-linecap="round" stroke-linejoin="round" /><path d="M19.07,36.59q2,-2 4,-.4" fill="none" stroke="var(--sm-landscape-coastal-dark, #5f8076)" stroke-width="0.45" stroke-linecap="round" stroke-linejoin="round" /><circle cx="22.76" cy="35.61" r="0.85" fill="#b57468" stroke="var(--sm-ink, #33262e)" stroke-width="0.3"/><circle cx="22.53" cy="35.67" r="0.85" fill="#b57468" stroke="var(--sm-ink, #33262e)" stroke-width="0.3"/><circle cx="20.24" cy="37.95" r="0.85" fill="#b57468" stroke="var(--sm-ink, #33262e)" stroke-width="0.3"/><path d="M30.93,31.22C32.41,31.47 32.41,35.23 31.02,35.54C31.12,36.93 27.62,38.08 26.87,36.98C25.78,37.15 23.76,34.34 24.55,33.35C23.47,32.29 25.63,29.29 27,30.11C27.64,28.84 30.98,29.93 30.93,31.22Z" fill="var(--sm-landscape-coastal-light, #c3c9a0)" stroke="var(--sm-ink, #33262e)" stroke-width="0.55" stroke-linecap="round" stroke-linejoin="round" /><path d="M26.04,33.35q2,-2 4,-.4" fill="none" stroke="var(--sm-landscape-coastal-dark, #5f8076)" stroke-width="0.45" stroke-linecap="round" stroke-linejoin="round" /><circle cx="26.93" cy="32.45" r="0.85" fill="#b57468" stroke="var(--sm-ink, #33262e)" stroke-width="0.3"/><circle cx="29.81" cy="33.15" r="0.85" fill="#b57468" stroke="var(--sm-ink, #33262e)" stroke-width="0.3"/><circle cx="26.82" cy="31.58" r="0.85" fill="#b57468" stroke="var(--sm-ink, #33262e)" stroke-width="0.3"/><path d="M39.91,18.25C42.43,19.06 42.43,25.11 39.86,25.9C41.32,28.3 37.81,32.91 35.09,31.11C35.4,35.29 29.74,36.4 28.58,33.3C26.69,35.26 21.9,32.2 22.66,29.24C20.21,29.32 18.38,23.76 20.5,22.09C17.76,20.33 19.68,14.48 23.21,15.44C21.67,11.7 26.59,8.57 28.76,11.97C29.74,7.71 35.42,8.82 35.31,12.65C37.85,11.2 41.37,15.84 39.91,18.25Z" fill="var(--sm-landscape-coastal-dark, #5f8076)" stroke="var(--sm-ink, #33262e)" stroke-width="1.5" stroke-linecap="round" stroke-linejoin="round" /><path d="M37.66,17.59C40.48,18.14 40.48,23.64 37.4,24.09C39.8,26.73 36.43,31.07 33.5,28.81C33.84,32.62 28.7,33.6 27.66,30.77C25.87,32.76 21.46,30.01 22.9,26.67C19.73,27.53 18.01,22.43 19.79,20.89C17.47,19.28 19.28,13.92 22.09,14.38C21.79,12.15 26.02,9.51 27.84,12.09C28.71,8.35 33.78,9.31 33.64,12.72C36.1,11.17 39.32,15.31 37.66,17.59Z" fill="var(--sm-landscape-coastal-leaf, #8eaa91)" stroke="var(--sm-ink, #33262e)" stroke-width="0.55" stroke-linecap="round" stroke-linejoin="round" /><path d="M37.6,21.24C38.98,21.42 38.98,24.8 37.68,25.03C37.92,26.43 34.69,27.49 34.07,26.22C33.01,26.6 31.17,24.02 31.71,23.11C30.98,22.15 32.91,19.45 34.04,19.9C34.69,18.72 37.91,19.79 37.6,21.24Z" fill="var(--sm-landscape-coastal-light, #c3c9a0)" stroke="var(--sm-ink, #33262e)" stroke-width="0.55" stroke-linecap="round" stroke-linejoin="round" /><path d="M33.07,23.11q2,-2 4,-.4" fill="none" stroke="var(--sm-landscape-coastal-dark, #5f8076)" stroke-width="0.45" stroke-linecap="round" stroke-linejoin="round" /><circle cx="34.7" cy="21.86" r="0.85" fill="#b57468" stroke="var(--sm-ink, #33262e)" stroke-width="0.3"/><circle cx="35.82" cy="23.78" r="0.85" fill="#b57468" stroke="var(--sm-ink, #33262e)" stroke-width="0.3"/><circle cx="36.36" cy="24" r="0.85" fill="#b57468" stroke="var(--sm-ink, #33262e)" stroke-width="0.3"/><path d="M31.06,25.08C32,25.44 32,28.62 31.01,28.94C31.04,30.09 28.36,31.07 27.84,29.93C26.8,30.55 25.12,27.95 25.92,27.03C25.04,26.09 26.75,23.42 27.73,23.76C28.35,22.89 31.1,23.89 31.06,25.08Z" fill="var(--sm-landscape-coastal-leaf, #8eaa91)" stroke="var(--sm-ink, #33262e)" stroke-width="0.55" stroke-linecap="round" stroke-linejoin="round" /><path d="M26.67,27.03q2,-2 4,-.4" fill="none" stroke="var(--sm-landscape-coastal-dark, #5f8076)" stroke-width="0.45" stroke-linecap="round" stroke-linejoin="round" /><circle cx="28.99" cy="27.04" r="0.85" fill="#b57468" stroke="var(--sm-ink, #33262e)" stroke-width="0.3"/><circle cx="29.37" cy="25.97" r="0.85" fill="#b57468" stroke="var(--sm-ink, #33262e)" stroke-width="0.3"/><circle cx="29.76" cy="25.29" r="0.85" fill="#b57468" stroke="var(--sm-ink, #33262e)" stroke-width="0.3"/><path d="M27.85,19.11C28.9,19.48 28.9,22.88 27.69,23.13C27.77,24.38 24.85,25.4 24.28,24.23C23.11,24.94 21.24,22.17 22.01,21.18C21.15,20.18 23.06,17.34 24.18,17.82C24.85,16.91 27.81,17.95 27.85,19.11Z" fill="var(--sm-landscape-coastal-leaf, #8eaa91)" stroke="var(--sm-ink, #33262e)" stroke-width="0.55" stroke-linecap="round" stroke-linejoin="round" /><path d="M23.2,21.18q2,-2 4,-.4" fill="none" stroke="var(--sm-landscape-coastal-dark, #5f8076)" stroke-width="0.45" stroke-linecap="round" stroke-linejoin="round" /><circle cx="26.53" cy="21.14" r="0.85" fill="#b57468" stroke="var(--sm-ink, #33262e)" stroke-width="0.3"/><circle cx="26.12" cy="21.15" r="0.85" fill="#b57468" stroke="var(--sm-ink, #33262e)" stroke-width="0.3"/><circle cx="23.72" cy="21.28" r="0.85" fill="#b57468" stroke="var(--sm-ink, #33262e)" stroke-width="0.3"/><path d="M33.76,14.27C35.21,14.45 35.21,18.14 33.88,18.43C33.93,19.72 30.74,20.81 30.13,19.52C28.93,20.17 26.96,17.31 27.71,16.3C26.71,15.22 28.79,12.19 30.04,12.78C30.74,11.75 33.94,12.86 33.76,14.27Z" fill="var(--sm-landscape-coastal-light, #c3c9a0)" stroke="var(--sm-ink, #33262e)" stroke-width="0.55" stroke-linecap="round" stroke-linejoin="round" /><path d="M29.12,16.3q2,-2 4,-.4" fill="none" stroke="var(--sm-landscape-coastal-dark, #5f8076)" stroke-width="0.45" stroke-linecap="round" stroke-linejoin="round" /><circle cx="29.84" cy="17.7" r="0.85" fill="#b57468" stroke="var(--sm-ink, #33262e)" stroke-width="0.3"/><circle cx="30.03" cy="16.39" r="0.85" fill="#b57468" stroke="var(--sm-ink, #33262e)" stroke-width="0.3"/><circle cx="29.81" cy="15" r="0.85" fill="#b57468" stroke="var(--sm-ink, #33262e)" stroke-width="0.3"/></svg>
