<svg xmlns="http://www.w3.org/2000/svg" viewBox="0 0 64 64" width="64" height="64"><title>sm flora bearberry b  tundra</title><path d="M48.93,28.61C52.64,29.03 52.64,34.24 49.29,34.79C50.02,36.72 42.67,39.29 40.25,37.83C37.76,39.51 30.21,36.87 31.34,34.74C27.57,34.3 27.57,28.97 31.74,28.67C30.07,26.33 37.73,23.66 40.25,25.31C42.75,23.72 50.35,26.37 48.93,28.61Z" fill="var(--sm-landscape-tundra-light, #bdc4a2)" stroke="var(--sm-ink, #33262e)" stroke-width="0.75" stroke-linecap="round" stroke-linejoin="round" /><circle cx="34.78" cy="30.62" r="0.9" fill="#b57f75" stroke="var(--sm-ink, #33262e)" stroke-width="0.25"/><path d="M39.72,32l1,-1m-1,1l-.6,-1" fill="none" stroke="var(--sm-landscape-tundra-dark, #627870)" stroke-width="0.45" stroke-linecap="round" stroke-linejoin="round" /><circle cx="36.93" cy="28.79" r="0.9" fill="#b57f75" stroke="var(--sm-ink, #33262e)" stroke-width="0.25"/><path d="M41.7,30.51l1,-1m-1,1l-.6,-1" fill="none" stroke="var(--sm-landscape-tundra-dark, #627870)" stroke-width="0.45" stroke-linecap="round" stroke-linejoin="round" /><circle cx="36.88" cy="33.96" r="0.9" fill="#b57f75" stroke="var(--sm-ink, #33262e)" stroke-width="0.25"/><path d="M44.12,32.33l1,-1m-1,1l-.6,-1" fill="none" stroke="var(--sm-landscape-tundra-dark, #627870)" stroke-width="0.45" stroke-linecap="round" stroke-linejoin="round" /><circle cx="41.9" cy="29.98" r="0.9" fill="#b57f75" stroke="var(--sm-ink, #33262e)" stroke-width="0.25"/><path d="M39.63,35.91C42.05,36.42 42.05,43.12 39.66,43.66C40.52,46.48 35.68,49.85 34.09,47.65C32.62,49.13 28.13,46 28.91,43.39C26.54,42.95 26.54,36.59 28.88,36.13C28.06,33.47 32.6,30.29 34.09,31.68C35.58,30.32 40.11,33.49 39.63,35.91Z" fill="var(--sm-landscape-tundra-leaf, #8c9d81)" stroke="var(--sm-ink, #33262e)" stroke-width="0.75" stroke-linecap="round" stroke-linejoin="round" /><circle cx="30.85" cy="40.88" r="0.9" fill="#b57f75" stroke="var(--sm-ink, #33262e)" stroke-width="0.25"/><path d="M36.39,39.45l1,-1m-1,1l-.6,-1" fill="none" stroke="var(--sm-landscape-tundra-dark, #627870)" stroke-width="0.45" stroke-linecap="round" stroke-linejoin="round" /><circle cx="32.92" cy="38.6" r="0.9" fill="#b57f75" stroke="var(--sm-ink, #33262e)" stroke-width="0.25"/><path d="M37.2,39.11l1,-1m-1,1l-.6,-1" fill="none" stroke="var(--sm-landscape-tundra-dark, #627870)" stroke-width="0.45" stroke-linecap="round" stroke-linejoin="round" /><circle cx="32.06" cy="41.52" r="0.9" fill="#b57f75" stroke="var(--sm-ink, #33262e)" stroke-width="0.25"/><path d="M32.11,44.02l1,-1m-1,1l-.6,-1" fill="none" stroke="var(--sm-landscape-tundra-dark, #627870)" stroke-width="0.45" stroke-linecap="round" stroke-linejoin="round" /><circle cx="33.7" cy="40.3" r="0.9" fill="#b57f75" stroke="var(--sm-ink, #33262e)" stroke-width="0.25"/><path d="M32.99,39.91C35.28,40.61 35.28,46.81 32.55,47.25C33.26,49.62 28.2,52.59 26.54,51.44C24.83,52.84 19.64,49.78 19.9,47.61C17.92,46.77 17.92,40.65 20.59,40.21C19.79,37.78 24.87,34.79 26.54,35.99C28.31,34.25 33.7,37.41 32.99,39.91Z" fill="var(--sm-landscape-tundra-leaf, #8c9d81)" stroke="var(--sm-ink, #33262e)" stroke-width="0.75" stroke-linecap="round" stroke-linejoin="round" /><circle cx="29.79" cy="46.35" r="0.9" fill="#b57f75" stroke="var(--sm-ink, #33262e)" stroke-width="0.25"/><path d="M25.16,39.9l1,-1m-1,1l-.6,-1" fill="none" stroke="var(--sm-landscape-tundra-dark, #627870)" stroke-width="0.45" stroke-linecap="round" stroke-linejoin="round" /><circle cx="29.86" cy="47.62" r="0.9" fill="#b57f75" stroke="var(--sm-ink, #33262e)" stroke-width="0.25"/><path d="M25.61,47.39l1,-1m-1,1l-.6,-1" fill="none" stroke="var(--sm-landscape-tundra-dark, #627870)" stroke-width="0.45" stroke-linecap="round" stroke-linejoin="round" /><circle cx="29.58" cy="47.99" r="0.9" fill="#b57f75" stroke="var(--sm-ink, #33262e)" stroke-width="0.25"/><path d="M27.53,39.87l1,-1m-1,1l-.6,-1" fill="none" stroke="var(--sm-landscape-tundra-dark, #627870)" stroke-width="0.45" stroke-linecap="round" stroke-linejoin="round" /><circle cx="26.85" cy="41.7" r="0.9" fill="#b57f75" stroke="var(--sm-ink, #33262e)" stroke-width="0.25"/><path d="M30.4,31.53C33.72,31.9 33.72,35.68 29.85,35.9C30.77,37.31 24.06,39.09 21.85,38.41C19.52,39.38 12.44,37.51 13.12,36.1C10.23,35.64 10.23,31.94 13.24,31.51C12.73,30.19 19.59,28.38 21.85,29.5C24.06,28.49 30.78,30.26 30.4,31.53Z" fill="var(--sm-landscape-tundra-light, #bdc4a2)" stroke="var(--sm-ink, #33262e)" stroke-width="0.75" stroke-linecap="round" stroke-linejoin="round" /><circle cx="26.27" cy="32.96" r="0.9" fill="#b57f75" stroke="var(--sm-ink, #33262e)" stroke-width="0.25"/><path d="M23.57,33.28l1,-1m-1,1l-.6,-1" fill="none" stroke="var(--sm-landscape-tundra-dark, #627870)" stroke-width="0.45" stroke-linecap="round" stroke-linejoin="round" /><circle cx="23.58" cy="33.14" r="0.9" fill="#b57f75" stroke="var(--sm-ink, #33262e)" stroke-width="0.25"/><path d="M25.86,34.93l1,-1m-1,1l-.6,-1" fill="none" stroke="var(--sm-landscape-tundra-dark, #627870)" stroke-width="0.45" stroke-linecap="round" stroke-linejoin="round" /><circle cx="23.25" cy="33.32" r="0.9" fill="#b57f75" stroke="var(--sm-ink, #33262e)" stroke-width="0.25"/><path d="M20.19,33.08l1,-1m-1,1l-.6,-1" fill="none" stroke="var(--sm-landscape-tundra-dark, #627870)" stroke-width="0.45" stroke-linecap="round" stroke-linejoin="round" /><circle cx="22.14" cy="32.16" r="0.9" fill="#b57f75" stroke="var(--sm-ink, #33262e)" stroke-width="0.25"/><path d="M27.99,21.13C30.37,21.9 30.37,27.65 27.63,28.24C28.53,30.6 22.33,33.53 20.29,31.19C18.31,33.27 12.29,30.42 12.99,28.22C9.57,27.83 9.57,21.72 13.29,21.47C11.83,18.8 18.19,15.79 20.29,17.57C22.36,15.87 28.68,18.85 27.99,21.13Z" fill="var(--sm-landscape-tundra-leaf, #8c9d81)" stroke="var(--sm-ink, #33262e)" stroke-width="0.75" stroke-linecap="round" stroke-linejoin="round" /><circle cx="19.46" cy="24.18" r="0.9" fill="#b57f75" stroke="var(--sm-ink, #33262e)" stroke-width="0.25"/><path d="M20.39,24.68l1,-1m-1,1l-.6,-1" fill="none" stroke="var(--sm-landscape-tundra-dark, #627870)" stroke-width="0.45" stroke-linecap="round" stroke-linejoin="round" /><circle cx="16.46" cy="24.8" r="0.9" fill="#b57f75" stroke="var(--sm-ink, #33262e)" stroke-width="0.25"/><path d="M19.92,27.35l1,-1m-1,1l-.6,-1" fill="none" stroke="var(--sm-landscape-tundra-dark, #627870)" stroke-width="0.45" stroke-linecap="round" stroke-linejoin="round" /><circle cx="15.75" cy="24.85" r="0.9" fill="#b57f75" stroke="var(--sm-ink, #33262e)" stroke-width="0.25"/><path d="M18.54,22.39l1,-1m-1,1l-.6,-1" fill="none" stroke="var(--sm-landscape-tundra-dark, #627870)" stroke-width="0.45" stroke-linecap="round" stroke-linejoin="round" /><circle cx="22.67" cy="28.09" r="0.9" fill="#b57f75" stroke="var(--sm-ink, #33262e)" stroke-width="0.25"/><path d="M36.18,14.92C38.84,15.7 38.84,22.45 36.19,23.24C36.9,25.87 30.54,29.29 28.45,26.94C26.37,29.26 20.04,25.85 20.76,23.22C17.31,22.69 17.31,15.46 21,15.06C20.2,12.43 26.41,9.09 28.45,10.63C30.63,8.45 37.23,12.01 36.18,14.92Z" fill="var(--sm-landscape-tundra-leaf, #8c9d81)" stroke="var(--sm-ink, #33262e)" stroke-width="0.75" stroke-linecap="round" stroke-linejoin="round" /><circle cx="32.55" cy="14.3" r="0.9" fill="#b57f75" stroke="var(--sm-ink, #33262e)" stroke-width="0.25"/><path d="M25.36,15.94l1,-1m-1,1l-.6,-1" fill="none" stroke="var(--sm-landscape-tundra-dark, #627870)" stroke-width="0.45" stroke-linecap="round" stroke-linejoin="round" /><circle cx="24.44" cy="22.31" r="0.9" fill="#b57f75" stroke="var(--sm-ink, #33262e)" stroke-width="0.25"/><path d="M24.5,19.87l1,-1m-1,1l-.6,-1" fill="none" stroke="var(--sm-landscape-tundra-dark, #627870)" stroke-width="0.45" stroke-linecap="round" stroke-linejoin="round" /><circle cx="31.28" cy="20.38" r="0.9" fill="#b57f75" stroke="var(--sm-ink, #33262e)" stroke-width="0.25"/><path d="M29.73,21.61l1,-1m-1,1l-.6,-1" fill="none" stroke="var(--sm-landscape-tundra-dark, #627870)" stroke-width="0.45" stroke-linecap="round" stroke-linejoin="round" /><circle cx="26.8" cy="21.45" r="0.9" fill="#b57f75" stroke="var(--sm-ink, #33262e)" stroke-width="0.25"/><path d="M46.65,20.88C50.16,21.02 50.16,26.23 47.07,26.56C47.89,28.57 42.33,31.05 40.5,29.29C38.62,31.29 32.88,28.72 33.74,26.65C31.31,26.11 31.31,21.15 33.58,20.53C32.97,18.59 38.64,16.06 40.5,18.08C42.38,16.02 48.07,18.56 46.65,20.88Z" fill="var(--sm-landscape-tundra-light, #bdc4a2)" stroke="var(--sm-ink, #33262e)" stroke-width="0.75" stroke-linecap="round" stroke-linejoin="round" /><circle cx="41.68" cy="25.6" r="0.9" fill="#b57f75" stroke="var(--sm-ink, #33262e)" stroke-width="0.25"/><path d="M39.72,21.06l1,-1m-1,1l-.6,-1" fill="none" stroke="var(--sm-landscape-tundra-dark, #627870)" stroke-width="0.45" stroke-linecap="round" stroke-linejoin="round" /><circle cx="42.48" cy="20.96" r="0.9" fill="#b57f75" stroke="var(--sm-ink, #33262e)" stroke-width="0.25"/><path d="M38.91,20.74l1,-1m-1,1l-.6,-1" fill="none" stroke="var(--sm-landscape-tundra-dark, #627870)" stroke-width="0.45" stroke-linecap="round" stroke-linejoin="round" /><circle cx="42.96" cy="21.83" r="0.9" fill="#b57f75" stroke="var(--sm-ink, #33262e)" stroke-width="0.25"/><path d="M36.08,23.94l1,-1m-1,1l-.6,-1" fill="none" stroke="var(--sm-landscape-tundra-dark, #627870)" stroke-width="0.45" stroke-linecap="round" stroke-linejoin="round" /><circle cx="38.58" cy="20.18" r="0.9" fill="#b57f75" stroke="var(--sm-ink, #33262e)" stroke-width="0.25"/></svg>
