<svg xmlns="http://www.w3.org/2000/svg" viewBox="0 0 64 64" width="64" height="64"><title>sm flora cottongrass c snow  tundra</title><path d="M38.2,30.53Q38.43,32.05 45.03,33.07Q42.92,31.24 38.2,30.53Z" fill="var(--sm-landscape-tundra-light, #bdc4a2)" stroke="var(--sm-landscape-tundra-dark, #627870)" stroke-width="0.4" stroke-linecap="round" stroke-linejoin="round" /><circle cx="45.03" cy="33.07" r="1.7" fill="var(--sm-snow, #f2f6f8)" stroke="var(--sm-ink, #33262e)" stroke-width="0.35"/><path d="M38.2,30.53Q38.5,37.83 45.43,42.7Q43.11,33.94 38.2,30.53Z" fill="var(--sm-landscape-tundra-leaf, #8c9d81)" stroke="var(--sm-landscape-tundra-dark, #627870)" stroke-width="0.4" stroke-linecap="round" stroke-linejoin="round" /><path d="M38.2,30.53Q37.44,36.76 39.5,40.92Q40.15,33.44 38.2,30.53Z" fill="var(--sm-landscape-tundra-leaf, #8c9d81)" stroke="var(--sm-landscape-tundra-dark, #627870)" stroke-width="0.4" stroke-linecap="round" stroke-linejoin="round" /><path d="M38.2,30.53Q35.33,36.13 27.82,39.87Q34.31,33.14 38.2,30.53Z" fill="var(--sm-landscape-tundra-light, #bdc4a2)" stroke="var(--sm-landscape-tundra-dark, #627870)" stroke-width="0.4" stroke-linecap="round" stroke-linejoin="round" /><path d="M38.2,30.53Q35.77,32.11 30.26,33.16Q35.53,31.26 38.2,30.53Z" fill="var(--sm-landscape-tundra-leaf, #8c9d81)" stroke="var(--sm-landscape-tundra-dark, #627870)" stroke-width="0.4" stroke-linecap="round" stroke-linejoin="round" /><circle cx="30.26" cy="33.16" r="1.7" fill="var(--sm-snow, #f2f6f8)" stroke="var(--sm-ink, #33262e)" stroke-width="0.35"/><path d="M38.2,30.53Q35.25,24.43 27.34,20.36Q34.07,27.68 38.2,30.53Z" fill="var(--sm-landscape-tundra-leaf, #8c9d81)" stroke="var(--sm-landscape-tundra-dark, #627870)" stroke-width="0.4" stroke-linecap="round" stroke-linejoin="round" /><path d="M38.2,30.53Q36.29,24.45 33.14,20.39Q36.97,27.69 38.2,30.53Z" fill="var(--sm-landscape-tundra-light, #bdc4a2)" stroke="var(--sm-landscape-tundra-dark, #627870)" stroke-width="0.4" stroke-linecap="round" stroke-linejoin="round" /><path d="M38.2,30.53Q37.58,23.68 40.27,19.11Q40.54,27.33 38.2,30.53Z" fill="var(--sm-landscape-tundra-leaf, #8c9d81)" stroke="var(--sm-landscape-tundra-dark, #627870)" stroke-width="0.4" stroke-linecap="round" stroke-linejoin="round" /><path d="M38.2,30.53Q38.91,28.88 47.71,27.79Q44.26,29.76 38.2,30.53Z" fill="var(--sm-landscape-tundra-leaf, #8c9d81)" stroke="var(--sm-landscape-tundra-dark, #627870)" stroke-width="0.4" stroke-linecap="round" stroke-linejoin="round" /><circle cx="47.71" cy="27.79" r="1.7" fill="var(--sm-snow, #f2f6f8)" stroke="var(--sm-ink, #33262e)" stroke-width="0.35"/><path d="M40.78,29.12C42.32,29.21 42.32,31.84 40.98,32.04C40.97,32.91 37.83,33.67 37.14,32.98C35.99,33.29 34.01,31.25 34.71,30.53C33.98,29.8 35.98,27.74 37.22,28.26C37.83,27.32 41.02,28.1 40.78,29.12Z" fill="var(--sm-snow, #f2f6f8)" stroke="var(--sm-ink, #33262e)" stroke-width="0" stroke-linecap="round" stroke-linejoin="round" /><path d="M32.09,40.67Q33.39,41.18 44.88,41.52Q39.79,40.91 32.09,40.67Z" fill="var(--sm-landscape-tundra-light, #bdc4a2)" stroke="var(--sm-landscape-tundra-dark, #627870)" stroke-width="0.4" stroke-linecap="round" stroke-linejoin="round" /><circle cx="44.88" cy="41.52" r="1.7" fill="var(--sm-snow, #f2f6f8)" stroke="var(--sm-ink, #33262e)" stroke-width="0.35"/><path d="M32.09,40.67Q32.38,45.48 39.24,48.69Q36.97,42.92 32.09,40.67Z" fill="var(--sm-landscape-tundra-leaf, #8c9d81)" stroke="var(--sm-landscape-tundra-dark, #627870)" stroke-width="0.4" stroke-linecap="round" stroke-linejoin="round" /><path d="M32.09,40.67Q30.96,47.67 31.36,52.33Q33.02,43.94 32.09,40.67Z" fill="var(--sm-landscape-tundra-leaf, #8c9d81)" stroke="var(--sm-landscape-tundra-dark, #627870)" stroke-width="0.4" stroke-linecap="round" stroke-linejoin="round" /><path d="M32.09,40.67Q29.15,46.65 21.33,50.63Q28.01,43.46 32.09,40.67Z" fill="var(--sm-landscape-tundra-light, #bdc4a2)" stroke="var(--sm-landscape-tundra-dark, #627870)" stroke-width="0.4" stroke-linecap="round" stroke-linejoin="round" /><path d="M32.09,40.67Q29.62,41.84 23.95,42.61Q29.32,41.21 32.09,40.67Z" fill="var(--sm-landscape-tundra-leaf, #8c9d81)" stroke="var(--sm-landscape-tundra-dark, #627870)" stroke-width="0.4" stroke-linecap="round" stroke-linejoin="round" /><circle cx="23.95" cy="42.61" r="1.7" fill="var(--sm-snow, #f2f6f8)" stroke="var(--sm-ink, #33262e)" stroke-width="0.35"/><path d="M32.09,40.67Q29.64,38.52 24.05,37.1Q29.37,39.67 32.09,40.67Z" fill="var(--sm-landscape-tundra-leaf, #8c9d81)" stroke="var(--sm-landscape-tundra-dark, #627870)" stroke-width="0.4" stroke-linecap="round" stroke-linejoin="round" /><path d="M32.09,40.67Q31.04,35.3 31.81,31.72Q33.25,38.16 32.09,40.67Z" fill="var(--sm-landscape-tundra-light, #bdc4a2)" stroke="var(--sm-landscape-tundra-dark, #627870)" stroke-width="0.4" stroke-linecap="round" stroke-linejoin="round" /><path d="M32.09,40.67Q31.68,34.08 35.39,29.69Q35.04,37.6 32.09,40.67Z" fill="var(--sm-landscape-tundra-leaf, #8c9d81)" stroke="var(--sm-landscape-tundra-dark, #627870)" stroke-width="0.4" stroke-linecap="round" stroke-linejoin="round" /><path d="M32.09,40.67Q33.34,35.66 44.61,32.32Q39.65,38.33 32.09,40.67Z" fill="var(--sm-landscape-tundra-leaf, #8c9d81)" stroke="var(--sm-landscape-tundra-dark, #627870)" stroke-width="0.4" stroke-linecap="round" stroke-linejoin="round" /><circle cx="44.61" cy="32.32" r="1.7" fill="var(--sm-snow, #f2f6f8)" stroke="var(--sm-ink, #33262e)" stroke-width="0.35"/><path d="M34.65,39.27C36.04,39.41 36.04,41.93 35,42.26C34.87,43.07 31.72,43.83 31.03,43.11C29.89,43.42 27.92,41.39 28.52,40.67C27.62,39.9 29.73,37.72 31.09,38.37C31.69,37.24 35.1,38.07 34.65,39.27Z" fill="var(--sm-snow, #f2f6f8)" stroke="var(--sm-ink, #33262e)" stroke-width="0" stroke-linecap="round" stroke-linejoin="round" /><path d="M21.82,30.53Q22.74,32.85 32.49,34.39Q28.46,31.61 21.82,30.53Z" fill="var(--sm-landscape-tundra-light, #bdc4a2)" stroke="var(--sm-landscape-tundra-dark, #627870)" stroke-width="0.4" stroke-linecap="round" stroke-linejoin="round" /><circle cx="32.49" cy="34.39" r="1.7" fill="var(--sm-snow, #f2f6f8)" stroke="var(--sm-ink, #33262e)" stroke-width="0.35"/><path d="M21.82,30.53Q22.46,35.79 30.94,39.3Q27.68,32.98 21.82,30.53Z" fill="var(--sm-landscape-tundra-leaf, #8c9d81)" stroke="var(--sm-landscape-tundra-dark, #627870)" stroke-width="0.4" stroke-linecap="round" stroke-linejoin="round" /><path d="M21.82,30.53Q20.94,38.46 22.48,43.75Q23.45,34.23 21.82,30.53Z" fill="var(--sm-landscape-tundra-leaf, #8c9d81)" stroke="var(--sm-landscape-tundra-dark, #627870)" stroke-width="0.4" stroke-linecap="round" stroke-linejoin="round" /><path d="M21.82,30.53Q19.15,35.02 12.53,38.01Q18.47,32.62 21.82,30.53Z" fill="var(--sm-landscape-tundra-light, #bdc4a2)" stroke="var(--sm-landscape-tundra-dark, #627870)" stroke-width="0.4" stroke-linecap="round" stroke-linejoin="round" /><path d="M21.82,30.53Q19.27,31.47 13.22,32.1Q18.82,30.97 21.82,30.53Z" fill="var(--sm-landscape-tundra-leaf, #8c9d81)" stroke="var(--sm-landscape-tundra-dark, #627870)" stroke-width="0.4" stroke-linecap="round" stroke-linejoin="round" /><circle cx="13.22" cy="32.1" r="1.7" fill="var(--sm-snow, #f2f6f8)" stroke="var(--sm-ink, #33262e)" stroke-width="0.35"/><path d="M21.82,30.53Q18.37,25.42 8.23,22.02Q16.32,28.14 21.82,30.53Z" fill="var(--sm-landscape-tundra-leaf, #8c9d81)" stroke="var(--sm-landscape-tundra-dark, #627870)" stroke-width="0.4" stroke-linecap="round" stroke-linejoin="round" /><path d="M21.82,30.53Q20.29,26.63 18.88,24.03Q21.65,28.71 21.82,30.53Z" fill="var(--sm-landscape-tundra-light, #bdc4a2)" stroke="var(--sm-landscape-tundra-dark, #627870)" stroke-width="0.4" stroke-linecap="round" stroke-linejoin="round" /><path d="M21.82,30.53Q21.41,24.89 25.09,21.12Q24.76,27.89 21.82,30.53Z" fill="var(--sm-landscape-tundra-leaf, #8c9d81)" stroke="var(--sm-landscape-tundra-dark, #627870)" stroke-width="0.4" stroke-linecap="round" stroke-linejoin="round" /><path d="M21.82,30.53Q23.24,26.64 35.25,24.05Q29.84,28.71 21.82,30.53Z" fill="var(--sm-landscape-tundra-leaf, #8c9d81)" stroke="var(--sm-landscape-tundra-dark, #627870)" stroke-width="0.4" stroke-linecap="round" stroke-linejoin="round" /><circle cx="35.25" cy="24.05" r="1.7" fill="var(--sm-snow, #f2f6f8)" stroke="var(--sm-ink, #33262e)" stroke-width="0.35"/><path d="M24.74,28.93C25.87,29.24 25.87,31.82 24.64,32.06C24.83,33.12 21.42,33.95 20.8,32.89C19.64,33.26 17.68,31.24 18.47,30.53C17.57,29.79 19.58,27.72 20.74,28.04C21.42,27.11 24.82,27.94 24.74,28.93Z" fill="var(--sm-snow, #f2f6f8)" stroke="var(--sm-ink, #33262e)" stroke-width="0" stroke-linecap="round" stroke-linejoin="round" /><path d="M32.09,23.69Q32.45,24.97 39.66,25.82Q37.17,24.28 32.09,23.69Z" fill="var(--sm-landscape-tundra-light, #bdc4a2)" stroke="var(--sm-landscape-tundra-dark, #627870)" stroke-width="0.4" stroke-linecap="round" stroke-linejoin="round" /><circle cx="39.66" cy="25.82" r="1.7" fill="var(--sm-snow, #f2f6f8)" stroke="var(--sm-ink, #33262e)" stroke-width="0.35"/><path d="M32.09,23.69Q31.79,28.38 36.01,31.51Q35.35,25.88 32.09,23.69Z" fill="var(--sm-landscape-tundra-leaf, #8c9d81)" stroke="var(--sm-landscape-tundra-dark, #627870)" stroke-width="0.4" stroke-linecap="round" stroke-linejoin="round" /><path d="M32.09,23.69Q31.06,32.58 31.92,38.5Q33.3,27.84 32.09,23.69Z" fill="var(--sm-landscape-tundra-leaf, #8c9d81)" stroke="var(--sm-landscape-tundra-dark, #627870)" stroke-width="0.4" stroke-linecap="round" stroke-linejoin="round" /><path d="M32.09,23.69Q30,28.09 26.07,31.03Q30.38,25.74 32.09,23.69Z" fill="var(--sm-landscape-tundra-light, #bdc4a2)" stroke="var(--sm-landscape-tundra-dark, #627870)" stroke-width="0.4" stroke-linecap="round" stroke-linejoin="round" /><path d="M32.09,23.69Q29.19,25.49 21.55,26.69Q28.12,24.53 32.09,23.69Z" fill="var(--sm-landscape-tundra-leaf, #8c9d81)" stroke="var(--sm-landscape-tundra-dark, #627870)" stroke-width="0.4" stroke-linecap="round" stroke-linejoin="round" /><circle cx="21.55" cy="26.69" r="1.7" fill="var(--sm-snow, #f2f6f8)" stroke="var(--sm-ink, #33262e)" stroke-width="0.35"/><path d="M32.09,23.69Q28.26,19.89 16.37,17.35Q25.53,21.91 32.09,23.69Z" fill="var(--sm-landscape-tundra-leaf, #8c9d81)" stroke="var(--sm-landscape-tundra-dark, #627870)" stroke-width="0.4" stroke-linecap="round" stroke-linejoin="round" /><path d="M32.09,23.69Q30.56,19.03 29.16,15.92Q31.92,21.51 32.09,23.69Z" fill="var(--sm-landscape-tundra-light, #bdc4a2)" stroke="var(--sm-landscape-tundra-dark, #627870)" stroke-width="0.4" stroke-linecap="round" stroke-linejoin="round" /><path d="M32.09,23.69Q31.89,16.19 36.54,11.18Q35.61,20.19 32.09,23.69Z" fill="var(--sm-landscape-tundra-leaf, #8c9d81)" stroke="var(--sm-landscape-tundra-dark, #627870)" stroke-width="0.4" stroke-linecap="round" stroke-linejoin="round" /><path d="M32.09,23.69Q33.11,20.23 43.31,17.92Q39,22.07 32.09,23.69Z" fill="var(--sm-landscape-tundra-leaf, #8c9d81)" stroke="var(--sm-landscape-tundra-dark, #627870)" stroke-width="0.4" stroke-linecap="round" stroke-linejoin="round" /><circle cx="43.31" cy="17.92" r="1.7" fill="var(--sm-snow, #f2f6f8)" stroke="var(--sm-ink, #33262e)" stroke-width="0.35"/><path d="M35.03,22.09C36.12,22.4 36.12,24.97 34.68,25.1C34.9,26.12 31.71,26.89 31.05,26.08C29.83,26.51 27.82,24.43 28.8,23.69C27.85,22.96 29.85,20.89 31.07,21.33C31.69,20.28 35.08,21.11 35.03,22.09Z" fill="var(--sm-snow, #f2f6f8)" stroke="var(--sm-ink, #33262e)" stroke-width="0" stroke-linecap="round" stroke-linejoin="round" /></svg>
