<svg xmlns="http://www.w3.org/2000/svg" viewBox="0 0 64 64" width="64" height="64"><title>sm flora rock lichen a snow  tundra</title><path d="M47.34,22.78C53.63,24.07 53.63,37.05 47.98,38.64C48.87,43.27 35.32,49.67 30.87,46.6C26.26,50.31 12.26,43.7 15.55,37.8C7.36,37.26 7.36,23.86 15.66,23.38C12.11,17.31 26.22,10.64 30.87,15.74C35.25,11.76 48.57,18.06 47.34,22.78Z" fill="#aaa9a0" stroke="var(--sm-ink, #33262e)" stroke-width="1.1" stroke-linecap="round" stroke-linejoin="round" /><path d="M45.88,28.54C49.59,28.7 49.59,32.8 46.79,33.25C47.69,34.92 41.13,37.02 38.97,35.55C36.86,36.87 30.45,34.82 31.15,33.25C28.31,32.81 28.31,28.69 31.41,28.33C30.27,26.59 36.81,24.49 38.97,26.2C40.98,24.91 47.09,26.87 45.88,28.54Z" fill="var(--sm-landscape-tundra-light, #bdc4a2)" stroke="var(--sm-ink, #33262e)" stroke-width="0.45" stroke-linecap="round" stroke-linejoin="round" /><path d="M36.58,31.66v-3m0,1l-1.4,-1.1m1.4,1.1l1.5,-1.2" fill="none" stroke="var(--sm-landscape-tundra-dark, #627870)" stroke-width="0.55" stroke-linecap="round" stroke-linejoin="round" /><path d="M42.51,30.01v-3m0,1l-1.4,-1.1m1.4,1.1l1.5,-1.2" fill="none" stroke="var(--sm-landscape-tundra-dark, #627870)" stroke-width="0.55" stroke-linecap="round" stroke-linejoin="round" /><path d="M42.38,30.94v-3m0,1l-1.4,-1.1m1.4,1.1l1.5,-1.2" fill="none" stroke="var(--sm-landscape-tundra-dark, #627870)" stroke-width="0.55" stroke-linecap="round" stroke-linejoin="round" /><path d="M42.54,30.63v-3m0,1l-1.4,-1.1m1.4,1.1l1.5,-1.2" fill="none" stroke="var(--sm-landscape-tundra-dark, #627870)" stroke-width="0.55" stroke-linecap="round" stroke-linejoin="round" /><path d="M35.97,31.15v-3m0,1l-1.4,-1.1m1.4,1.1l1.5,-1.2" fill="none" stroke="var(--sm-landscape-tundra-dark, #627870)" stroke-width="0.55" stroke-linecap="round" stroke-linejoin="round" /><path d="M38.54,34.96v-3m0,1l-1.4,-1.1m1.4,1.1l1.5,-1.2" fill="none" stroke="var(--sm-landscape-tundra-dark, #627870)" stroke-width="0.55" stroke-linecap="round" stroke-linejoin="round" /><path d="M35.64,30.95v-3m0,1l-1.4,-1.1m1.4,1.1l1.5,-1.2" fill="none" stroke="var(--sm-landscape-tundra-dark, #627870)" stroke-width="0.55" stroke-linecap="round" stroke-linejoin="round" /><path d="M44.28,28.44C46.93,28.66 46.93,31.84 44.95,32.27C45.45,33.51 40.2,35.14 38.47,34.14C36.79,35.02 31.67,33.42 32.13,32.23C30.28,31.79 30.28,28.71 32.51,28.39C31.41,26.96 36.72,25.3 38.47,26.28C40.14,25.5 45.23,27.09 44.28,28.44Z" fill="var(--sm-snow, #f2f6f8)" stroke="var(--sm-ink, #33262e)" stroke-width="0" stroke-linecap="round" stroke-linejoin="round" /><path d="M40.93,37.21C42.67,37.65 42.67,41.93 41.05,42.43C41.44,44.07 37.57,46.23 36.29,44.9C34.99,46.39 31.02,44.18 31.52,42.44C29.78,41.97 29.78,37.6 31.49,37.12C30.93,35.32 34.97,33.08 36.29,34.66C37.61,33.11 41.63,35.35 40.93,37.21Z" fill="var(--sm-landscape-tundra-light, #bdc4a2)" stroke="var(--sm-ink, #33262e)" stroke-width="0.45" stroke-linecap="round" stroke-linejoin="round" /><path d="M36.05,43.63v-3m0,1l-1.4,-1.1m1.4,1.1l1.5,-1.2" fill="none" stroke="var(--sm-landscape-tundra-dark, #627870)" stroke-width="0.55" stroke-linecap="round" stroke-linejoin="round" /><path d="M35.9,43.36v-3m0,1l-1.4,-1.1m1.4,1.1l1.5,-1.2" fill="none" stroke="var(--sm-landscape-tundra-dark, #627870)" stroke-width="0.55" stroke-linecap="round" stroke-linejoin="round" /><path d="M36.56,42.54v-3m0,1l-1.4,-1.1m1.4,1.1l1.5,-1.2" fill="none" stroke="var(--sm-landscape-tundra-dark, #627870)" stroke-width="0.55" stroke-linecap="round" stroke-linejoin="round" /><path d="M37.27,40.41v-3m0,1l-1.4,-1.1m1.4,1.1l1.5,-1.2" fill="none" stroke="var(--sm-landscape-tundra-dark, #627870)" stroke-width="0.55" stroke-linecap="round" stroke-linejoin="round" /><path d="M33.65,44.46v-3m0,1l-1.4,-1.1m1.4,1.1l1.5,-1.2" fill="none" stroke="var(--sm-landscape-tundra-dark, #627870)" stroke-width="0.55" stroke-linecap="round" stroke-linejoin="round" /><path d="M38.33,42.75v-3m0,1l-1.4,-1.1m1.4,1.1l1.5,-1.2" fill="none" stroke="var(--sm-landscape-tundra-dark, #627870)" stroke-width="0.55" stroke-linecap="round" stroke-linejoin="round" /><path d="M36.46,40v-3m0,1l-1.4,-1.1m1.4,1.1l1.5,-1.2" fill="none" stroke="var(--sm-landscape-tundra-dark, #627870)" stroke-width="0.55" stroke-linecap="round" stroke-linejoin="round" /><path d="M32.73,40.6C34.71,41.12 34.71,44.78 32.19,45.12C33.14,46.68 27.73,48.56 25.95,47.41C24.07,48.87 18.36,46.89 19.24,45.28C16.9,44.84 16.9,41.06 19.63,40.76C18.59,39.13 24.13,37.21 25.95,38.2C27.82,37.04 33.53,39.02 32.73,40.6Z" fill="var(--sm-landscape-tundra-light, #bdc4a2)" stroke="var(--sm-ink, #33262e)" stroke-width="0.45" stroke-linecap="round" stroke-linejoin="round" /><path d="M22.48,44.61v-3m0,1l-1.4,-1.1m1.4,1.1l1.5,-1.2" fill="none" stroke="var(--sm-landscape-tundra-dark, #627870)" stroke-width="0.55" stroke-linecap="round" stroke-linejoin="round" /><path d="M30.2,44.31v-3m0,1l-1.4,-1.1m1.4,1.1l1.5,-1.2" fill="none" stroke="var(--sm-landscape-tundra-dark, #627870)" stroke-width="0.55" stroke-linecap="round" stroke-linejoin="round" /><path d="M28.41,43.46v-3m0,1l-1.4,-1.1m1.4,1.1l1.5,-1.2" fill="none" stroke="var(--sm-landscape-tundra-dark, #627870)" stroke-width="0.55" stroke-linecap="round" stroke-linejoin="round" /><path d="M26.04,44.6v-3m0,1l-1.4,-1.1m1.4,1.1l1.5,-1.2" fill="none" stroke="var(--sm-landscape-tundra-dark, #627870)" stroke-width="0.55" stroke-linecap="round" stroke-linejoin="round" /><path d="M24.67,44.95v-3m0,1l-1.4,-1.1m1.4,1.1l1.5,-1.2" fill="none" stroke="var(--sm-landscape-tundra-dark, #627870)" stroke-width="0.55" stroke-linecap="round" stroke-linejoin="round" /><path d="M22.85,42.91v-3m0,1l-1.4,-1.1m1.4,1.1l1.5,-1.2" fill="none" stroke="var(--sm-landscape-tundra-dark, #627870)" stroke-width="0.55" stroke-linecap="round" stroke-linejoin="round" /><path d="M28.01,45.94v-3m0,1l-1.4,-1.1m1.4,1.1l1.5,-1.2" fill="none" stroke="var(--sm-landscape-tundra-dark, #627870)" stroke-width="0.55" stroke-linecap="round" stroke-linejoin="round" /><path d="M28.95,29.65C32.39,30.25 32.39,37.58 28.61,38C29.71,40.89 23.06,44.4 20.87,41.91C18.6,44.76 11.72,41.13 12.59,38.28C9.26,37.61 9.26,30.23 12.28,29.39C11.41,26.46 18.53,22.71 20.87,25.12C23.16,22.93 30.14,26.61 28.95,29.65Z" fill="var(--sm-landscape-tundra-light, #bdc4a2)" stroke="var(--sm-ink, #33262e)" stroke-width="0.45" stroke-linecap="round" stroke-linejoin="round" /><path d="M23.71,34.21v-3m0,1l-1.4,-1.1m1.4,1.1l1.5,-1.2" fill="none" stroke="var(--sm-landscape-tundra-dark, #627870)" stroke-width="0.55" stroke-linecap="round" stroke-linejoin="round" /><path d="M18.81,32.13v-3m0,1l-1.4,-1.1m1.4,1.1l1.5,-1.2" fill="none" stroke="var(--sm-landscape-tundra-dark, #627870)" stroke-width="0.55" stroke-linecap="round" stroke-linejoin="round" /><path d="M24.12,31.83v-3m0,1l-1.4,-1.1m1.4,1.1l1.5,-1.2" fill="none" stroke="var(--sm-landscape-tundra-dark, #627870)" stroke-width="0.55" stroke-linecap="round" stroke-linejoin="round" /><path d="M25.97,34.38v-3m0,1l-1.4,-1.1m1.4,1.1l1.5,-1.2" fill="none" stroke="var(--sm-landscape-tundra-dark, #627870)" stroke-width="0.55" stroke-linecap="round" stroke-linejoin="round" /><path d="M25.6,40.45v-3m0,1l-1.4,-1.1m1.4,1.1l1.5,-1.2" fill="none" stroke="var(--sm-landscape-tundra-dark, #627870)" stroke-width="0.55" stroke-linecap="round" stroke-linejoin="round" /><path d="M18.9,38.51v-3m0,1l-1.4,-1.1m1.4,1.1l1.5,-1.2" fill="none" stroke="var(--sm-landscape-tundra-dark, #627870)" stroke-width="0.55" stroke-linecap="round" stroke-linejoin="round" /><path d="M26.03,31.98v-3m0,1l-1.4,-1.1m1.4,1.1l1.5,-1.2" fill="none" stroke="var(--sm-landscape-tundra-dark, #627870)" stroke-width="0.55" stroke-linecap="round" stroke-linejoin="round" /><path d="M27.24,29.88C30.03,30.42 30.03,36.42 26.78,36.71C27.6,38.98 22.16,41.79 20.37,40.61C18.54,41.97 12.97,39.1 13.57,36.91C10.98,36.33 10.98,30.5 13.55,29.91C12.66,27.49 18.46,24.51 20.37,26.84C22.16,25.05 27.61,27.85 27.24,29.88Z" fill="var(--sm-snow, #f2f6f8)" stroke="var(--sm-ink, #33262e)" stroke-width="0" stroke-linecap="round" stroke-linejoin="round" /><path d="M26.62,20.3C28.88,20.61 28.88,25.4 26.89,25.86C27.33,27.64 23.17,29.98 21.8,28.25C20.38,30.22 16.07,27.8 16.79,25.81C14.84,25.36 14.84,20.65 16.6,20.09C16.12,18.25 20.39,15.86 21.8,17.44C23.14,16.17 27.22,18.46 26.62,20.3Z" fill="var(--sm-landscape-tundra-light, #bdc4a2)" stroke="var(--sm-ink, #33262e)" stroke-width="0.45" stroke-linecap="round" stroke-linejoin="round" /><path d="M19.32,26.93v-3m0,1l-1.4,-1.1m1.4,1.1l1.5,-1.2" fill="none" stroke="var(--sm-landscape-tundra-dark, #627870)" stroke-width="0.55" stroke-linecap="round" stroke-linejoin="round" /><path d="M22.71,26.96v-3m0,1l-1.4,-1.1m1.4,1.1l1.5,-1.2" fill="none" stroke="var(--sm-landscape-tundra-dark, #627870)" stroke-width="0.55" stroke-linecap="round" stroke-linejoin="round" /><path d="M19.03,24.71v-3m0,1l-1.4,-1.1m1.4,1.1l1.5,-1.2" fill="none" stroke="var(--sm-landscape-tundra-dark, #627870)" stroke-width="0.55" stroke-linecap="round" stroke-linejoin="round" /><path d="M23.81,27.47v-3m0,1l-1.4,-1.1m1.4,1.1l1.5,-1.2" fill="none" stroke="var(--sm-landscape-tundra-dark, #627870)" stroke-width="0.55" stroke-linecap="round" stroke-linejoin="round" /><path d="M20.17,24.81v-3m0,1l-1.4,-1.1m1.4,1.1l1.5,-1.2" fill="none" stroke="var(--sm-landscape-tundra-dark, #627870)" stroke-width="0.55" stroke-linecap="round" stroke-linejoin="round" /><path d="M21.39,22.83v-3m0,1l-1.4,-1.1m1.4,1.1l1.5,-1.2" fill="none" stroke="var(--sm-landscape-tundra-dark, #627870)" stroke-width="0.55" stroke-linecap="round" stroke-linejoin="round" /><path d="M18.68,23.34v-3m0,1l-1.4,-1.1m1.4,1.1l1.5,-1.2" fill="none" stroke="var(--sm-landscape-tundra-dark, #627870)" stroke-width="0.55" stroke-linecap="round" stroke-linejoin="round" /><path d="M36.1,15.68C39.75,15.93 39.75,21.17 36.4,21.55C37.24,23.54 31,26.05 28.95,24.54C26.84,26.27 20.42,23.69 21.82,21.42C17.92,21.23 17.92,15.88 21.84,15.69C20.21,13.3 26.79,10.65 28.95,12.07C31,11.05 37.24,13.57 36.1,15.68Z" fill="var(--sm-landscape-tundra-light, #bdc4a2)" stroke="var(--sm-ink, #33262e)" stroke-width="0.45" stroke-linecap="round" stroke-linejoin="round" /><path d="M29.01,20.54v-3m0,1l-1.4,-1.1m1.4,1.1l1.5,-1.2" fill="none" stroke="var(--sm-landscape-tundra-dark, #627870)" stroke-width="0.55" stroke-linecap="round" stroke-linejoin="round" /><path d="M28.18,18v-3m0,1l-1.4,-1.1m1.4,1.1l1.5,-1.2" fill="none" stroke="var(--sm-landscape-tundra-dark, #627870)" stroke-width="0.55" stroke-linecap="round" stroke-linejoin="round" /><path d="M24.88,18.99v-3m0,1l-1.4,-1.1m1.4,1.1l1.5,-1.2" fill="none" stroke="var(--sm-landscape-tundra-dark, #627870)" stroke-width="0.55" stroke-linecap="round" stroke-linejoin="round" /><path d="M24.32,18.25v-3m0,1l-1.4,-1.1m1.4,1.1l1.5,-1.2" fill="none" stroke="var(--sm-landscape-tundra-dark, #627870)" stroke-width="0.55" stroke-linecap="round" stroke-linejoin="round" /><path d="M29.67,20.29v-3m0,1l-1.4,-1.1m1.4,1.1l1.5,-1.2" fill="none" stroke="var(--sm-landscape-tundra-dark, #627870)" stroke-width="0.55" stroke-linecap="round" stroke-linejoin="round" /><path d="M30.47,20.64v-3m0,1l-1.4,-1.1m1.4,1.1l1.5,-1.2" fill="none" stroke="var(--sm-landscape-tundra-dark, #627870)" stroke-width="0.55" stroke-linecap="round" stroke-linejoin="round" /><path d="M30.43,23.18v-3m0,1l-1.4,-1.1m1.4,1.1l1.5,-1.2" fill="none" stroke="var(--sm-landscape-tundra-dark, #627870)" stroke-width="0.55" stroke-linecap="round" stroke-linejoin="round" /><path d="M45.43,19.93C47.14,20.8 47.14,26.4 44.77,26.89C45.67,29.29 40.64,32.15 38.99,30.5C37.32,32.22 32.26,29.33 32.68,27.2C30.16,26.63 30.16,20.56 32.58,19.95C31.94,17.59 37.25,14.57 38.99,16.97C40.61,15.21 45.54,18.02 45.43,19.93Z" fill="var(--sm-landscape-tundra-light, #bdc4a2)" stroke="var(--sm-ink, #33262e)" stroke-width="0.45" stroke-linecap="round" stroke-linejoin="round" /><path d="M39.73,28.69v-3m0,1l-1.4,-1.1m1.4,1.1l1.5,-1.2" fill="none" stroke="var(--sm-landscape-tundra-dark, #627870)" stroke-width="0.55" stroke-linecap="round" stroke-linejoin="round" /><path d="M39.09,23.65v-3m0,1l-1.4,-1.1m1.4,1.1l1.5,-1.2" fill="none" stroke="var(--sm-landscape-tundra-dark, #627870)" stroke-width="0.55" stroke-linecap="round" stroke-linejoin="round" /><path d="M36.45,27.95v-3m0,1l-1.4,-1.1m1.4,1.1l1.5,-1.2" fill="none" stroke="var(--sm-landscape-tundra-dark, #627870)" stroke-width="0.55" stroke-linecap="round" stroke-linejoin="round" /><path d="M41.2,23.93v-3m0,1l-1.4,-1.1m1.4,1.1l1.5,-1.2" fill="none" stroke="var(--sm-landscape-tundra-dark, #627870)" stroke-width="0.55" stroke-linecap="round" stroke-linejoin="round" /><path d="M41.68,22.36v-3m0,1l-1.4,-1.1m1.4,1.1l1.5,-1.2" fill="none" stroke="var(--sm-landscape-tundra-dark, #627870)" stroke-width="0.55" stroke-linecap="round" stroke-linejoin="round" /><path d="M37.31,23.72v-3m0,1l-1.4,-1.1m1.4,1.1l1.5,-1.2" fill="none" stroke="var(--sm-landscape-tundra-dark, #627870)" stroke-width="0.55" stroke-linecap="round" stroke-linejoin="round" /><path d="M36.57,23.6v-3m0,1l-1.4,-1.1m1.4,1.1l1.5,-1.2" fill="none" stroke="var(--sm-landscape-tundra-dark, #627870)" stroke-width="0.55" stroke-linecap="round" stroke-linejoin="round" /><path d="M43.25,20.45C45.54,20.73 45.54,25.46 43.45,25.86C44.1,27.77 39.88,30.12 38.49,28.64C37.06,30.34 32.7,27.91 33.53,25.86C31.4,25.48 31.4,20.72 33.24,20.18C33.04,18.57 37.14,16.29 38.49,17.92C39.81,16.44 43.82,18.67 43.25,20.45Z" fill="var(--sm-snow, #f2f6f8)" stroke="var(--sm-ink, #33262e)" stroke-width="0" stroke-linecap="round" stroke-linejoin="round" /></svg>
